<svg width="24" height="24" viewBox="0 0 24 24" fill="none" xmlns="http://www.w3.org/2000/svg">
<path d="M10.6499 2.1L11.9999 0.75L13.3499 2.1" stroke="#AEAEAE" stroke-miterlimit="10" stroke-linecap="round" stroke-linejoin="round"/>
<path d="M12 0.75V3.825" stroke="#AEAEAE" stroke-miterlimit="10" stroke-linecap="round" stroke-linejoin="round"/>
<path d="M5.1001 5.5501V3.6001H7.0501" stroke="#AEAEAE" stroke-miterlimit="10" stroke-linecap="round" stroke-linejoin="round"/>
<path d="M5.1001 3.6001L7.3501 5.7751" stroke="#AEAEAE" stroke-miterlimit="10" stroke-linecap="round" stroke-linejoin="round"/>
<path d="M3.675 11.85L2.25 10.5L3.675 9.07495" stroke="#AEAEAE" stroke-miterlimit="10" stroke-linecap="round" stroke-linejoin="round"/>
<path d="M2.25 10.5H5.4" stroke="#AEAEAE" stroke-miterlimit="10" stroke-linecap="round" stroke-linejoin="round"/>
<path d="M16.95 3.6001H18.9V5.5501" stroke="#AEAEAE" stroke-miterlimit="10" stroke-linecap="round" stroke-linejoin="round"/>
<path d="M18.8999 3.6001L16.6499 5.7751" stroke="#AEAEAE" stroke-miterlimit="10" stroke-linecap="round" stroke-linejoin="round"/>
<path d="M20.3252 9.07495L21.7502 10.5L20.3252 11.85" stroke="#AEAEAE" stroke-miterlimit="10" stroke-linecap="round" stroke-linejoin="round"/>
<path d="M21.7501 10.5H18.6001" stroke="#AEAEAE" stroke-miterlimit="10" stroke-linecap="round" stroke-linejoin="round"/>
<path d="M16.95 23.2499H7.05005C6.45005 23.2499 5.92505 22.7249 5.92505 22.1249V21.7499C5.92505 19.1249 8.02505 17.0249 10.65 17.0249H13.35C15.975 17.0249 18.075 19.1249 18.075 21.7499V22.1249C18.075 22.7249 17.55 23.2499 16.95 23.2499Z" stroke="#AEAEAE" stroke-width="1.2" stroke-miterlimit="10" stroke-linecap="round" stroke-linejoin="round"/>
<path d="M12 6.375C10.125 6.375 8.625 7.875 8.625 9.75C8.625 11.625 10.125 14.475 12 14.475C13.875 14.475 15.375 11.625 15.375 9.75C15.375 7.875 13.875 6.375 12 6.375Z" stroke="#AEAEAE" stroke-width="1.2" stroke-miterlimit="10" stroke-linecap="round" stroke-linejoin="round"/>
</svg>
