<svg width="22" height="22" viewBox="0 0 22 22" fill="none" xmlns="http://www.w3.org/2000/svg">
<path d="M11.0001 1.25C9.07176 1.25 7.1867 1.82183 5.58332 2.89317C3.97994 3.96452 2.73026 5.48726 1.9923 7.26884C1.25435 9.05042 1.06126 11.0108 1.43747 12.9021C1.81368 14.7934 2.74227 16.5307 4.10584 17.8943C5.4694 19.2579 7.20668 20.1865 9.098 20.5627C10.9893 20.9389 12.9497 20.7458 14.7313 20.0078C16.5129 19.2699 18.0356 18.0202 19.107 16.4168C20.1783 14.8134 20.7501 12.9284 20.7501 11C20.7472 8.41504 19.719 5.93679 17.8912 4.10894C16.0633 2.28109 13.5851 1.25293 11.0001 1.25V1.25ZM11.0002 17C10.7777 17 10.5602 16.9341 10.3752 16.8104C10.1902 16.6868 10.046 16.5111 9.96081 16.3056C9.87566 16.1 9.85339 15.8738 9.89679 15.6556C9.9402 15.4373 10.0473 15.2369 10.2047 15.0795C10.362 14.9222 10.5625 14.8151 10.7807 14.7717C10.9989 14.7282 11.2251 14.7505 11.4307 14.8357C11.6363 14.9208 11.812 15.065 11.9356 15.25C12.0592 15.435 12.1252 15.6525 12.1252 15.875C12.1252 16.1734 12.0067 16.4596 11.7957 16.6705C11.5847 16.8815 11.2985 17 11.0002 17ZM11.7501 12.4165V12.5005C11.7501 12.6994 11.6711 12.8901 11.5305 13.0308C11.3898 13.1714 11.199 13.2505 11.0001 13.2505C10.8012 13.2505 10.6105 13.1714 10.4698 13.0308C10.3291 12.8901 10.2501 12.6994 10.2501 12.5005V11.7505C10.2501 11.5515 10.3292 11.3608 10.4698 11.2201C10.6105 11.0795 10.8012 11.0005 11.0001 11.0005C11.371 11.0005 11.7335 10.8905 12.0418 10.6845C12.3502 10.4784 12.5905 10.1856 12.7324 9.84299C12.8743 9.50038 12.9115 9.12338 12.8391 8.75966C12.7668 8.39595 12.5882 8.06186 12.326 7.79963C12.0637 7.53741 11.7296 7.35883 11.3659 7.28649C11.0022 7.21414 10.6252 7.25127 10.2826 7.39318C9.93999 7.5351 9.64715 7.77542 9.44113 8.08376C9.2351 8.39211 9.12513 8.75462 9.12513 9.12546C9.12513 9.32437 9.04611 9.51513 8.90546 9.65579C8.76481 9.79644 8.57404 9.87546 8.37513 9.87546C8.17622 9.87546 7.98545 9.79644 7.8448 9.65579C7.70415 9.51513 7.62513 9.32437 7.62513 9.12546C7.62521 8.49014 7.80462 7.86774 8.14271 7.32985C8.4808 6.79196 8.96385 6.36042 9.5363 6.08487C10.1088 5.80931 10.7474 5.70093 11.3787 5.77219C12.01 5.84344 12.6084 6.09145 13.105 6.48767C13.6016 6.88389 13.9763 7.41225 14.186 8.01196C14.3957 8.61168 14.4318 9.25841 14.2903 9.87776C14.1488 10.4971 13.8353 11.0639 13.3859 11.5131C12.9366 11.9622 12.3696 12.2753 11.7501 12.4165Z" stroke="white"/>
</svg>
