<svg width="22" height="22" viewBox="0 0 22 22" fill="none" xmlns="http://www.w3.org/2000/svg">
<path d="M11 1.25C9.07164 1.25 7.18657 1.82183 5.58319 2.89317C3.97982 3.96452 2.73013 5.48726 1.99218 7.26884C1.25422 9.05042 1.06114 11.0108 1.43735 12.9021C1.81355 14.7934 2.74215 16.5307 4.10571 17.8943C5.46928 19.2579 7.20656 20.1865 9.09787 20.5627C10.9892 20.9389 12.9496 20.7458 14.7312 20.0078C16.5127 19.2699 18.0355 18.0202 19.1068 16.4168C20.1782 14.8134 20.75 12.9284 20.75 11C20.7471 8.41504 19.7189 5.93679 17.8911 4.10894C16.0632 2.28109 13.585 1.25293 11 1.25V1.25ZM11.0001 17C10.7776 17 10.56 16.9341 10.375 16.8104C10.19 16.6868 10.0458 16.5111 9.96069 16.3056C9.87554 16.1 9.85326 15.8738 9.89667 15.6556C9.94008 15.4373 10.0472 15.2369 10.2046 15.0795C10.3619 14.9222 10.5624 14.8151 10.7806 14.7717C10.9988 14.7282 11.225 14.7505 11.4306 14.8357C11.6361 14.9208 11.8118 15.065 11.9355 15.25C12.0591 15.435 12.1251 15.6525 12.1251 15.875C12.1251 16.1734 12.0065 16.4596 11.7955 16.6705C11.5846 16.8815 11.2984 17 11.0001 17ZM11.75 12.4165V12.5005C11.75 12.6994 11.671 12.8901 11.5303 13.0308C11.3897 13.1714 11.1989 13.2505 11 13.2505C10.8011 13.2505 10.6103 13.1714 10.4697 13.0308C10.329 12.8901 10.25 12.6994 10.25 12.5005V11.7505C10.25 11.5515 10.329 11.3608 10.4697 11.2201C10.6103 11.0795 10.8011 11.0005 11 11.0005C11.3708 11.0005 11.7334 10.8905 12.0417 10.6845C12.35 10.4784 12.5904 10.1856 12.7323 9.84299C12.8742 9.50038 12.9113 9.12338 12.839 8.75966C12.7666 8.39595 12.5881 8.06186 12.3258 7.79963C12.0636 7.53741 11.7295 7.35883 11.3658 7.28649C11.0021 7.21414 10.6251 7.25127 10.2825 7.39318C9.93987 7.5351 9.64703 7.77542 9.441 8.08376C9.23498 8.39211 9.12501 8.75462 9.12501 9.12546C9.12501 9.32437 9.04599 9.51513 8.90534 9.65579C8.76469 9.79644 8.57392 9.87546 8.37501 9.87546C8.1761 9.87546 7.98533 9.79644 7.84468 9.65579C7.70403 9.51513 7.62501 9.32437 7.62501 9.12546C7.62509 8.49014 7.80449 7.86774 8.14259 7.32985C8.48068 6.79196 8.96373 6.36042 9.53618 6.08487C10.1086 5.80931 10.7472 5.70093 11.3785 5.77219C12.0099 5.84344 12.6082 6.09145 13.1049 6.48767C13.6015 6.88389 13.9762 7.41225 14.1859 8.01196C14.3956 8.61168 14.4317 9.25841 14.2902 9.87776C14.1487 10.4971 13.8352 11.0639 13.3858 11.5131C12.9364 11.9622 12.3694 12.2753 11.75 12.4165Z" stroke="#AEAEAE"/>
</svg>
