<svg width="9" height="3" viewBox="0 0 9 3" fill="none" xmlns="http://www.w3.org/2000/svg">
<path d="M1.47168 2.15039C1.26204 2.15039 1.08203 2.0752 0.931641 1.9248C0.785807 1.77441 0.712891 1.5944 0.712891 1.38477C0.712891 1.17513 0.785807 0.995117 0.931641 0.844727C1.08203 0.689779 1.26204 0.612305 1.47168 0.612305C1.68587 0.612305 1.86816 0.689779 2.01855 0.844727C2.16895 0.995117 2.24414 1.17513 2.24414 1.38477C2.24414 1.5944 2.16895 1.77441 2.01855 1.9248C1.86816 2.0752 1.68587 2.15039 1.47168 2.15039ZM4.50684 2.15039C4.2972 2.15039 4.11719 2.0752 3.9668 1.9248C3.82096 1.77441 3.74805 1.5944 3.74805 1.38477C3.74805 1.17513 3.82096 0.995117 3.9668 0.844727C4.11719 0.689779 4.2972 0.612305 4.50684 0.612305C4.72103 0.612305 4.90332 0.689779 5.05371 0.844727C5.2041 0.995117 5.2793 1.17513 5.2793 1.38477C5.2793 1.5944 5.2041 1.77441 5.05371 1.9248C4.90332 2.0752 4.72103 2.15039 4.50684 2.15039ZM7.54199 2.15039C7.33236 2.15039 7.15234 2.0752 7.00195 1.9248C6.85612 1.77441 6.7832 1.5944 6.7832 1.38477C6.7832 1.17513 6.85612 0.995117 7.00195 0.844727C7.15234 0.689779 7.33236 0.612305 7.54199 0.612305C7.75618 0.612305 7.93848 0.689779 8.08887 0.844727C8.23926 0.995117 8.31445 1.17513 8.31445 1.38477C8.31445 1.5944 8.23926 1.77441 8.08887 1.9248C7.93848 2.0752 7.75618 2.15039 7.54199 2.15039Z" fill="#040E16"/>
</svg>
