<svg width="30" height="30" viewBox="0 0 30 30" fill="none" xmlns="http://www.w3.org/2000/svg">
<path d="M15.5 23H20.5L19.095 21.595C18.9063 21.4063 18.7567 21.1822 18.6546 20.9357C18.5525 20.6891 18.5 20.4249 18.5 20.158V17C18.5002 15.7589 18.1156 14.5483 17.3992 13.5349C16.6829 12.5214 15.67 11.755 14.5 11.341V11C14.5 10.4696 14.2893 9.96086 13.9142 9.58579C13.5391 9.21071 13.0304 9 12.5 9C11.9696 9 11.4609 9.21071 11.0858 9.58579C10.7107 9.96086 10.5 10.4696 10.5 11V11.341C8.17 12.165 6.5 14.388 6.5 17V20.159C6.5 20.697 6.286 21.214 5.905 21.595L4.5 23H9.5M15.5 23V24C15.5 24.7956 15.1839 25.5587 14.6213 26.1213C14.0587 26.6839 13.2956 27 12.5 27C11.7044 27 10.9413 26.6839 10.3787 26.1213C9.81607 25.5587 9.5 24.7956 9.5 24V23M15.5 23H9.5" stroke="#729F40" stroke-width="2" stroke-linecap="round" stroke-linejoin="round"/>
<circle cx="20.5" cy="9" r="9" fill="#729F40"/>
<path d="M14.5586 11.6562C14.5586 11.4336 14.5938 11.2109 14.6641 10.9883C14.7344 10.7617 14.834 10.5508 14.9629 10.3555C15.0957 10.1602 15.2578 9.98242 15.4492 9.82227C15.6445 9.66211 15.8652 9.53516 16.1113 9.44141C15.748 9.23828 15.459 8.97852 15.2441 8.66211C15.0293 8.3418 14.9219 7.98828 14.9219 7.60156C14.9219 7.29297 14.9805 7.00781 15.0977 6.74609C15.2188 6.48438 15.3848 6.25781 15.5957 6.06641C15.8066 5.875 16.0566 5.72656 16.3457 5.62109C16.6348 5.51172 16.9473 5.45703 17.2832 5.45703C17.623 5.45703 17.9375 5.51172 18.2266 5.62109C18.5156 5.73047 18.7656 5.88086 18.9766 6.07227C19.1875 6.26367 19.3516 6.49023 19.4688 6.75195C19.5859 7.01367 19.6445 7.29688 19.6445 7.60156C19.6445 7.98828 19.5371 8.3418 19.3223 8.66211C19.1074 8.97852 18.8223 9.23828 18.4668 9.44141C18.709 9.53516 18.9258 9.66211 19.1172 9.82227C19.3086 9.98242 19.4688 10.1602 19.5977 10.3555C19.7305 10.5508 19.832 10.7617 19.9023 10.9883C19.9727 11.2109 20.0078 11.4336 20.0078 11.6562C20.0078 12.0234 19.9414 12.3594 19.8086 12.6641C19.6758 12.9688 19.4883 13.2305 19.2461 13.4492C19.0078 13.6641 18.7207 13.832 18.3848 13.9531C18.0527 14.0742 17.6855 14.1348 17.2832 14.1348C16.8848 14.1348 16.5195 14.0742 16.1875 13.9531C15.8555 13.832 15.5684 13.6641 15.3262 13.4492C15.084 13.2305 14.8945 12.9688 14.7578 12.6641C14.625 12.3594 14.5586 12.0234 14.5586 11.6562ZM15.6016 11.5742C15.6016 11.8359 15.6406 12.0723 15.7188 12.2832C15.8008 12.4941 15.9141 12.6738 16.0586 12.8223C16.207 12.9707 16.3848 13.0859 16.5918 13.168C16.8027 13.2461 17.0352 13.2852 17.2891 13.2852C17.5352 13.2852 17.7617 13.2441 17.9688 13.1621C18.1758 13.0801 18.3535 12.9648 18.502 12.8164C18.6543 12.668 18.7715 12.4883 18.8535 12.2773C18.9395 12.0664 18.9824 11.832 18.9824 11.5742C18.9824 11.3398 18.9414 11.1211 18.8594 10.918C18.7812 10.7109 18.668 10.5293 18.5195 10.373C18.3711 10.2168 18.1934 10.0938 17.9863 10.0039C17.7793 9.91406 17.5469 9.86914 17.2891 9.86914C17.0469 9.86914 16.8223 9.91211 16.6152 9.99805C16.4121 10.0801 16.2344 10.1973 16.082 10.3496C15.9336 10.498 15.8164 10.6777 15.7305 10.8887C15.6445 11.0957 15.6016 11.3242 15.6016 11.5742ZM15.9004 7.67773C15.9004 7.87695 15.9355 8.0625 16.0059 8.23438C16.0801 8.40234 16.1797 8.55078 16.3047 8.67969C16.4336 8.80469 16.582 8.9043 16.75 8.97852C16.918 9.04883 17.0977 9.08398 17.2891 9.08398C17.4805 9.08398 17.6602 9.04688 17.8281 8.97266C18 8.89844 18.1484 8.79883 18.2734 8.67383C18.3984 8.54492 18.498 8.39648 18.5723 8.22852C18.6465 8.05664 18.6836 7.87305 18.6836 7.67773C18.6836 7.47461 18.6465 7.28711 18.5723 7.11523C18.502 6.94336 18.4043 6.79492 18.2793 6.66992C18.1543 6.54492 18.0059 6.44727 17.834 6.37695C17.666 6.30273 17.4844 6.26562 17.2891 6.26562C17.082 6.26562 16.8926 6.30273 16.7207 6.37695C16.5527 6.45117 16.4062 6.55273 16.2812 6.68164C16.1602 6.80664 16.0664 6.95508 16 7.12695C15.9336 7.29883 15.9004 7.48242 15.9004 7.67773ZM26.3828 9.29492C26.3828 10.0645 26.3066 10.75 26.1543 11.3516C26.002 11.9492 25.7793 12.457 25.4863 12.875C25.1934 13.2891 24.8359 13.6055 24.4141 13.8242C23.9922 14.0391 23.5117 14.1465 22.9727 14.1465C22.418 14.1465 21.9297 14.0488 21.5078 13.8535V12.9336C21.9727 13.1953 22.4688 13.3262 22.9961 13.3262C23.375 13.3262 23.7129 13.248 24.0098 13.0918C24.3105 12.9355 24.5645 12.709 24.7715 12.4121C24.9785 12.1113 25.1367 11.7422 25.2461 11.3047C25.3555 10.8672 25.4102 10.3652 25.4102 9.79883H25.3867C25.0273 10.5215 24.4023 10.8828 23.5117 10.8828C23.1523 10.8828 22.8223 10.8203 22.5215 10.6953C22.2207 10.5664 21.9609 10.3867 21.7422 10.1562C21.5234 9.92188 21.3535 9.64453 21.2324 9.32422C21.1113 9.00391 21.0508 8.65039 21.0508 8.26367C21.0508 7.84961 21.1172 7.4707 21.25 7.12695C21.3867 6.7832 21.5742 6.48828 21.8125 6.24219C22.0547 5.99219 22.3398 5.79883 22.668 5.66211C23 5.52539 23.3613 5.45703 23.752 5.45703C24.1738 5.45703 24.5469 5.54297 24.8711 5.71484C25.1992 5.88281 25.4746 6.13086 25.6973 6.45898C25.9199 6.7832 26.0898 7.18359 26.207 7.66016C26.3242 8.13672 26.3828 8.68164 26.3828 9.29492ZM25.3457 8.43359C25.3457 8.10938 25.3027 7.81445 25.2168 7.54883C25.1348 7.2832 25.0195 7.05664 24.8711 6.86914C24.7227 6.67773 24.5449 6.53125 24.3379 6.42969C24.1348 6.32422 23.9121 6.27148 23.6699 6.27148C23.4395 6.27148 23.2246 6.31836 23.0254 6.41211C22.8262 6.50195 22.6523 6.63086 22.5039 6.79883C22.3594 6.96289 22.2441 7.16016 22.1582 7.39062C22.0762 7.61719 22.0352 7.86523 22.0352 8.13477C22.0352 8.43164 22.0742 8.69727 22.1523 8.93164C22.2344 9.16602 22.3496 9.36523 22.498 9.5293C22.6465 9.68945 22.8242 9.8125 23.0312 9.89844C23.2422 9.98438 23.4746 10.0273 23.7285 10.0273C23.9512 10.0273 24.1602 9.98633 24.3555 9.9043C24.5547 9.81836 24.7266 9.70508 24.8711 9.56445C25.0195 9.41992 25.1348 9.25195 25.2168 9.06055C25.3027 8.86523 25.3457 8.65625 25.3457 8.43359Z" fill="white"/>
</svg>
