<svg width="20" height="20" viewBox="0 0 20 20" fill="none" xmlns="http://www.w3.org/2000/svg">
<path d="M8.50996 1.665C8.69755 1.4555 8.92721 1.28791 9.18396 1.17317C9.4407 1.05843 9.71875 0.99913 9.99996 0.99913C10.2812 0.99913 10.5592 1.05843 10.816 1.17317C11.0727 1.28791 11.3024 1.4555 11.49 1.665L12.19 2.447C12.39 2.6705 12.6378 2.84613 12.9149 2.9609C13.1921 3.07566 13.4915 3.12662 13.791 3.11L14.841 3.052C15.1218 3.03652 15.4028 3.08045 15.6655 3.18092C15.9282 3.2814 16.1668 3.43616 16.3656 3.63509C16.5644 3.83403 16.7191 4.07267 16.8194 4.33543C16.9198 4.59819 16.9636 4.87916 16.948 5.16L16.89 6.209C16.8735 6.50833 16.9245 6.80754 17.0393 7.08449C17.1541 7.36144 17.3296 7.60905 17.553 7.809L18.335 8.509C18.5446 8.69659 18.7124 8.92631 18.8272 9.18315C18.942 9.43999 19.0014 9.71816 19.0014 9.9995C19.0014 10.2808 18.942 10.559 18.8272 10.8159C18.7124 11.0727 18.5446 11.3024 18.335 11.49L17.553 12.19C17.3295 12.3901 17.1538 12.6378 17.0391 12.915C16.9243 13.1921 16.8733 13.4915 16.89 13.791L16.948 14.841C16.9634 15.1218 16.9195 15.4028 16.819 15.6655C16.7186 15.9282 16.5638 16.1668 16.3649 16.3656C16.1659 16.5645 15.9273 16.7191 15.6645 16.8195C15.4018 16.9198 15.1208 16.9636 14.84 16.948L13.791 16.89C13.4916 16.8735 13.1924 16.9246 12.9155 17.0393C12.6385 17.1541 12.3909 17.3296 12.191 17.553L11.491 18.335C11.3034 18.5447 11.0737 18.7124 10.8168 18.8272C10.56 18.9421 10.2818 19.0014 10.0005 19.0014C9.71912 19.0014 9.44095 18.9421 9.18411 18.8272C8.92728 18.7124 8.69756 18.5447 8.50996 18.335L7.80997 17.553C7.6099 17.3295 7.36213 17.1539 7.085 17.0391C6.80786 16.9243 6.50846 16.8734 6.20896 16.89L5.15897 16.948C4.87812 16.9635 4.59717 16.9196 4.33445 16.8191C4.07174 16.7186 3.83317 16.5638 3.63433 16.3649C3.43549 16.166 3.28085 15.9273 3.1805 15.6646C3.08015 15.4018 3.03635 15.1208 3.05196 14.84L3.10997 13.791C3.12643 13.4917 3.0754 13.1925 2.96064 12.9155C2.84588 12.6386 2.67033 12.391 2.44696 12.191L1.66496 11.491C1.4553 11.3034 1.28756 11.0737 1.17273 10.8169C1.05789 10.56 0.998535 10.2818 0.998535 10.0005C0.998535 9.71916 1.05789 9.44099 1.17273 9.18415C1.28756 8.92731 1.4553 8.6976 1.66496 8.51L2.44696 7.81C2.67046 7.60994 2.84609 7.36217 2.96086 7.08503C3.07563 6.8079 3.12659 6.5085 3.10997 6.209L3.05196 5.159C3.03663 4.87824 3.08067 4.5974 3.18121 4.3348C3.28175 4.07221 3.43653 3.83377 3.63545 3.63504C3.83437 3.4363 4.07296 3.28175 4.33564 3.18146C4.59833 3.08117 4.87922 3.0374 5.15996 3.053L6.20896 3.111C6.5083 3.12747 6.8075 3.07644 7.08445 2.96168C7.3614 2.84691 7.60901 2.67136 7.80896 2.448L8.50996 1.665Z" stroke="#729F40" stroke-width="2"/>
<path d="M7.5 7.5H7.51V7.51H7.5V7.5ZM12.5 12.5H12.51V12.51H12.5V12.5Z" stroke="#729F40" stroke-width="3" stroke-linejoin="round"/>
<path d="M13 7L7 13" stroke="#729F40" stroke-width="2" stroke-linecap="round" stroke-linejoin="round"/>
</svg>
