<svg width="18" height="18" viewBox="0 0 18 18" fill="none" xmlns="http://www.w3.org/2000/svg">
<path fill-rule="evenodd" clip-rule="evenodd" d="M9.93067 9.00003L6.25105 12.7563C5.91632 13.098 5.91632 13.652 6.25105 13.9937C6.58579 14.3355 7.1285 14.3355 7.46323 13.9937L11.7489 9.61875C12.0837 9.27704 12.0837 8.72302 11.7489 8.38131L7.46323 4.00631C7.1285 3.6646 6.58579 3.6646 6.25105 4.00631C5.91632 4.34802 5.91632 4.90204 6.25105 5.24375L9.93067 9.00003Z" fill="#64748B"/>
<mask id="mask0_146_424" style="mask-type:luminance" maskUnits="userSpaceOnUse" x="6" y="3" width="6" height="12">
<path fill-rule="evenodd" clip-rule="evenodd" d="M9.93067 9.00003L6.25105 12.7563C5.91632 13.098 5.91632 13.652 6.25105 13.9937C6.58579 14.3355 7.1285 14.3355 7.46323 13.9937L11.7489 9.61875C12.0837 9.27704 12.0837 8.72302 11.7489 8.38131L7.46323 4.00631C7.1285 3.6646 6.58579 3.6646 6.25105 4.00631C5.91632 4.34802 5.91632 4.90204 6.25105 5.24375L9.93067 9.00003Z" fill="white"/>
</mask>
<g mask="url(#mask0_146_424)">
</g>
</svg>
