<svg width="24" height="24" viewBox="0 0 24 24" fill="none" xmlns="http://www.w3.org/2000/svg">
<g clip-path="url(#clip0_149_575)">
<path d="M20.7375 2.58749H19.0875V1.72499C19.0875 1.27499 18.7125 0.862488 18.225 0.862488C17.7375 0.862488 17.3625 1.23749 17.3625 1.72499V2.58749H6.60005V1.72499C6.60005 1.27499 6.22505 0.862488 5.73755 0.862488C5.25005 0.862488 4.87505 1.23749 4.87505 1.72499V2.58749H3.26255C1.83755 2.58749 0.675049 3.74999 0.675049 5.17499V15.6C0.675049 17.025 1.83755 18.1875 3.26255 18.1875H14.475C14.4375 18.3375 14.4375 18.525 14.4375 18.675C14.4375 21.1125 16.425 23.1375 18.9 23.1375C21.375 23.1375 23.3625 21.15 23.3625 18.675C23.3625 18.15 23.2875 17.6625 23.1 17.2125C23.25 16.9125 23.3625 16.6125 23.3625 16.275V5.17499C23.3625 3.74999 22.1625 2.58749 20.7375 2.58749ZM3.26255 4.27499H4.91255V4.64999C4.91255 5.09999 5.28755 5.51249 5.77505 5.51249C6.26255 5.51249 6.63755 5.13749 6.63755 4.64999V4.27499H17.4375V4.64999C17.4375 5.09999 17.8125 5.51249 18.3 5.51249C18.7875 5.51249 19.1625 5.13749 19.1625 4.64999V4.27499H20.8125C21.3 4.27499 21.7125 4.68749 21.7125 5.17499V7.42499H2.36255V5.17499C2.36255 4.64999 2.73755 4.27499 3.26255 4.27499ZM3.26255 16.5C2.77505 16.5 2.36255 16.0875 2.36255 15.6V9.07499H21.675V15.1875C20.925 14.5875 19.95 14.2125 18.9 14.2125C17.25 14.2125 15.7875 15.1125 15.0375 16.4625H3.26255V16.5ZM18.9 21.45C17.3625 21.45 16.125 20.2125 16.125 18.675C16.125 17.1375 17.3625 15.9 18.9 15.9C20.4375 15.9 21.675 17.1375 21.675 18.675C21.675 20.2125 20.4 21.45 18.9 21.45Z" fill="#959595"/>
<path d="M9.2626 10.3125H8.4751C8.2501 10.3125 8.1001 10.4625 8.1001 10.6875V11.475C8.1001 11.7 8.2501 11.85 8.4751 11.85H9.2626C9.4876 11.85 9.6376 11.7 9.6376 11.475V10.6875C9.6376 10.5 9.4876 10.3125 9.2626 10.3125Z" fill="#959595"/>
<path d="M12.7501 10.3125H11.9626C11.7376 10.3125 11.5876 10.4625 11.5876 10.6875V11.475C11.5876 11.7 11.7376 11.85 11.9626 11.85H12.7501C12.9751 11.85 13.1251 11.7 13.1251 11.475V10.6875C13.1251 10.5 12.9751 10.3125 12.7501 10.3125Z" fill="#959595"/>
<path d="M16.6125 11.475V10.6875C16.6125 10.4625 16.4625 10.3125 16.2375 10.3125H15.45C15.225 10.3125 15.075 10.4625 15.075 10.6875V11.475C15.075 11.7 15.225 11.85 15.45 11.85H16.2375C16.425 11.85 16.6125 11.7 16.6125 11.475Z" fill="#959595"/>
<path d="M5.77505 13.2H4.98755C4.76255 13.2 4.61255 13.35 4.61255 13.575V14.3625C4.61255 14.5875 4.76255 14.7375 4.98755 14.7375H5.77505C6.00005 14.7375 6.15005 14.5875 6.15005 14.3625V13.575C6.15005 13.35 6.00005 13.2 5.77505 13.2Z" fill="#959595"/>
<path d="M9.2626 13.2H8.4751C8.2501 13.2 8.1001 13.35 8.1001 13.575V14.3625C8.1001 14.5875 8.2501 14.7375 8.4751 14.7375H9.2626C9.4876 14.7375 9.6376 14.5875 9.6376 14.3625V13.575C9.6376 13.35 9.4876 13.2 9.2626 13.2Z" fill="#959595"/>
<path d="M12.7501 13.2H11.9626C11.7376 13.2 11.5876 13.35 11.5876 13.575V14.3625C11.5876 14.5875 11.7376 14.7375 11.9626 14.7375H12.7501C12.9751 14.7375 13.1251 14.5875 13.1251 14.3625V13.575C13.1251 13.35 12.9751 13.2 12.7501 13.2Z" fill="#959595"/>
<path d="M20.025 18.1875H19.5375V17.775C19.5375 17.325 19.1625 16.9125 18.675 16.9125C18.1875 16.9125 17.8125 17.2875 17.8125 17.775V19.05C17.8125 19.5 18.1875 19.9125 18.675 19.9125H19.9875C20.4375 19.9125 20.85 19.5375 20.85 19.05C20.85 18.5625 20.5125 18.1875 20.025 18.1875Z" fill="#959595"/>
</g>
<defs>
<clipPath id="clip0_149_575">
<rect width="24" height="24" fill="white"/>
</clipPath>
</defs>
</svg>
