<svg width="22" height="22" viewBox="0 0 22 22" fill="none" xmlns="http://www.w3.org/2000/svg">
<path d="M20.7626 6.77185C20.3501 6.35935 19.8001 6.11872 19.2157 6.11872H16.7063V4.7781C16.7063 4.39998 16.5688 3.50623 15.2626 3.50623H6.66885C5.43135 3.50623 5.29385 4.39998 5.29385 4.7781V6.11872H2.78447C1.58135 6.11872 0.584473 7.1156 0.584473 8.31873V16.2937C0.584473 17.4968 1.58135 18.4937 2.78447 18.4937H19.1813C20.3845 18.4937 21.3813 17.4968 21.3813 16.2937V8.31873C21.4157 7.73435 21.1751 7.18435 20.7626 6.77185ZM19.8345 16.2937C19.8345 16.6375 19.5595 16.9468 19.1813 16.9468H2.78447C2.44072 16.9468 2.13135 16.6718 2.13135 16.2937V8.31873C2.13135 7.97498 2.40635 7.6656 2.78447 7.6656H5.70635C6.3251 7.6656 6.84072 7.14998 6.84072 6.53123V5.0531H15.1251V6.53123C15.1251 7.14998 15.6407 7.6656 16.2595 7.6656H19.2157C19.3876 7.6656 19.5595 7.73435 19.6626 7.87185C19.8001 8.00935 19.8345 8.14685 19.8345 8.31873V16.2937Z" fill="#145DA0"/>
<path d="M10.8626 8.07812C9.0751 8.07812 7.63135 9.52187 7.63135 11.3438C7.63135 13.1312 9.04072 14.5406 10.8626 14.5406C12.6501 14.5406 14.0938 13.0969 14.0938 11.3438C14.0938 9.59063 12.6157 8.07812 10.8626 8.07812ZM10.8626 12.9937C9.9001 12.9937 9.17822 12.2719 9.17822 11.3438C9.17822 10.4156 9.93447 9.625 10.8626 9.625C11.7907 9.625 12.547 10.4156 12.547 11.3438C12.547 12.2719 11.7907 12.9937 10.8626 12.9937Z" fill="#145DA0"/>
<path d="M4.74385 8.69684H3.95322C3.54072 8.69684 3.1626 9.04059 3.1626 9.48746C3.1626 9.93434 3.50635 10.2781 3.95322 10.2781H4.74385C5.15635 10.2781 5.53447 9.93434 5.53447 9.48746C5.53447 9.04059 5.19072 8.69684 4.74385 8.69684Z" fill="#145DA0"/>
</svg>
