<svg width="300" height="300" viewBox="0 0 300 300" fill="none" xmlns="http://www.w3.org/2000/svg">
<g clip-path="url(#clip0_60_436)">
<g opacity="0.2" filter="url(#filter0_f_60_436)">
<circle cx="150" cy="150" r="93.75" fill="#004A8E"/>
</g>
<path d="M55.5545 222.45H55.4749C54.4804 222.371 53.4858 222.253 52.4913 222.106C52.3607 222.088 52.2351 222.044 52.1217 221.977C52.0083 221.911 51.9093 221.823 51.8303 221.719C51.7513 221.614 51.694 221.496 51.6615 221.37C51.629 221.243 51.622 221.112 51.641 220.983C51.6599 220.855 51.7044 220.731 51.7719 220.619C51.8393 220.507 51.9285 220.409 52.0342 220.332C52.14 220.254 52.2602 220.197 52.3882 220.165C52.5161 220.133 52.6491 220.126 52.7797 220.145C53.7411 220.282 54.7058 220.39 55.6738 220.469C55.9376 220.479 56.1863 220.592 56.3654 220.784C56.5444 220.975 56.6391 221.228 56.6285 221.488C56.618 221.749 56.5031 221.994 56.3091 222.17C56.1152 222.347 55.858 222.44 55.5942 222.43L55.5545 222.45ZM65.4998 222.077C65.3692 222.087 65.2379 222.071 65.1135 222.03C64.9891 221.99 64.8739 221.926 64.7747 221.842C64.6754 221.757 64.5939 221.655 64.5349 221.539C64.4759 221.424 64.4404 221.299 64.4306 221.17C64.4208 221.041 64.4369 220.912 64.4778 220.789C64.5187 220.666 64.5838 220.553 64.6692 220.455C64.7546 220.357 64.8587 220.277 64.9757 220.218C65.0926 220.16 65.22 220.125 65.3506 220.116C66.2954 219.968 67.2601 219.782 68.2049 219.557C68.3322 219.527 68.4641 219.523 68.5931 219.545C68.722 219.566 68.8454 219.612 68.9562 219.68C69.0671 219.749 69.1632 219.838 69.239 219.943C69.3149 220.048 69.369 220.166 69.3983 220.292C69.4581 220.544 69.4143 220.81 69.2764 221.03C69.1385 221.251 68.9178 221.408 68.6624 221.469C67.6678 221.704 66.6733 221.9 65.6788 222.057L65.4998 222.077ZM43.0234 219.684C42.9081 219.684 42.7936 219.664 42.6852 219.625C41.6907 219.282 40.7956 218.909 39.8608 218.517C39.7406 218.466 39.6318 218.392 39.5405 218.3C39.4493 218.208 39.3773 218.099 39.3288 217.979C39.2804 217.859 39.2563 217.731 39.258 217.602C39.2596 217.473 39.2871 217.346 39.3386 217.227C39.3902 217.109 39.465 217.002 39.5586 216.912C39.6523 216.822 39.763 216.751 39.8844 216.703C40.0059 216.655 40.1357 216.631 40.2664 216.633C40.3972 216.635 40.5263 216.662 40.6465 216.713C41.5415 217.095 42.4664 217.448 43.3715 217.781C43.5921 217.86 43.7772 218.014 43.8943 218.214C44.0113 218.415 44.0527 218.65 44.011 218.877C43.9693 219.105 43.8473 219.311 43.6666 219.459C43.4859 219.606 43.258 219.686 43.0234 219.684ZM77.7623 218.174C77.5759 218.174 77.3932 218.123 77.2349 218.026C77.0767 217.929 76.9492 217.79 76.8672 217.625C76.75 217.392 76.7313 217.123 76.8152 216.876C76.8991 216.63 77.0788 216.426 77.3148 216.31C78.18 215.899 79.0453 215.438 79.8906 214.957C80.0041 214.892 80.1295 214.85 80.2596 214.833C80.3896 214.817 80.5218 214.825 80.6485 214.859C80.7751 214.893 80.8937 214.951 80.9975 215.03C81.1013 215.109 81.1881 215.208 81.2531 215.32C81.3828 215.545 81.4169 215.812 81.3479 216.062C81.279 216.311 81.1126 216.524 80.8851 216.654C80 217.154 79.095 217.634 78.1999 218.076C78.0515 218.147 77.8874 218.181 77.7225 218.174H77.7623ZM31.4769 213.996C31.2873 213.999 31.101 213.947 30.9398 213.849C30.0945 213.319 29.2491 212.76 28.4237 212.192C28.2077 212.043 28.0602 211.816 28.0136 211.561C27.967 211.305 28.025 211.042 28.175 210.828C28.3256 210.615 28.5557 210.47 28.8148 210.424C29.074 210.378 29.341 210.435 29.5574 210.583C30.363 211.142 31.1785 211.672 32.004 212.192C32.1835 212.306 32.3208 212.474 32.3958 212.671C32.4707 212.869 32.4793 213.084 32.4202 213.287C32.361 213.489 32.2374 213.668 32.0675 213.795C31.8976 213.923 31.6905 213.993 31.4769 213.996ZM88.4635 211.182C88.319 211.18 88.1766 211.148 88.0461 211.087C87.9156 211.026 87.8 210.938 87.7076 210.828C87.6227 210.731 87.5582 210.617 87.5178 210.495C87.4773 210.372 87.4617 210.243 87.4719 210.115C87.482 209.986 87.5177 209.861 87.577 209.746C87.6362 209.632 87.7178 209.529 87.817 209.446L88.0358 209.22C88.6922 208.661 89.3585 208.083 90.0249 207.475C90.2187 207.298 90.4759 207.204 90.7398 207.214C91.0037 207.224 91.2528 207.337 91.4321 207.528C91.6115 207.72 91.7065 207.973 91.6962 208.233C91.686 208.494 91.5713 208.739 91.3774 208.916C90.6813 209.544 90.005 210.142 89.3287 210.711L89.1 210.897C88.9297 211.065 88.7035 211.166 88.4635 211.182ZM21.1934 206.278C20.947 206.277 20.7095 206.187 20.5271 206.023C19.7812 205.346 19.0453 204.66 18.3391 203.974C18.1505 203.791 18.043 203.543 18.0402 203.283C18.0374 203.022 18.1396 202.772 18.3242 202.586C18.5089 202.4 18.7608 202.294 19.0248 202.291C19.2887 202.288 19.5429 202.389 19.7315 202.571C20.4277 203.248 21.1437 203.915 21.8697 204.533C21.9669 204.62 22.0457 204.725 22.1014 204.842C22.157 204.96 22.1886 205.087 22.1941 205.217C22.1997 205.346 22.1791 205.475 22.1337 205.597C22.0882 205.719 22.0188 205.83 21.9294 205.925C21.8391 206.032 21.7268 206.119 21.5999 206.18C21.4731 206.241 21.3345 206.274 21.1934 206.278ZM97.6828 202.248C97.4363 202.247 97.1988 202.156 97.0164 201.993C96.8216 201.818 96.705 201.575 96.6919 201.315C96.6789 201.056 96.7705 200.802 96.9468 200.61C97.6032 199.894 98.2695 199.168 98.9359 198.423C99.0201 198.32 99.1246 198.235 99.2431 198.172C99.3616 198.11 99.4917 198.072 99.6254 198.061C99.7592 198.05 99.8939 198.065 100.021 198.107C100.149 198.148 100.267 198.214 100.367 198.302C100.468 198.389 100.55 198.496 100.608 198.615C100.666 198.735 100.698 198.865 100.704 198.997C100.71 199.129 100.688 199.261 100.641 199.385C100.593 199.509 100.521 199.622 100.428 199.717C99.7514 200.472 99.0851 201.208 98.4386 201.924C98.339 202.019 98.2203 202.093 98.0901 202.14C97.96 202.187 97.8212 202.207 97.6828 202.198V202.248ZM12.4515 196.893C12.3005 196.894 12.1512 196.861 12.0151 196.796C11.8789 196.732 11.7595 196.637 11.6658 196.52C11.0293 195.726 10.4227 194.932 9.8359 194.137C9.75909 194.032 9.70405 193.914 9.67397 193.788C9.64388 193.662 9.63933 193.531 9.66059 193.404C9.68185 193.276 9.7285 193.154 9.79784 193.044C9.86719 192.935 9.95786 192.839 10.0646 192.764C10.2786 192.614 10.544 192.554 10.803 192.596C11.0619 192.639 11.2934 192.78 11.447 192.99C12.0239 193.765 12.6106 194.539 13.2273 195.304C13.3428 195.449 13.415 195.622 13.4355 195.805C13.4559 195.987 13.4239 196.172 13.343 196.338C13.2621 196.503 13.1357 196.643 12.978 196.741C12.8204 196.84 12.638 196.892 12.4515 196.893ZM106.116 192.549C105.884 192.549 105.659 192.469 105.48 192.323C105.278 192.158 105.15 191.922 105.124 191.665C105.098 191.408 105.176 191.151 105.341 190.95C105.967 190.195 106.594 189.44 107.22 188.665C107.302 188.564 107.404 188.481 107.519 188.419C107.634 188.357 107.76 188.318 107.89 188.304C108.021 188.29 108.153 188.302 108.278 188.339C108.404 188.376 108.521 188.437 108.623 188.518C108.826 188.681 108.956 188.917 108.984 189.174C109.012 189.431 108.936 189.689 108.772 189.891L106.882 192.186C106.79 192.298 106.673 192.389 106.541 192.452C106.408 192.515 106.263 192.548 106.116 192.549ZM5.37046 186.253C5.18535 186.248 5.00534 186.192 4.85071 186.091C4.69608 185.991 4.57299 185.85 4.49528 185.684C4.0179 184.772 3.57036 183.86 3.17255 182.977C3.11957 182.859 3.09067 182.732 3.08749 182.604C3.08431 182.475 3.10693 182.346 3.15403 182.226C3.20114 182.106 3.27182 181.996 3.36203 181.903C3.45223 181.81 3.56021 181.735 3.67976 181.683C3.79925 181.63 3.92801 181.602 4.05868 181.599C4.18935 181.596 4.31937 181.618 4.44129 181.664C4.56322 181.711 4.67466 181.781 4.76925 181.869C4.86384 181.958 4.93971 182.065 4.99254 182.183C5.38041 183.026 5.80806 183.909 6.26554 184.782C6.3255 184.897 6.36175 185.022 6.3722 185.152C6.38264 185.281 6.36707 185.41 6.32639 185.533C6.28571 185.657 6.22073 185.77 6.13518 185.869C6.04963 185.967 5.94521 186.047 5.82795 186.106C5.68639 186.177 5.52951 186.214 5.37046 186.213V186.253ZM114.172 182.555C113.987 182.555 113.805 182.503 113.647 182.406C113.49 182.309 113.363 182.171 113.282 182.007C113.2 181.843 113.166 181.659 113.185 181.477C113.203 181.295 113.273 181.122 113.386 180.977L115.216 178.652C115.293 178.542 115.391 178.447 115.505 178.375C115.62 178.304 115.748 178.256 115.882 178.234C116.016 178.213 116.153 178.219 116.285 178.252C116.417 178.285 116.54 178.345 116.647 178.427C116.755 178.508 116.844 178.611 116.91 178.728C116.975 178.845 117.016 178.974 117.029 179.108C117.042 179.241 117.028 179.375 116.986 179.503C116.945 179.63 116.877 179.748 116.788 179.849L114.958 182.173C114.861 182.284 114.74 182.373 114.604 182.433C114.468 182.492 114.321 182.521 114.172 182.516V182.555ZM1.26305 174.22C1.02173 174.222 0.787772 174.138 0.604794 173.983C0.421815 173.827 0.302299 173.612 0.268524 173.376C0.129289 172.396 0.0397812 171.346 0 170.346C0 170.086 0.10478 169.836 0.29129 169.653C0.477801 169.469 0.730764 169.365 0.99453 169.365C1.2583 169.365 1.51126 169.469 1.69777 169.653C1.88428 169.836 1.98906 170.086 1.98906 170.346C2.0221 171.291 2.10509 172.234 2.23769 173.17C2.25588 173.299 2.24814 173.429 2.21493 173.554C2.18171 173.68 2.12367 173.797 2.04415 173.9C1.96464 174.003 1.86523 174.09 1.75165 174.155C1.63807 174.22 1.51257 174.262 1.3824 174.279L1.26305 174.22ZM122.079 172.445C121.892 172.446 121.709 172.396 121.55 172.3C121.392 172.203 121.263 172.065 121.18 171.9C121.097 171.736 121.063 171.551 121.081 171.369C121.099 171.186 121.169 171.011 121.283 170.866L123.103 168.532C123.267 168.338 123.501 168.214 123.755 168.185C124.01 168.157 124.265 168.226 124.469 168.379C124.673 168.532 124.809 168.757 124.849 169.006C124.889 169.256 124.83 169.511 124.684 169.718L122.844 172.023C122.754 172.139 122.638 172.234 122.505 172.3C122.373 172.366 122.227 172.402 122.079 172.405V172.445ZM285.947 167.051C285.855 167.06 285.761 167.06 285.669 167.051C285.543 167.015 285.427 166.955 285.325 166.874C285.223 166.794 285.138 166.694 285.075 166.581C285.013 166.468 284.973 166.344 284.959 166.216C284.944 166.088 284.956 165.959 284.993 165.835C285.241 164.972 285.51 164.03 285.778 163.02C285.811 162.895 285.868 162.778 285.946 162.675C286.025 162.571 286.124 162.484 286.236 162.419C286.349 162.353 286.474 162.31 286.603 162.292C286.733 162.274 286.865 162.282 286.992 162.314C287.119 162.347 287.238 162.405 287.342 162.483C287.446 162.562 287.534 162.66 287.6 162.772C287.665 162.884 287.708 163.008 287.724 163.137C287.741 163.265 287.732 163.396 287.698 163.52C287.429 164.501 287.161 165.482 286.902 166.374C286.837 166.572 286.709 166.745 286.537 166.867C286.365 166.988 286.159 167.053 285.947 167.051ZM129.935 162.324C129.716 162.323 129.502 162.251 129.329 162.118C129.121 161.959 128.985 161.725 128.952 161.468C128.918 161.211 128.989 160.951 129.15 160.745L130.97 158.411C131.132 158.204 131.371 158.07 131.634 158.036C131.897 158.003 132.162 158.075 132.372 158.235C132.582 158.395 132.718 158.63 132.752 158.889C132.785 159.149 132.713 159.411 132.551 159.617L130.721 161.942C130.626 162.049 130.508 162.134 130.375 162.192C130.243 162.249 130.1 162.278 129.955 162.275L129.935 162.324ZM2.29737 161.628C2.20174 161.642 2.10458 161.642 2.00895 161.628C1.75713 161.551 1.54654 161.379 1.42346 161.149C1.30038 160.919 1.27488 160.65 1.35256 160.402C1.64098 159.421 1.98906 158.49 2.34709 157.548C2.39029 157.421 2.45937 157.304 2.55008 157.205C2.64079 157.105 2.7512 157.025 2.87453 156.969C2.99786 156.913 3.13148 156.883 3.26718 156.88C3.40288 156.877 3.53777 156.901 3.66356 156.951C3.78935 157.002 3.90337 157.077 3.9986 157.172C4.09383 157.268 4.16825 157.381 4.21728 157.506C4.26632 157.631 4.28892 157.764 4.28371 157.898C4.2785 158.032 4.24557 158.163 4.18697 158.284C3.82894 159.176 3.50075 160.078 3.19244 160.971C3.12055 161.144 2.99997 161.293 2.8449 161.401C2.68983 161.508 2.50675 161.57 2.31726 161.579L2.29737 161.628ZM288.931 154.586C288.868 154.597 288.805 154.597 288.742 154.586C288.484 154.539 288.255 154.392 288.106 154.179C287.957 153.966 287.9 153.704 287.946 153.449C288.125 152.468 288.294 151.546 288.463 150.566C288.485 150.437 288.532 150.314 288.602 150.203C288.672 150.092 288.763 149.996 288.871 149.92C288.978 149.844 289.1 149.789 289.229 149.76C289.358 149.73 289.492 149.726 289.622 149.747C289.753 149.768 289.878 149.814 289.99 149.883C290.103 149.952 290.2 150.042 290.277 150.148C290.354 150.255 290.41 150.375 290.44 150.502C290.47 150.629 290.474 150.761 290.453 150.889C290.283 151.87 290.114 152.851 289.935 153.831C289.883 154.052 289.754 154.249 289.57 154.386C289.387 154.524 289.161 154.595 288.931 154.586ZM137.892 152.203C137.704 152.204 137.521 152.153 137.361 152.056C137.202 151.958 137.074 151.819 136.992 151.653C136.91 151.487 136.877 151.301 136.897 151.118C136.918 150.934 136.99 150.76 137.106 150.615L138.966 148.3C139.046 148.195 139.146 148.107 139.262 148.041C139.377 147.975 139.504 147.933 139.636 147.916C139.769 147.9 139.903 147.91 140.031 147.946C140.159 147.981 140.279 148.042 140.383 148.124C140.487 148.206 140.573 148.308 140.636 148.424C140.699 148.539 140.738 148.666 140.751 148.797C140.764 148.928 140.749 149.06 140.709 149.185C140.669 149.31 140.604 149.426 140.517 149.526L138.667 151.831C138.577 151.944 138.462 152.036 138.332 152.1C138.201 152.165 138.058 152.2 137.911 152.203H137.892ZM8.21482 150.301C8.00304 150.299 7.79747 150.23 7.62805 150.105C7.41835 149.95 7.27882 149.721 7.23972 149.465C7.20063 149.21 7.26511 148.95 7.41919 148.742C8.01591 147.947 8.65241 147.153 9.3088 146.378C9.47893 146.179 9.72225 146.055 9.98523 146.033C10.2482 146.011 10.5093 146.093 10.7111 146.261C10.9129 146.428 11.0388 146.668 11.0612 146.928C11.0836 147.187 11.0006 147.444 10.8304 147.643C10.1939 148.379 9.58727 149.144 9.02039 149.899C8.9278 150.024 8.80655 150.125 8.66655 150.195C8.52654 150.265 8.37174 150.301 8.21482 150.301ZM146.007 142.25C145.778 142.248 145.557 142.168 145.38 142.024C145.178 141.859 145.051 141.623 145.025 141.366C144.998 141.109 145.076 140.852 145.241 140.651L147.141 138.376C147.222 138.275 147.322 138.19 147.436 138.128C147.55 138.065 147.676 138.025 147.805 138.01C147.935 137.995 148.067 138.005 148.192 138.04C148.318 138.075 148.436 138.134 148.538 138.214C148.641 138.294 148.726 138.393 148.79 138.505C148.854 138.618 148.894 138.741 148.91 138.869C148.925 138.997 148.914 139.127 148.879 139.251C148.843 139.375 148.783 139.491 148.702 139.592L146.813 141.857C146.719 141.98 146.597 142.08 146.457 142.148C146.317 142.216 146.163 142.251 146.007 142.25ZM290.681 141.955H290.602C290.339 141.935 290.096 141.814 289.925 141.617C289.753 141.42 289.668 141.165 289.687 140.906C289.766 139.925 289.826 138.945 289.886 137.964C289.885 137.831 289.913 137.699 289.966 137.577C290.019 137.455 290.097 137.344 290.194 137.253C290.292 137.161 290.408 137.09 290.534 137.043C290.66 136.997 290.795 136.977 290.93 136.983C291.192 136.998 291.437 137.115 291.613 137.308C291.788 137.501 291.878 137.754 291.865 138.013C291.815 138.994 291.745 139.974 291.666 140.955C291.668 141.085 291.645 141.213 291.597 141.334C291.549 141.455 291.477 141.565 291.385 141.658C291.294 141.751 291.184 141.825 291.063 141.876C290.943 141.927 290.813 141.954 290.681 141.955ZM17.1855 141.122C16.9792 141.123 16.7777 141.06 16.6089 140.943C16.4402 140.826 16.3126 140.66 16.2437 140.468C16.1749 140.276 16.1683 140.068 16.2247 139.873C16.2812 139.677 16.398 139.503 16.5589 139.376C18.0408 138.199 18.9955 137.572 19.0353 137.542C19.2556 137.404 19.5219 137.357 19.7771 137.411C20.0322 137.465 20.2556 137.616 20.3991 137.831C20.5426 138.045 20.5947 138.307 20.5443 138.56C20.4938 138.812 20.3448 139.035 20.1293 139.18C20.1293 139.18 19.2044 139.788 17.812 140.896C17.6305 141.045 17.4014 141.124 17.1656 141.122H17.1855ZM154.361 132.482C154.172 132.48 153.987 132.425 153.828 132.323C153.67 132.221 153.544 132.077 153.465 131.907C153.387 131.737 153.36 131.549 153.386 131.364C153.413 131.179 153.492 131.006 153.615 130.864C154.262 130.119 154.918 129.373 155.604 128.638C155.688 128.535 155.793 128.449 155.911 128.387C156.03 128.325 156.16 128.287 156.294 128.276C156.428 128.264 156.562 128.28 156.69 128.321C156.817 128.363 156.935 128.429 157.036 128.517C157.137 128.604 157.218 128.711 157.276 128.83C157.334 128.95 157.367 129.079 157.372 129.212C157.378 129.344 157.356 129.476 157.309 129.6C157.261 129.724 157.189 129.837 157.096 129.932C156.44 130.668 155.783 131.403 155.107 132.149C155.012 132.256 154.894 132.341 154.761 132.399C154.629 132.456 154.486 132.485 154.341 132.482H154.361ZM290.92 129.206C290.666 129.207 290.422 129.112 290.237 128.94C290.052 128.769 289.941 128.534 289.925 128.285C289.866 127.304 289.796 126.323 289.707 125.343C289.683 125.083 289.765 124.824 289.935 124.623C290.104 124.423 290.348 124.297 290.612 124.274C290.875 124.25 291.138 124.331 291.341 124.498C291.544 124.666 291.672 124.906 291.696 125.166C291.785 126.147 291.865 127.127 291.914 128.108C291.915 128.358 291.818 128.599 291.645 128.782C291.471 128.964 291.233 129.074 290.98 129.089L290.92 129.206ZM163.023 122.979C162.772 122.978 162.531 122.884 162.347 122.714C162.155 122.537 162.042 122.292 162.033 122.033C162.023 121.774 162.119 121.522 162.297 121.332C162.974 120.606 163.66 119.89 164.346 119.184C164.531 119.016 164.774 118.924 165.026 118.926C165.277 118.928 165.518 119.024 165.701 119.194C165.884 119.364 165.994 119.596 166.011 119.844C166.027 120.091 165.947 120.336 165.788 120.527L163.799 122.665C163.696 122.776 163.57 122.861 163.428 122.915C163.287 122.97 163.135 122.992 162.984 122.979H163.023ZM289.12 116.595C288.893 116.601 288.67 116.531 288.489 116.395C288.308 116.26 288.18 116.067 288.125 115.85C287.897 114.869 287.648 113.957 287.369 113.055C287.333 112.931 287.321 112.802 287.336 112.674C287.35 112.545 287.389 112.421 287.452 112.309C287.515 112.196 287.6 112.096 287.702 112.015C287.803 111.935 287.92 111.875 288.046 111.839C288.298 111.765 288.569 111.793 288.8 111.917C289.031 112.04 289.203 112.248 289.279 112.496C289.557 113.476 289.826 114.408 290.065 115.389C290.096 115.514 290.101 115.645 290.081 115.772C290.061 115.9 290.015 116.023 289.947 116.133C289.879 116.243 289.789 116.339 289.683 116.415C289.577 116.491 289.456 116.545 289.329 116.575L289.12 116.595ZM172.044 113.839C171.847 113.838 171.655 113.78 171.492 113.672C171.329 113.563 171.202 113.41 171.128 113.23C171.053 113.051 171.034 112.853 171.073 112.663C171.113 112.473 171.208 112.299 171.348 112.162L173.506 110.103C173.598 110.011 173.708 109.938 173.829 109.888C173.951 109.838 174.081 109.813 174.212 109.813C174.343 109.813 174.473 109.838 174.594 109.888C174.716 109.938 174.826 110.011 174.918 110.103C175.103 110.287 175.207 110.535 175.207 110.794C175.207 111.053 175.103 111.302 174.918 111.486C174.202 112.152 173.496 112.839 172.78 113.525C172.681 113.63 172.561 113.713 172.427 113.767C172.293 113.821 172.149 113.846 172.004 113.839H172.044ZM181.561 105.19C181.36 105.189 181.163 105.128 180.997 105.015C180.831 104.902 180.704 104.741 180.632 104.555C180.561 104.369 180.549 104.166 180.598 103.972C180.646 103.779 180.754 103.605 180.905 103.473L183.192 101.512C183.396 101.344 183.658 101.263 183.922 101.286C184.186 101.309 184.43 101.434 184.6 101.635C184.77 101.835 184.852 102.094 184.829 102.354C184.806 102.614 184.679 102.855 184.475 103.022C183.72 103.64 182.964 104.278 182.208 104.915C182.024 105.09 181.778 105.189 181.522 105.19H181.561ZM284.654 104.67C284.474 104.668 284.296 104.618 284.142 104.525C283.988 104.432 283.862 104.299 283.779 104.14C283.322 103.287 282.844 102.444 282.337 101.63C282.202 101.407 282.161 101.141 282.225 100.889C282.288 100.637 282.45 100.421 282.675 100.286C282.901 100.153 283.171 100.113 283.426 100.175C283.682 100.238 283.902 100.398 284.038 100.62C284.565 101.463 285.032 102.346 285.54 103.228C285.621 103.378 285.661 103.546 285.656 103.716C285.651 103.886 285.602 104.052 285.512 104.197C285.423 104.342 285.297 104.462 285.147 104.545C284.996 104.628 284.827 104.671 284.654 104.67ZM191.666 97.2363C191.509 97.2367 191.354 97.2005 191.214 97.1306C191.074 97.0607 190.953 96.9592 190.86 96.8342C190.782 96.7306 190.726 96.6129 190.694 96.4877C190.663 96.3626 190.657 96.2326 190.676 96.105C190.695 95.9775 190.74 95.855 190.808 95.7446C190.875 95.6341 190.964 95.5378 191.069 95.4613C191.885 94.8729 192.7 94.3041 193.516 93.7353C193.623 93.6612 193.744 93.6087 193.871 93.5807C193.999 93.5527 194.131 93.5498 194.26 93.5721C194.389 93.5944 194.512 93.6415 194.622 93.7107C194.732 93.78 194.828 93.87 194.903 93.9756C194.978 94.0812 195.031 94.2003 195.06 94.3262C195.088 94.4521 195.091 94.5823 195.069 94.7093C195.046 94.8364 194.998 94.9578 194.928 95.0666C194.858 95.1754 194.766 95.2696 194.659 95.3436L192.253 97.0402C192.072 97.1737 191.851 97.2429 191.626 97.2363H191.666ZM277.096 94.3923C276.964 94.3918 276.834 94.3655 276.713 94.315C276.592 94.2645 276.482 94.1908 276.39 94.0981C275.727 93.4444 275.021 92.7906 274.272 92.1368C274.074 91.965 273.954 91.7229 273.937 91.4637C273.92 91.2044 274.008 90.9492 274.182 90.754C274.356 90.5592 274.602 90.4404 274.865 90.4239C275.128 90.4074 275.386 90.4943 275.584 90.6658C276.34 91.3228 277.086 92.0191 277.802 92.735C277.987 92.9187 278.091 93.1673 278.091 93.4264C278.091 93.6855 277.987 93.934 277.802 94.1178C277.704 94.2117 277.587 94.2846 277.458 94.3319C277.33 94.3791 277.193 94.3997 277.056 94.3923H277.096ZM202.506 90.2343C202.331 90.2349 202.159 90.19 202.007 90.1039C201.855 90.0177 201.729 89.8936 201.641 89.7439C201.51 89.5199 201.475 89.2542 201.542 89.0045C201.609 88.7548 201.773 88.5412 201.999 88.4102C202.874 87.91 203.749 87.4295 204.625 86.9588C204.739 86.8944 204.865 86.8528 204.995 86.8365C205.126 86.8201 205.259 86.8292 205.386 86.8634C205.513 86.8975 205.631 86.956 205.736 87.0355C205.84 87.115 205.927 87.2139 205.992 87.3265C206.057 87.4392 206.1 87.5635 206.116 87.6923C206.133 87.821 206.123 87.9517 206.089 88.0769C206.054 88.2021 205.995 88.3194 205.914 88.422C205.834 88.5246 205.733 88.6106 205.619 88.675C204.754 89.1359 203.899 89.6557 203.043 90.1068C202.852 90.2183 202.627 90.2632 202.407 90.2343H202.506ZM266.832 86.7823C266.665 86.7828 266.5 86.7388 266.355 86.6548C265.52 86.2037 264.644 85.7624 263.749 85.3505C263.631 85.2951 263.525 85.2173 263.438 85.1215C263.35 85.0258 263.282 84.9139 263.238 84.7923C263.194 84.6708 263.175 84.5419 263.182 84.413C263.189 84.2841 263.221 84.1578 263.277 84.0413C263.333 83.9247 263.412 83.8202 263.509 83.7337C263.606 83.6472 263.72 83.5805 263.843 83.5372C263.966 83.494 264.097 83.4751 264.228 83.4816C264.358 83.4882 264.487 83.5201 264.605 83.5754C265.53 84.0069 266.435 84.4679 267.31 84.9386C267.505 85.0425 267.659 85.2077 267.748 85.408C267.837 85.6084 267.856 85.8323 267.801 86.0442C267.746 86.2561 267.621 86.4439 267.446 86.5776C267.27 86.7113 267.054 86.7834 266.832 86.7823ZM214.073 84.6052C213.841 84.6057 213.616 84.5265 213.438 84.3812C213.259 84.2358 213.137 84.0335 213.093 83.8091C213.05 83.5847 213.087 83.3524 213.199 83.1522C213.31 82.9519 213.489 82.7964 213.705 82.7124C214.639 82.3398 215.574 81.9867 216.519 81.6533C216.765 81.5733 217.033 81.591 217.266 81.7026C217.499 81.8142 217.678 82.011 217.766 82.251C217.854 82.4911 217.844 82.7556 217.737 82.9882C217.631 83.2209 217.436 83.4034 217.195 83.497C216.28 83.8206 215.366 84.1639 214.451 84.5365C214.306 84.5945 214.149 84.6181 213.993 84.6052H214.073ZM254.898 81.9573C254.802 81.9668 254.706 81.9668 254.61 81.9573C253.675 81.6827 252.72 81.4278 251.775 81.212C251.512 81.1509 251.283 80.9889 251.14 80.7618C250.998 80.5347 250.952 80.261 251.014 80.0009C251.076 79.7408 251.241 79.5156 251.471 79.3749C251.701 79.2342 251.979 79.1895 252.243 79.2506C253.237 79.486 254.232 79.741 255.226 80.0254C255.49 80.0618 255.728 80.2 255.889 80.4097C256.049 80.6194 256.118 80.8833 256.082 81.1434C256.045 81.4035 255.904 81.6384 255.692 81.7966C255.479 81.9548 255.212 82.0232 254.948 81.9867L254.898 81.9573ZM226.276 80.8688C226.044 80.8738 225.818 80.7993 225.637 80.6579C225.455 80.5164 225.33 80.3171 225.281 80.094C225.253 79.9671 225.252 79.8361 225.276 79.7085C225.3 79.5809 225.349 79.4593 225.422 79.3507C225.494 79.2422 225.587 79.1488 225.696 79.0761C225.805 79.0034 225.928 78.9527 226.057 78.927C227.051 78.7309 228.046 78.5446 229.04 78.3975C229.304 78.3571 229.573 78.4218 229.789 78.5772C230.004 78.7326 230.148 78.966 230.189 79.2261C230.23 79.4862 230.164 79.7517 230.007 79.9641C229.849 80.1765 229.612 80.3185 229.349 80.3588C228.354 80.5059 227.429 80.6824 226.464 80.8786C226.401 80.8841 226.338 80.8808 226.276 80.8688ZM242.118 79.7704H242.049C241.054 79.7116 240.06 79.6723 239.125 79.6625C238.861 79.6625 238.608 79.5592 238.422 79.3753C238.235 79.1914 238.13 78.9419 238.13 78.6819C238.13 78.4218 238.235 78.1723 238.422 77.9884C238.608 77.8045 238.861 77.7012 239.125 77.7012C240.119 77.7012 241.114 77.7502 242.158 77.809C242.422 77.8169 242.672 77.9277 242.853 78.1171C243.034 78.3065 243.131 78.5591 243.123 78.8191C243.115 79.0792 243.003 79.3256 242.81 79.504C242.618 79.6824 242.362 79.7782 242.098 79.7704H242.118Z" fill="#145DA0"/>
<path d="M221.939 234.257H107.678L130.244 53.0076H232.143L242.785 66.8646L221.939 234.257Z" fill="#88879C"/>
<path d="M209.577 234.257H95.3058L117.872 53.0076H232.143L209.577 234.257Z" fill="#EEEEEE"/>
<path d="M203.948 199.864H108.473L124.754 69.1692H220.229L203.948 199.864Z" fill="white"/>
<path d="M171.745 142.809L199.334 143.132L198.797 147.339L171.745 146.878V142.809Z" fill="#E6E6E6"/>
<path d="M95.3058 234.257L109.05 246.77L220.229 248.437L221.939 234.257H95.3058Z" fill="#88879C"/>
<path d="M183.511 104.533C183.511 104.533 188.274 104.866 190.711 113.702C193.148 122.538 192.312 147.202 192.312 147.202L171.765 146.878C171.765 146.878 161.512 110.171 183.511 104.533Z" fill="#004A8E"/>
<path d="M84.7732 51.5624L10.0367 111.432L49.2613 159.042L123.998 99.1731L84.7732 51.5624Z" fill="#004A8E"/>
<path d="M84.3682 64.7354L50.9059 91.5412L57.3837 99.404L90.8461 72.5982L84.3682 64.7354Z" fill="white"/>
<path opacity="0.46" d="M57.7253 125.16L45.7607 134.745C44.1322 136.049 43.8845 138.409 45.2075 140.015L46.8944 142.062C48.2174 143.668 50.61 143.912 52.2386 142.608L64.2032 133.023C65.8317 131.718 66.0794 129.359 64.7564 127.753L63.0695 125.706C61.7465 124.1 59.3539 123.856 57.7253 125.16Z" fill="white"/>
<path opacity="0.46" d="M101.445 90.1439L68.0909 116.863C66.4624 118.168 66.2147 120.527 67.5377 122.133L69.2246 124.18C70.5476 125.786 72.9402 126.031 74.5688 124.726L107.923 98.0067C109.552 96.7021 109.799 94.3428 108.476 92.7369L106.789 90.6894C105.466 89.0836 103.074 88.8393 101.445 90.1439Z" fill="white"/>
<path opacity="0.3" d="M33.2173 119.586C36.9742 119.586 40.0198 116.583 40.0198 112.878C40.0198 109.173 36.9742 106.17 33.2173 106.17C29.4603 106.17 26.4147 109.173 26.4147 112.878C26.4147 116.583 29.4603 119.586 33.2173 119.586Z" fill="white"/>
<path opacity="0.3" d="M40.1194 113.476C43.8763 113.476 46.9219 110.473 46.9219 106.769C46.9219 103.064 43.8763 100.061 40.1194 100.061C36.3624 100.061 33.3168 103.064 33.3168 106.769C33.3168 110.473 36.3624 113.476 40.1194 113.476Z" fill="white"/>
<path d="M183.511 104.533C183.511 104.533 172.7 108.367 176.469 138.405C179.234 160.412 169.896 189.548 156.092 189.901C142.287 190.254 116.828 189.057 116.828 189.057C116.828 189.057 130.085 155.224 127.34 126.814C126.918 122.836 127.4 118.816 128.752 115.045C130.363 110.721 133.357 106.219 138.926 105.484C150.045 103.993 183.511 104.533 183.511 104.533Z" fill="#145DA0"/>
<path d="M109.179 191.254L157.961 190.273C157.961 190.273 150.522 182.997 150.055 164.472L82.9537 165.452C84.1039 170.232 85.872 174.846 88.2148 179.182C90.2414 182.904 93.2719 186.001 96.9716 188.132C100.671 190.262 104.896 191.343 109.179 191.254Z" fill="#145DA0"/>
<path opacity="0.44" d="M109.179 191.254L157.961 190.273C157.961 190.273 150.522 182.997 150.055 164.472L82.9537 165.452C84.1039 170.232 85.872 174.846 88.2148 179.182C90.2414 182.904 93.272 186.001 96.9716 188.132C100.671 190.262 104.896 191.343 109.179 191.254Z" fill="white"/>
<path d="M144.833 78.6033L143.133 89.6164H192.432L193.923 78.6033H144.833Z" fill="#004A8E"/>
<path opacity="0.48" d="M158.409 208.681C153.088 204.091 144.674 204.993 140.915 210.907C139.966 212.344 139.452 214.017 139.433 215.732C139.433 222.989 144.515 227.745 154.669 225.745C162.417 224.215 165.37 214.673 158.409 208.681Z" fill="white"/>
<path d="M271.328 234.581C286.476 234.581 298.757 222.471 298.757 207.533C298.757 192.596 286.476 180.486 271.328 180.486C256.179 180.486 243.899 192.596 243.899 207.533C243.899 222.471 256.179 234.581 271.328 234.581Z" fill="#004A8E"/>
<path opacity="0.09" d="M271.328 234.581C286.476 234.581 298.757 222.471 298.757 207.533C298.757 192.596 286.476 180.486 271.328 180.486C256.179 180.486 243.899 192.596 243.899 207.533C243.899 222.471 256.179 234.581 271.328 234.581Z" fill="#004A8E"/>
<path d="M272.571 227.255C287.72 227.255 300 215.145 300 200.208C300 185.27 287.72 173.161 272.571 173.161C257.422 173.161 245.142 185.27 245.142 200.208C245.142 215.145 257.422 227.255 272.571 227.255Z" fill="#004A8E"/>
<path d="M276.499 183.938C277.414 184.085 277.643 184.448 277.494 185.35L277.165 187.312C280.746 188.42 282.546 190.577 283.56 193.98C283.879 194.961 283.56 195.481 282.436 195.775L280.338 196.314C279.343 196.599 278.946 196.314 278.588 195.334C278.345 194.29 277.768 193.351 276.942 192.655C276.117 191.959 275.086 191.544 274.003 191.47C270.621 190.911 268.901 191.636 268.513 193.872C268.274 195.324 269.508 196.452 270.82 196.962C271.732 197.319 272.665 197.621 273.615 197.864C275.406 198.252 277.131 198.892 278.737 199.766C279.544 200.168 280.269 200.714 280.875 201.375C281.46 202.228 281.866 203.188 282.068 204.199C282.269 205.21 282.263 206.25 282.049 207.259C281.323 211.534 277.921 213.966 272.66 213.859L272.312 215.908C272.153 216.81 271.825 217.075 270.91 216.889L268.712 216.526C267.797 216.369 267.538 216.006 267.717 215.104L268.056 213.143C264.157 211.966 261.83 209.524 261.094 205.768C260.925 204.856 261.342 204.317 262.327 204.12L264.396 203.728C265.45 203.542 265.848 203.856 266.116 204.905C266.623 207.249 268.225 208.651 270.94 209.093C274.6 209.701 276.628 208.867 277.026 206.543C277.145 206.012 277.082 205.456 276.846 204.965C276.61 204.473 276.215 204.072 275.723 203.826C274.526 203.18 273.239 202.707 271.904 202.424C270.092 202.025 268.357 201.343 266.763 200.404C265.97 199.973 265.263 199.405 264.674 198.727C264.078 197.914 263.66 196.987 263.446 196.007C263.232 195.026 263.227 194.012 263.431 193.029C264.147 188.792 267.339 186.409 272.551 186.586L272.879 184.625C273.028 183.722 273.406 183.467 274.321 183.644L276.499 183.938Z" fill="white"/>
<path d="M136.539 116.732C136.408 116.737 136.278 116.716 136.156 116.671C136.033 116.626 135.921 116.557 135.826 116.469C135.73 116.381 135.653 116.276 135.599 116.159C135.544 116.041 135.514 115.915 135.51 115.786C135.505 115.657 135.526 115.529 135.572 115.408C135.618 115.287 135.687 115.177 135.776 115.082C135.865 114.988 135.973 114.912 136.091 114.859C136.21 114.805 136.339 114.775 136.469 114.771C136.678 114.771 157.474 113.261 168.623 114.241C168.886 114.265 169.13 114.39 169.3 114.591C169.469 114.791 169.551 115.05 169.528 115.31C169.504 115.57 169.376 115.81 169.173 115.978C168.97 116.145 168.707 116.226 168.444 116.203C157.504 115.222 136.817 116.703 136.619 116.722L136.539 116.732Z" fill="white"/>
<path d="M134.888 130.001C134.758 130.005 134.627 129.984 134.505 129.939C134.382 129.894 134.27 129.826 134.175 129.738C133.982 129.56 133.868 129.315 133.859 129.055C133.85 128.794 133.945 128.541 134.125 128.351C134.305 128.161 134.555 128.049 134.818 128.039C135.027 128.039 155.823 126.529 166.972 127.51C167.235 127.533 167.479 127.659 167.649 127.86C167.818 128.06 167.9 128.319 167.877 128.579C167.853 128.839 167.725 129.079 167.522 129.246C167.319 129.414 167.056 129.495 166.793 129.471C155.853 128.491 135.177 129.981 134.968 129.991L134.888 130.001Z" fill="white"/>
<path d="M134.699 143.789C134.435 143.8 134.178 143.706 133.984 143.53C133.79 143.353 133.675 143.108 133.665 142.848C133.654 142.588 133.749 142.334 133.928 142.143C134.107 141.951 134.356 141.838 134.62 141.828C134.828 141.828 155.634 140.318 166.773 141.298C166.903 141.31 167.03 141.347 167.147 141.407C167.263 141.467 167.366 141.549 167.45 141.648C167.534 141.747 167.597 141.862 167.636 141.985C167.675 142.109 167.69 142.238 167.678 142.367C167.666 142.496 167.629 142.621 167.568 142.736C167.507 142.85 167.424 142.952 167.323 143.035C167.223 143.118 167.106 143.18 166.981 143.219C166.856 143.257 166.724 143.271 166.594 143.26C155.654 142.279 134.978 143.769 134.769 143.779L134.699 143.789Z" fill="white"/>
<path d="M133.376 157.578C133.246 157.582 133.116 157.561 132.993 157.516C132.871 157.471 132.759 157.402 132.663 157.315C132.567 157.227 132.49 157.121 132.436 157.004C132.382 156.887 132.352 156.76 132.347 156.631C132.342 156.502 132.364 156.374 132.409 156.253C132.455 156.133 132.525 156.022 132.614 155.928C132.703 155.833 132.81 155.757 132.929 155.704C133.048 155.65 133.176 155.621 133.307 155.616C133.516 155.616 154.311 154.106 165.46 155.096C165.591 155.108 165.718 155.145 165.834 155.205C165.95 155.265 166.053 155.347 166.137 155.446C166.221 155.545 166.284 155.66 166.323 155.783C166.363 155.907 166.377 156.037 166.365 156.165C166.353 156.294 166.316 156.419 166.255 156.534C166.194 156.648 166.111 156.75 166.01 156.833C165.91 156.916 165.793 156.978 165.668 157.017C165.543 157.055 165.412 157.069 165.281 157.058C154.341 156.077 133.665 157.568 133.456 157.578H133.376Z" fill="white"/>
</g>
<defs>
<filter id="filter0_f_60_436" x="-23.75" y="-23.75" width="347.5" height="347.5" filterUnits="userSpaceOnUse" color-interpolation-filters="sRGB">
<feFlood flood-opacity="0" result="BackgroundImageFix"/>
<feBlend mode="normal" in="SourceGraphic" in2="BackgroundImageFix" result="shape"/>
<feGaussianBlur stdDeviation="40" result="effect1_foregroundBlur_60_436"/>
</filter>
<clipPath id="clip0_60_436">
<rect width="300" height="300" fill="white"/>
</clipPath>
</defs>
</svg>
