<svg width="123" height="30" viewBox="0 0 123 30" fill="none" xmlns="http://www.w3.org/2000/svg">
<path d="M24 0L117 0C120.314 0 123 2.68629 123 6V30L24 30L24 0Z" fill="#1876D2"/>
<path d="M35.376 20.154C32.492 20.154 30.574 18.082 30.574 14.946C30.574 11.824 32.548 9.71 35.446 9.71C37.728 9.71 39.478 11.068 39.856 13.14H38.386C38.008 11.824 36.874 11.026 35.404 11.026C33.36 11.026 32.016 12.566 32.016 14.932C32.016 17.298 33.36 18.838 35.404 18.838C36.888 18.838 38.064 18.04 38.442 16.794H39.898C39.464 18.81 37.658 20.154 35.376 20.154ZM46.0883 13.154H47.3903V20L46.2143 20L46.0743 18.964C45.6823 19.678 44.7723 20.168 43.7643 20.168C42.1683 20.168 41.2723 19.09 41.2723 17.41V13.154H42.5883V16.976C42.5883 18.446 43.2183 19.006 44.2263 19.006C45.4303 19.006 46.0883 18.236 46.0883 16.766V13.154ZM53.2197 13.098V14.302H52.6317C51.3857 14.302 50.6157 15.058 50.6157 16.374V20H49.2997V13.168L50.5317 13.168L50.6157 14.204C50.8957 13.49 51.5817 13.014 52.5197 13.014C52.7577 13.014 52.9537 13.042 53.2197 13.098ZM58.374 13.098V14.302H57.786C56.54 14.302 55.77 15.058 55.77 16.374V20H54.454V13.168L55.686 13.168L55.77 14.204C56.05 13.49 56.736 13.014 57.674 13.014C57.912 13.014 58.108 13.042 58.374 13.098ZM62.3162 20.168C60.3002 20.168 58.9142 18.712 58.9142 16.584C58.9142 14.442 60.2722 12.958 62.2602 12.958C64.2062 12.958 65.4802 14.302 65.4802 16.332V16.822L60.1882 16.836C60.2862 18.278 61.0422 19.076 62.3442 19.076C63.3662 19.076 64.0382 18.656 64.2622 17.872H65.4942C65.1582 19.342 64.0102 20.168 62.3162 20.168ZM62.2602 14.064C61.1122 14.064 60.3842 14.75 60.2162 15.954L64.1642 15.954C64.1642 14.82 63.4222 14.064 62.2602 14.064ZM68.266 20H66.95V13.154H68.14L68.28 14.204C68.714 13.42 69.582 12.958 70.548 12.958C72.354 12.958 73.18 14.064 73.18 15.814V20H71.864V16.108C71.864 14.722 71.22 14.162 70.212 14.162C68.98 14.162 68.266 15.044 68.266 16.374V20ZM76.9348 20H75.6188V14.26H74.2748V13.154H75.6188V11.012H76.9348V13.154L78.2788 13.154V14.26L76.9348 14.26V20ZM87.4459 16.388H84.8839V20H83.5119V9.878H87.4459C89.4339 9.878 90.7079 11.18 90.7079 13.126C90.7079 15.016 89.4199 16.388 87.4459 16.388ZM87.2079 11.11H84.8839V15.156H87.1519C88.5099 15.156 89.2659 14.358 89.2659 13.112C89.2659 11.838 88.4959 11.11 87.2079 11.11ZM93.3819 20H92.0659V9.696L93.3819 9.696V20ZM97.3212 20.168C95.8512 20.168 94.9832 19.342 94.9832 18.096C94.9832 16.836 95.9212 16.052 97.5312 15.926L99.6872 15.758V15.562C99.6872 14.414 99.0012 14.008 98.0772 14.008C96.9712 14.008 96.3412 14.498 96.3412 15.324H95.1932C95.1932 13.896 96.3692 12.958 98.1332 12.958C99.8272 12.958 100.975 13.854 100.975 15.702V20H99.8552L99.7152 18.894C99.3652 19.678 98.4272 20.168 97.3212 20.168ZM97.6992 19.146C98.9452 19.146 99.7012 18.334 99.7012 17.046V16.682L97.9512 16.822C96.7892 16.934 96.3132 17.382 96.3132 18.054C96.3132 18.782 96.8452 19.146 97.6992 19.146ZM104.114 20H102.798V13.154H103.988L104.128 14.204C104.562 13.42 105.43 12.958 106.396 12.958C108.202 12.958 109.028 14.064 109.028 15.814V20H107.712V16.108C107.712 14.722 107.068 14.162 106.06 14.162C104.828 14.162 104.114 15.044 104.114 16.374V20Z" fill="white"/>
<path d="M0 0H24V30H0L19 15L0 0Z" fill="#1876D2"/>
</svg>
