<svg width="24" height="24" viewBox="0 0 24 24" fill="none" xmlns="http://www.w3.org/2000/svg">
<g clip-path="url(#clip0_149_587)">
<path d="M16.8 14.4376C15.5625 14.4376 14.55 15.4501 14.55 16.6876C14.55 17.9251 15.5625 18.9376 16.8 18.9376C18.0375 18.9376 19.05 17.9251 19.05 16.6876C19.05 15.4501 18.0375 14.4376 16.8 14.4376ZM16.8 17.2876C16.5 17.2876 16.2375 17.0251 16.2375 16.7251C16.2375 16.4251 16.5 16.1626 16.8 16.1626C17.1 16.1626 17.3625 16.4251 17.3625 16.7251C17.3625 17.0251 17.1 17.2876 16.8 17.2876Z" fill="#959595"/>
<path d="M22.8375 17.6251L21.9 17.1376C21.9 16.9876 21.9375 16.8376 21.9375 16.6501C21.9375 16.5001 21.9375 16.3126 21.9 16.1626L22.8375 15.6376C23.25 15.3751 23.4375 14.8876 23.25 14.4001C23.25 14.3626 23.2125 14.3251 23.2125 14.2876L22.05 12.3376C21.7875 11.9251 21.3 11.7751 20.85 11.9251C20.8125 11.9251 20.775 11.9626 20.7375 11.9626L19.8 12.4876C19.6125 12.3376 19.425 12.1876 19.2 12.0376V11.4751C19.2 10.7251 18.6 10.1251 17.85 10.1251H15.75C15.1125 10.1251 14.55 10.5751 14.4 11.2126C13.4625 10.2376 12.375 9.56256 11.2125 9.15005C12.525 8.36256 13.425 6.90005 13.425 5.25006C13.425 2.73756 11.4 0.712555 8.88745 0.712555C6.37495 0.712555 4.34995 2.77506 4.34995 5.25006C4.34995 6.90005 5.24995 8.36256 6.56245 9.15005C5.21245 9.60005 4.01245 10.4251 3.03745 11.5876C1.53745 13.3501 0.712451 15.7876 0.637451 18.4876C0.637451 18.8251 0.824951 19.1251 1.08745 19.2751C2.02495 19.7251 5.32495 21.2626 8.84995 21.2626C9.71245 21.2626 10.575 21.1876 11.475 21.0376C11.7375 21.4126 12.225 21.5626 12.6375 21.3751C12.675 21.3751 12.7125 21.3376 12.75 21.3376L13.6875 20.8126C13.875 20.9626 14.0625 21.1126 14.325 21.2626V21.9376C14.325 22.6876 14.925 23.2876 15.675 23.2876H17.7375C18.4875 23.2876 19.0875 22.6876 19.0875 21.9376V21.2251C19.3125 21.0751 19.5 20.9251 19.6875 20.7751L20.55 21.2626C21.15 21.6001 21.7125 21.3751 21.975 20.9626L23.1375 19.0126C23.2875 18.7876 23.325 18.5251 23.25 18.2626C23.25 17.9626 23.0625 17.7376 22.8375 17.6251ZM8.88745 2.40005C10.4625 2.40005 11.7375 3.67506 11.7375 5.25006C11.7375 6.82506 10.4625 8.10006 8.88745 8.10006C7.31245 8.10006 6.03745 6.82506 6.03745 5.25006C6.03745 3.67506 7.31245 2.40005 8.88745 2.40005ZM2.36245 18.0001C2.51245 15.9376 3.18745 14.0626 4.31245 12.7126C5.51245 11.2876 7.12495 10.5001 8.88745 10.5001C10.35 10.5001 11.7 11.0626 12.825 12.0751C12.2625 11.8126 11.7375 12.0376 11.475 12.4126L10.35 14.3626C10.2 14.5876 10.1625 14.8501 10.2375 15.1126C10.3125 15.3751 10.4625 15.6001 10.725 15.7126L11.6625 16.2376C11.6625 16.3876 11.625 16.5376 11.625 16.7251C11.625 16.8751 11.625 17.0251 11.625 17.1751L10.65 17.7001C10.2375 17.9626 10.05 18.4501 10.2375 18.9376C10.2375 18.9751 10.275 19.0126 10.275 19.0501L10.5375 19.5001C9.97495 19.5751 9.41245 19.6126 8.84995 19.6126C6.18745 19.5376 3.59995 18.5251 2.36245 18.0001ZM20.2125 16.1251C20.25 16.2751 20.25 16.4626 20.25 16.6501C20.25 16.8376 20.25 17.0251 20.2125 17.1751C20.1375 17.6626 20.3625 18.1876 20.8125 18.4126L21.375 18.7501L20.9625 19.4626L20.2875 19.0876C19.875 18.8626 19.35 18.9001 19.0125 19.2001C18.9 19.2751 18.825 19.3501 18.75 19.4251C18.5625 19.6126 18.4125 19.6876 18.3 19.7626C17.85 19.9876 17.5125 20.4751 17.5125 21.0001V21.6001H16.0875V21.0376C16.0875 20.5126 15.7875 20.0251 15.3 19.8001C15.15 19.7251 15 19.6126 14.8125 19.4626C14.7375 19.3876 14.625 19.3126 14.55 19.2376C14.175 18.9376 13.6875 18.9001 13.275 19.1251L12.825 19.3876C12.7125 19.2751 12.6 19.2376 12.45 19.2001L12.1875 18.7876L12.7875 18.4501C13.2 18.2251 13.4625 17.7376 13.3875 17.2501C13.35 17.0626 13.35 16.8751 13.35 16.6876C13.35 16.4626 13.35 16.3126 13.3875 16.1626C13.4625 15.6376 13.2375 15.1501 12.7875 14.9251L12.1875 14.5876L12.6 13.8751L13.275 14.2501C13.6875 14.4751 14.2125 14.4376 14.55 14.1376C14.625 14.0626 14.7375 13.9876 14.8125 13.9126C15 13.7251 15.15 13.6501 15.3 13.5376C15.7875 13.3126 16.0875 12.8251 16.0875 12.3001V11.8126H17.5125V12.2626C17.5125 12.7876 17.8125 13.2751 18.3 13.5001C18.45 13.5751 18.5625 13.6876 18.75 13.8376C18.825 13.9126 18.9375 13.9876 19.0125 14.0626C19.3875 14.3626 19.875 14.4001 20.2875 14.1751L20.9625 13.8001L21.375 14.5126L20.775 14.8501C20.3625 15.1126 20.1 15.6001 20.2125 16.1251Z" fill="#959595"/>
</g>
<defs>
<clipPath id="clip0_149_587">
<rect width="24" height="24" fill="white"/>
</clipPath>
</defs>
</svg>
