<svg width="20" height="20" viewBox="0 0 20 20" fill="none" xmlns="http://www.w3.org/2000/svg">
<path d="M6 11.7273L5.37175 13.9539L3.07549 14C2.38925 12.7916 2 11.4091 2 9.94C2 8.51934 2.36394 7.17964 3.00904 6H3.00954L5.05385 6.35581L5.94938 8.28491C5.76195 8.80366 5.65979 9.36054 5.65979 9.94C5.65986 10.5689 5.77985 11.1714 6 11.7273Z" fill="white"/>
<path d="M17.8571 9C17.951 9.43806 18 9.89045 18 10.3528C18 10.8713 17.9384 11.377 17.8211 11.8648C17.4229 13.5248 16.3825 14.9743 14.9411 16L14.9407 15.9996L12.6067 15.8942L12.2764 14.0687C13.2328 13.5721 13.9803 12.795 14.374 11.8648H10V9H14.4378H17.8571Z" fill="white"/>
<path d="M14.9996 16.3304L15 16.3308C13.6353 17.3751 11.9017 18 10.0145 18C6.98177 18 4.34506 16.3862 3 14.0112L5.58072 12C6.25323 13.7088 7.98465 14.9252 10.0145 14.9252C10.887 14.9252 11.7043 14.7007 12.4057 14.3087L14.9996 16.3304Z" fill="white"/>
<path d="M15 3.71206L12.4533 5.68441C11.7367 5.26069 10.8897 5.01592 9.98222 5.01592C7.93312 5.01592 6.19199 6.2638 5.56137 8L3.00043 6.01662H3C4.30834 3.63035 6.94399 2 9.98222 2C11.8896 2 13.6385 2.64275 15 3.71206Z" fill="white"/>
</svg>
