<svg width="25" height="24" viewBox="0 0 25 24" fill="none" xmlns="http://www.w3.org/2000/svg">
<g clip-path="url(#clip0_35_261)">
<path d="M10.25 20.25V14.25H14.75V20.25H20.75V11.25C20.7501 11.1515 20.7307 11.0539 20.6931 10.9629C20.6555 10.8718 20.6003 10.7891 20.5306 10.7194L13.0306 3.21938C12.961 3.14964 12.8783 3.09432 12.7872 3.05658C12.6962 3.01884 12.5986 2.99941 12.5 2.99941C12.4014 2.99941 12.3038 3.01884 12.2128 3.05658C12.1217 3.09432 12.039 3.14964 11.9694 3.21938L4.46938 10.7194C4.39975 10.7891 4.34454 10.8718 4.3069 10.9629C4.26926 11.0539 4.24992 11.1515 4.25 11.25V20.25H10.25Z" stroke="#959595" stroke-width="1.5" stroke-linecap="round" stroke-linejoin="round"/>
</g>
<defs>
<clipPath id="clip0_35_261">
<rect width="24" height="24" fill="white" transform="translate(0.5)"/>
</clipPath>
</defs>
</svg>
