<svg width="24" height="24" viewBox="0 0 24 24" fill="none" xmlns="http://www.w3.org/2000/svg">
<g clip-path="url(#clip0_149_595)">
<path d="M6.03759 23.3251C5.70009 23.3251 5.36259 23.2126 5.10009 23.0251C4.57509 22.6501 4.27509 21.9751 4.38759 21.3376L5.36259 15.3001L1.16259 10.9876C0.71259 10.5376 0.562591 9.86261 0.750091 9.22511C0.937591 8.62511 1.46259 8.17511 2.06259 8.10011L7.87509 7.16261L10.5001 1.65011C10.8001 1.05011 11.3626 0.67511 12.0001 0.67511C12.6376 0.67511 13.2376 1.05011 13.5001 1.65011L16.1251 7.12511L21.9001 8.02511C22.5001 8.13761 23.0251 8.55011 23.2126 9.15011C23.4376 9.78761 23.2501 10.4626 22.8001 10.9126L18.6376 15.2626L19.6126 21.3376C19.7251 22.0126 19.4626 22.6501 18.9001 23.0251C18.3751 23.4001 17.7376 23.4376 17.1751 23.1376L12.0001 20.3251L6.82509 23.1376C6.60009 23.2876 6.30009 23.3251 6.03759 23.3251ZM2.36259 9.75011C2.36259 9.75011 2.36259 9.78761 2.36259 9.82511L6.75009 14.3251C7.01259 14.5876 7.12509 15.0001 7.08759 15.3751L6.07509 21.6376C6.07509 21.6376 6.07509 21.6376 6.07509 21.6751L11.4751 18.7501C11.8126 18.5626 12.2251 18.5626 12.6001 18.7501L18.0001 21.6751C18.0001 21.6751 18.0001 21.6751 18.0001 21.6376L16.9876 15.3376C16.9126 14.9626 17.0626 14.5876 17.3251 14.2876L21.7126 9.78761C21.7501 9.75011 21.7126 9.71261 21.7126 9.71261L15.6751 8.77511C15.3001 8.70011 14.9626 8.47511 14.8126 8.10011L12.0001 2.40011L9.30009 8.13761C9.15009 8.47511 8.81259 8.73761 8.43759 8.81261L2.36259 9.75011Z" fill="#959595"/>
</g>
<defs>
<clipPath id="clip0_149_595">
<rect width="24" height="24" fill="white"/>
</clipPath>
</defs>
</svg>
