<svg width="24" height="24" viewBox="0 0 24 24" fill="none" xmlns="http://www.w3.org/2000/svg">
<g clip-path="url(#clip0_149_591)">
<path d="M12.0374 7.3501C9.48745 7.3501 7.38745 9.4501 7.38745 12.0001C7.38745 14.5876 9.48745 16.6501 12.0374 16.6501C14.5875 16.6501 16.6875 14.5876 16.6875 12.0001C16.6875 9.4501 14.5875 7.3501 12.0374 7.3501ZM12.0374 15.0001C10.3874 15.0001 9.07495 13.6501 9.07495 12.0376C9.07495 10.3876 10.3874 9.0751 12.0374 9.0751C13.6874 9.0751 15 10.3876 15 12.0001C15 13.6501 13.65 15.0001 12.0374 15.0001Z" fill="#959595"/>
<path d="M22.7625 14.2876L20.6625 13.1251C20.7375 12.7126 20.775 12.3001 20.775 11.8876C20.775 11.4376 20.7375 11.0251 20.7 10.6126L22.8375 9.4126C23.325 9.1501 23.5125 8.5501 23.2875 8.0251L21.1125 4.3501C20.85 3.9001 20.25 3.7126 19.7625 3.9001L17.5125 5.1376C17.4 5.0626 17.2875 4.9501 17.2125 4.8751C16.8 4.5376 16.425 4.2001 15.825 3.9001C15.7875 3.9001 15.75 3.8626 15.75 3.7876V2.4376C15.75 1.4626 14.9625 0.637604 13.95 0.637604H10.0875C9.11248 0.637604 8.28748 1.4626 8.28748 2.4376V3.9001C8.28748 3.9376 8.24998 3.9751 8.21248 4.0126C7.64998 4.2751 7.23748 4.6501 6.78748 4.9876C6.71248 5.0626 6.59998 5.1376 6.52498 5.2126L4.53748 4.0876C3.78748 3.6751 3.14998 3.9376 2.88748 4.3876L0.824983 7.9501C0.712483 8.2501 0.674983 8.5501 0.749983 8.8501C0.824983 9.1501 1.01248 9.3751 1.27498 9.5251L3.37498 10.6501C3.29998 11.0251 3.29998 11.4376 3.29998 11.9251C3.29998 12.3376 3.33748 12.7501 3.37498 13.1626L1.19998 14.3626C0.712483 14.6251 0.524983 15.2251 0.749983 15.7501L2.92498 19.4251C3.18748 19.8751 3.74998 20.0626 4.27498 19.8751L6.52498 18.6376C6.63748 18.7126 6.71248 18.7876 6.82498 18.9001C7.23748 19.2751 7.64998 19.6126 8.24998 19.8751C8.28748 19.8751 8.32498 19.9126 8.32498 19.9876V21.6001C8.32498 22.5751 9.11248 23.4001 10.125 23.4001H13.95C14.925 23.4001 15.75 22.5751 15.75 21.6001V19.8751C15.75 19.8376 15.7875 19.8001 15.825 19.7626C16.3875 19.5001 16.7625 19.1626 17.2125 18.7876C17.325 18.7126 17.4 18.6376 17.5125 18.5251L19.5 19.6501C20.25 20.0626 20.85 19.8001 21.15 19.3501L23.25 15.7876C23.4 15.5251 23.4375 15.2251 23.3625 14.9626C23.2875 14.7001 23.025 14.4376 22.7625 14.2876ZM19.9125 18.0001L18.1125 16.9876C17.5875 16.6876 16.9875 16.7626 16.5375 17.1376C16.35 17.2876 16.2 17.4001 16.05 17.5501C15.675 17.8876 15.4125 18.1126 15.0375 18.2626C14.4375 18.5626 14.025 19.2001 14.025 19.8751V21.5251C14.025 21.6001 13.9875 21.6376 13.9125 21.6376H10.0875C10.0125 21.6376 9.97498 21.6001 9.97498 21.5251V19.9126C9.97498 19.2376 9.56248 18.6001 8.96248 18.3001C8.58748 18.1126 8.28748 17.8876 7.91248 17.5501C7.76248 17.4376 7.61248 17.2876 7.42498 17.1751C7.16248 16.9876 6.86248 16.8751 6.52498 16.8751C6.29998 16.8751 6.03748 16.9501 5.81248 17.0626L4.01248 18.0751L2.51248 15.5251L4.27498 14.5501C4.79998 14.2501 5.09998 13.6876 5.02498 13.0501C4.98748 12.6751 4.94998 12.3001 4.94998 11.9251C4.94998 11.5126 4.98748 11.1376 5.02498 10.8376C5.13748 10.2001 4.83748 9.5626 4.27498 9.2626L2.62498 8.3251L4.08748 5.8126L5.88748 6.8251C6.41248 7.1251 7.01248 7.0501 7.46248 6.6751C7.61248 6.5626 7.76248 6.4126 7.91248 6.3001C8.28748 5.9626 8.58748 5.7376 8.96248 5.5501C9.59998 5.2501 9.97498 4.6126 9.97498 3.9376V2.4751C9.97498 2.4001 10.0125 2.3626 10.0875 2.3626H13.9125C13.9875 2.3626 14.025 2.4001 14.025 2.4751V3.9001C14.025 4.5751 14.4375 5.2126 15.0375 5.5126C15.4125 5.7001 15.675 5.9251 16.05 6.2251C16.2 6.3751 16.35 6.4876 16.5375 6.6376C16.9875 7.0126 17.625 7.0501 18.1125 6.7501L19.9125 5.7376L21.4125 8.2876L19.6875 9.2626C19.1625 9.5626 18.8625 10.2001 18.975 10.8376C19.0125 11.1751 19.05 11.5501 19.05 11.9251C19.05 12.3001 19.0125 12.6751 18.9375 13.0501C18.825 13.6876 19.125 14.2876 19.6875 14.5876L21.375 15.5251L19.9125 18.0001Z" fill="#959595"/>
</g>
<defs>
<clipPath id="clip0_149_591">
<rect width="24" height="24" fill="white"/>
</clipPath>
</defs>
</svg>
