<svg width="24" height="24" viewBox="0 0 24 24" fill="none" xmlns="http://www.w3.org/2000/svg">
<path d="M10.9393 9.93934C11.2206 9.65804 11.6022 9.5 12 9.5C12.3978 9.5 12.7794 9.65804 13.0607 9.93934C13.342 10.2206 13.5 10.6022 13.5 11C13.5 11.3978 13.342 11.7794 13.0607 12.0607C12.7794 12.342 12.3978 12.5 12 12.5C11.6022 12.5 11.2206 12.342 10.9393 12.0607C10.658 11.7794 10.5 11.3978 10.5 11C10.5 10.6022 10.658 10.2206 10.9393 9.93934ZM8.5 17.5C8.5 16.837 8.76339 16.2011 9.23223 15.7322C9.70107 15.2634 10.337 15 11 15H13C13.663 15 14.2989 15.2634 14.7678 15.7322C15.2366 16.2011 15.5 16.837 15.5 17.5C15.5 17.6326 15.4473 17.7598 15.3536 17.8536C15.2598 17.9473 15.1326 18 15 18H9C8.86739 18 8.74021 17.9473 8.64645 17.8536C8.55268 17.7598 8.5 17.6326 8.5 17.5Z" stroke="white"/>
<path d="M16.0018 3.27161L16.0017 3.27143C15.8861 3.11019 15.7337 2.97881 15.5572 2.88814C15.3808 2.79751 15.1853 2.75016 14.987 2.75L16.0018 3.27161ZM16.0018 3.27161L19.0157 7.46943C19.1681 7.68182 19.25 7.93662 19.25 8.198V19C19.25 19.5967 19.0129 20.169 18.591 20.591C18.169 21.0129 17.5967 21.25 17 21.25H7C6.40326 21.25 5.83097 21.0129 5.40901 20.591C4.98705 20.169 4.75 19.5967 4.75 19V5C4.75 4.40326 4.98705 3.83097 5.40901 3.40901C5.83097 2.98705 6.40326 2.75 7 2.75M16.0018 3.27161L7 2.75M7 2.75H14.9869H7ZM14.75 3.75V3.25H14.25H7C6.03386 3.25 5.25 4.03386 5.25 5V19C5.25 19.9661 6.03386 20.75 7 20.75H17C17.9661 20.75 18.75 19.9661 18.75 19V8.897V8.397H18.25H15C14.8621 8.397 14.75 8.28486 14.75 8.147V3.75Z" stroke="white"/>
</svg>
