<svg width="24" height="24" viewBox="0 0 24 24" fill="none" xmlns="http://www.w3.org/2000/svg">
<path fill-rule="evenodd" clip-rule="evenodd" d="M8.223 6.51595C8.61323 6.08566 8.87014 5.55134 8.96255 4.97785C9.05495 4.40436 8.97888 3.81638 8.74356 3.2853C8.50824 2.75421 8.1238 2.30287 7.63691 1.98606C7.15003 1.66925 6.58163 1.50061 6.00075 1.50061C5.41987 1.50061 4.85147 1.66925 4.36459 1.98606C3.8777 2.30287 3.49326 2.75421 3.25794 3.2853C3.02262 3.81638 2.94655 4.40436 3.03895 4.97785C3.13136 5.55134 3.38827 6.08566 3.7785 6.51595C3.6585 6.57895 3.5445 6.64645 3.4335 6.71995C2.748 7.17745 2.3085 7.77595 2.034 8.32945C1.70495 8.99548 1.52284 9.72443 1.5 10.467V13.5C1.5 13.8978 1.65804 14.2793 1.93934 14.5606C2.22064 14.8419 2.60218 15 3 15H6.75C7.01235 14.467 7.35878 13.9798 7.776 13.557L7.7565 13.5H3V10.5C3 10.5 3 7.49995 6 7.49995C7.5105 7.49995 8.2605 8.26045 8.6325 9.01495C8.97 8.63395 9.372 8.30995 9.822 8.06095C9.4425 7.4077 8.8889 6.87279 8.223 6.51595ZM6 5.99995C6.39782 5.99995 6.77936 5.84192 7.06066 5.56061C7.34196 5.27931 7.5 4.89778 7.5 4.49995C7.5 4.10213 7.34196 3.7206 7.06066 3.43929C6.77936 3.15799 6.39782 2.99995 6 2.99995C5.60218 2.99995 5.22064 3.15799 4.93934 3.43929C4.65804 3.7206 4.5 4.10213 4.5 4.49995C4.5 4.89778 4.65804 5.27931 4.93934 5.56061C5.22064 5.84192 5.60218 5.99995 6 5.99995ZM21 15H17.25C16.9878 14.4669 16.6413 13.9797 16.224 13.557L16.2435 13.5H21V10.5C21 10.5 21 7.49995 18 7.49995C16.4895 7.49995 15.7395 8.26045 15.3675 9.01495C15.0279 8.63186 14.6257 8.30926 14.178 8.06095C14.5574 7.40765 15.1111 6.87273 15.777 6.51595C15.3868 6.08566 15.1299 5.55134 15.0375 4.97785C14.945 4.40436 15.0211 3.81638 15.2564 3.2853C15.4918 2.75421 15.8762 2.30287 16.3631 1.98606C16.85 1.66925 17.4184 1.50061 17.9993 1.50061C18.5801 1.50061 19.1485 1.66925 19.6354 1.98606C20.1223 2.30287 20.5067 2.75421 20.7421 3.2853C20.9774 3.81638 21.0535 4.40436 20.961 4.97785C20.8686 5.55134 20.6117 6.08566 20.2215 6.51595C20.3415 6.57895 20.4555 6.64645 20.5665 6.71995C21.252 7.17745 21.6915 7.77595 21.966 8.32945C22.2882 8.97985 22.4702 9.69072 22.5 10.416V13.5C22.5 13.8978 22.342 14.2793 22.0607 14.5606C21.7794 14.8419 21.3978 15 21 15ZM18 5.99995C18.3978 5.99995 18.7794 5.84192 19.0607 5.56061C19.342 5.27931 19.5 4.89778 19.5 4.49995C19.5 4.10213 19.342 3.7206 19.0607 3.43929C18.7794 3.15799 18.3978 2.99995 18 2.99995C17.6022 2.99995 17.2206 3.15799 16.9393 3.43929C16.658 3.7206 16.5 4.10213 16.5 4.49995C16.5 4.89778 16.658 5.27931 16.9393 5.56061C17.2206 5.84192 17.6022 5.99995 18 5.99995Z" fill="#566F8F"/>
<path fill-rule="evenodd" clip-rule="evenodd" d="M15 12C15 12.7755 14.706 13.4835 14.223 14.016C14.9791 14.4249 15.5889 15.0593 15.9675 15.831C16.2958 16.4962 16.4774 17.2241 16.5 17.9655V21C16.5 21.3978 16.342 21.7794 16.0607 22.0607C15.7794 22.342 15.3978 22.5 15 22.5H9C8.60218 22.5 8.22064 22.342 7.93934 22.0607C7.65804 21.7794 7.5 21.3978 7.5 21V17.967C7.50072 17.8994 7.50373 17.8319 7.509 17.7645C7.55641 17.0915 7.73475 16.4342 8.034 15.8295C8.41219 15.058 9.02145 14.4236 9.777 14.0145C9.4499 13.6536 9.21561 13.2184 9.09439 12.7466C8.97316 12.2748 8.96864 11.7806 9.08122 11.3067C9.1938 10.8327 9.42009 10.3933 9.74053 10.0265C10.061 9.6596 10.4659 9.37627 10.9204 9.20098C11.3749 9.02569 11.8652 8.9637 12.349 9.02038C12.8329 9.07705 13.2956 9.25068 13.6973 9.52627C14.0989 9.80186 14.4274 10.1711 14.6544 10.6021C14.8814 11.0331 15 11.5129 15 12ZM9 18V21H15V18C15 18 15 15 12 15C9 15 9 18 9 18ZM13.5 12C13.5 12.3978 13.342 12.7794 13.0607 13.0607C12.7794 13.342 12.3978 13.5 12 13.5C11.6022 13.5 11.2206 13.342 10.9393 13.0607C10.658 12.7794 10.5 12.3978 10.5 12C10.5 11.6022 10.658 11.2207 10.9393 10.9394C11.2206 10.6581 11.6022 10.5 12 10.5C12.3978 10.5 12.7794 10.6581 13.0607 10.9394C13.342 11.2207 13.5 11.6022 13.5 12Z" fill="#566F8F"/>
</svg>
