<svg width="24" height="24" viewBox="0 0 24 24" fill="none" xmlns="http://www.w3.org/2000/svg">
<path d="M12 0C18.6276 0 24 5.3724 24 12C24 18.6276 18.6276 24 12 24C5.3724 24 0 18.6276 0 12C0 5.3724 5.3724 0 12 0ZM12 2.4C9.45392 2.4 7.01212 3.41143 5.21177 5.21178C3.41143 7.01212 2.4 9.45392 2.4 12C2.4 14.5461 3.41143 16.9879 5.21177 18.7882C7.01212 20.5886 9.45392 21.6 12 21.6C14.5461 21.6 16.9879 20.5886 18.7882 18.7882C20.5886 16.9879 21.6 14.5461 21.6 12C21.6 9.45392 20.5886 7.01212 18.7882 5.21178C16.9879 3.41143 14.5461 2.4 12 2.4ZM16.5996 6.4044C16.7373 6.30808 16.9046 6.26335 17.072 6.27805C17.2395 6.29275 17.3964 6.36595 17.5152 6.4848C17.6337 6.60328 17.7063 6.75995 17.7201 6.92694C17.734 7.09393 17.6882 7.26042 17.5908 7.3968C14.9748 11.052 13.5348 13.0104 13.2732 13.2732C12.9355 13.6109 12.4775 13.8006 12 13.8006C11.5225 13.8006 11.0645 13.6109 10.7268 13.2732C10.3891 12.9355 10.1994 12.4775 10.1994 12C10.1994 11.5225 10.3891 11.0645 10.7268 10.7268C11.1756 10.2792 13.1328 8.838 16.5996 6.4044ZM18.6 10.8C18.9183 10.8 19.2235 10.9264 19.4485 11.1515C19.6736 11.3765 19.8 11.6817 19.8 12C19.8 12.3183 19.6736 12.6235 19.4485 12.8485C19.2235 13.0736 18.9183 13.2 18.6 13.2C18.2817 13.2 17.9765 13.0736 17.7515 12.8485C17.5264 12.6235 17.4 12.3183 17.4 12C17.4 11.6817 17.5264 11.3765 17.7515 11.1515C17.9765 10.9264 18.2817 10.8 18.6 10.8ZM5.4 10.8C5.71826 10.8 6.02348 10.9264 6.24853 11.1515C6.47357 11.3765 6.6 11.6817 6.6 12C6.6 12.3183 6.47357 12.6235 6.24853 12.8485C6.02348 13.0736 5.71826 13.2 5.4 13.2C5.08174 13.2 4.77652 13.0736 4.55147 12.8485C4.32643 12.6235 4.2 12.3183 4.2 12C4.2 11.6817 4.32643 11.3765 4.55147 11.1515C4.77652 10.9264 5.08174 10.8 5.4 10.8ZM8.1816 6.4848C8.29621 6.5955 8.38763 6.72791 8.45052 6.87431C8.51341 7.02072 8.54652 7.17818 8.5479 7.33752C8.54928 7.49685 8.51892 7.65487 8.45859 7.80234C8.39825 7.94982 8.30914 8.0838 8.19647 8.19647C8.0838 8.30914 7.94982 8.39825 7.80234 8.45859C7.65487 8.51892 7.49685 8.54928 7.33752 8.5479C7.17818 8.54652 7.02072 8.51341 6.87431 8.45052C6.72791 8.38763 6.5955 8.29621 6.4848 8.1816C6.26621 7.95528 6.14526 7.65216 6.14799 7.33752C6.15072 7.02288 6.27693 6.72191 6.49942 6.49942C6.72191 6.27693 7.02288 6.15073 7.33752 6.14799C7.65215 6.14526 7.95528 6.26621 8.1816 6.4848ZM12 4.2C12.3183 4.2 12.6235 4.32643 12.8485 4.55147C13.0736 4.77652 13.2 5.08174 13.2 5.4C13.2 5.71826 13.0736 6.02348 12.8485 6.24853C12.6235 6.47357 12.3183 6.6 12 6.6C11.6817 6.6 11.3765 6.47357 11.1515 6.24853C10.9264 6.02348 10.8 5.71826 10.8 5.4C10.8 5.08174 10.9264 4.77652 11.1515 4.55147C11.3765 4.32643 11.6817 4.2 12 4.2Z" fill="#316BFF"/>
</svg>
