<svg width="25" height="25" viewBox="0 0 25 25" fill="none" xmlns="http://www.w3.org/2000/svg">
<g clip-path="url(#clip0_104_2659)">
<path d="M21.321 10.5757C21.321 17.4696 12.4574 23.3787 12.4574 23.3787C12.4574 23.3787 3.59375 17.4696 3.59375 10.5757C3.59375 8.22489 4.52759 5.97039 6.18985 4.30813C7.8521 2.64588 10.1066 1.71204 12.4574 1.71204C14.8082 1.71204 17.0627 2.64588 18.7249 4.30813C20.3872 5.97039 21.321 8.22489 21.321 10.5757Z" stroke="#8A1538" stroke-width="1.7" stroke-linecap="round" stroke-linejoin="round"/>
<path d="M12.4575 13.5302C14.0892 13.5302 15.412 12.2074 15.412 10.5756C15.412 8.94389 14.0892 7.62109 12.4575 7.62109C10.8257 7.62109 9.50293 8.94389 9.50293 10.5756C9.50293 12.2074 10.8257 13.5302 12.4575 13.5302Z" stroke="#8A1538" stroke-width="1.7" stroke-linecap="round" stroke-linejoin="round"/>
</g>
<defs>
<clipPath id="clip0_104_2659">
<rect width="23.6364" height="23.6364" fill="white" transform="translate(0.639648 0.727173)"/>
</clipPath>
</defs>
</svg>
