<svg width="125" height="20" viewBox="0 0 125 20" fill="none" xmlns="http://www.w3.org/2000/svg">
<path d="M8.75622 5.47267H10.7463C11.9901 5.47267 13.2836 5.72143 13.2836 7.16421C13.2836 8.40799 12.4876 9.30351 10.1493 9.30351H7.9602L8.75622 5.47267ZM0 19.5523H5.77114L6.96517 13.8309H10.8955C15.8706 13.8309 19.1045 10.5473 19.1045 6.71645C19.1045 2.53734 16.8657 0.597046 13.3831 0.597046H3.9801L0 19.5523Z" fill="#3E3E3E"/>
<path d="M26.219 7.11446L26.9155 12.7861H23.2837L26.219 7.11446ZM13.7314 19.5523H19.7016L21.1444 16.8657H27.3135L27.612 19.5523H33.3334L30.4479 0.597046H24.6767L13.7314 19.5523Z" fill="#3E3E3E"/>
<path d="M35.771 12.5871L31.6914 0.597046H37.5621L39.3531 7.66172L43.98 0.597046H50.8456L41.5919 12.5373L40.1491 19.5523H34.3282L35.771 12.5871Z" fill="#3E3E3E"/>
<path d="M64.7762 12.3383C64.4279 14.2786 62.9354 20 55.0249 20C49.5025 20 46.8657 16.4179 46.8657 11.3433C46.8657 5.22387 50.6966 0.0994873 57.1642 0.0994873C61.3931 0.0994873 65.1742 1.94028 65.2737 7.61193H59.7513C59.801 5.82088 58.9553 4.82586 57.1642 4.82586C53.9304 4.82586 52.7364 8.5572 52.7364 11.2438C52.7364 12.8358 53.1344 15.2239 55.8209 15.2239C57.6617 15.2239 58.7065 13.9801 59.0548 12.2885L64.7762 12.3383Z" fill="#3E3E3E"/>
<path d="M68.1593 0.597046H74.03L72.637 7.16421H77.9603L79.3534 0.597046H85.224L81.2439 19.5523H75.423L76.9653 12.0398H71.6419L70.0499 19.5523H64.229L68.1593 0.597046Z" fill="#3E3E3E"/>
<path d="M86.7662 0.597046H102.438L101.443 5.47267H91.5921L91.0946 7.81098H100.249L99.3036 12.3383H90.1493L89.6518 14.6766H99.7016L98.7065 19.5523H82.7861L86.7662 0.597046Z" fill="#3E3E3E"/>
<path d="M106.468 9.50252L102.09 0.597046H108.458L110.299 5.52242L114.08 0.597046H120.995L113.085 9.50252L117.712 19.5523H111.144L109.055 14.2786L104.627 19.5523H97.4629L106.468 9.50252Z" fill="#3E3E3E"/>
<path d="M121.741 1.44279C121.741 0.746269 122.239 0.199005 122.935 0.199005C123.582 0.199005 124.129 0.746269 124.129 1.44279C124.129 2.1393 123.632 2.68657 122.935 2.68657C122.289 2.68657 121.741 2.1393 121.741 1.44279ZM121.493 1.44279C121.493 2.28856 122.139 2.88557 122.935 2.88557C123.731 2.88557 124.378 2.28856 124.378 1.44279C124.378 0.646766 123.731 0 122.935 0C122.139 0 121.493 0.646766 121.493 1.44279ZM122.388 2.28856H122.637V1.59204H122.886L123.333 2.33831H123.632L123.134 1.59204C123.383 1.59204 123.582 1.44279 123.582 1.14428C123.582 0.79602 123.383 0.646766 122.985 0.646766H122.388V2.28856ZM122.637 0.845771H122.985C123.184 0.845771 123.333 0.895522 123.333 1.09453C123.333 1.34328 123.134 1.39303 122.886 1.39303H122.637V0.845771Z" fill="#3E3E3E"/>
</svg>
