<svg width="75" height="54" viewBox="0 0 75 54" fill="none" xmlns="http://www.w3.org/2000/svg">
<path d="M35.7296 8.6583V31.8573H16.5143L35.7296 8.6583ZM35.7296 0.333313C35.7296 2.88142 34.7174 5.32516 32.9156 7.12695C31.1138 8.92873 28.67 9.94096 26.1219 9.94096C23.5738 9.94096 21.1301 8.92873 19.3283 7.12695C17.5265 5.32516 16.5143 2.88142 16.5143 0.333313L35.7296 0.333313ZM38.8951 31.8593C38.8951 29.3112 39.9074 26.8675 41.7092 25.0657C43.5109 23.2639 45.9547 22.2517 48.5028 22.2517C51.0509 22.2517 53.4946 23.2639 55.2964 25.0657C57.0982 26.8675 58.1104 29.3112 58.1104 31.8593H38.8951ZM38.8951 23.5343V0.333313H58.1145L38.8951 23.5323V23.5343ZM49.6416 51.7077C50.6297 51.7298 51.5866 51.3604 52.3035 50.6799L53.6232 52.1044C52.7516 53.0007 51.5429 53.6667 49.6642 53.6667C46.4431 53.6667 44.3608 51.5289 44.3608 48.6388C44.3478 47.9764 44.4683 47.3182 44.7152 46.7034C44.962 46.0885 45.3302 45.5298 45.7977 45.0603C46.2652 44.5909 46.8225 44.2205 47.4363 43.9711C48.0501 43.7217 48.7078 43.5985 49.3702 43.6088C52.5687 43.6088 54.3817 46.0426 54.2213 49.4178H46.661C46.9282 50.8197 47.9149 51.7139 49.6354 51.7139L49.6416 51.7077ZM51.9376 47.8083C51.7321 46.499 50.9509 45.5349 49.3887 45.5349C47.9355 45.5349 46.9221 46.3571 46.661 47.8083H51.9397H51.9376ZM0 51.5988L5.81721 45.687H0.137722V43.8329H8.51615V45.724L2.69894 51.6337H8.59837V53.4899H0V51.5988ZM15.1289 51.7057C16.117 51.7278 17.0739 51.3583 17.7908 50.6779L19.1105 52.1024C18.2389 52.9986 17.0302 53.6646 15.1515 53.6646C11.9304 53.6646 9.84815 51.5268 9.84815 48.6367C9.83509 47.9743 9.95559 47.3161 10.2024 46.7013C10.4493 46.0865 10.8175 45.5277 11.285 45.0583C11.7525 44.5888 12.3098 44.2184 12.9236 43.969C13.5374 43.7196 14.1951 43.5965 14.8575 43.6068C18.056 43.6068 19.869 46.0406 19.7086 49.4158H12.1524C12.4196 50.8177 13.4063 51.7118 15.1268 51.7118L15.1289 51.7057ZM17.429 47.8063C17.2235 46.4969 16.4424 45.5328 14.8801 45.5328C13.4269 45.5328 12.4135 46.3551 12.1524 47.8063H17.4311H17.429ZM32.2763 48.6347C32.2763 45.5513 34.5846 43.6109 37.1274 43.6109C37.7375 43.6028 38.342 43.7283 38.8984 43.9787C39.4549 44.229 39.9498 44.5981 40.3484 45.0601V39.3621H42.404V53.4632H40.3484V52.1332C39.9574 52.6142 39.4632 53.001 38.9024 53.265C38.3417 53.529 37.7287 53.6635 37.1089 53.6584C34.6422 53.6584 32.2783 51.7057 32.2783 48.6367L32.2763 48.6347ZM40.4635 48.6162C40.4474 48.0133 40.2538 47.4285 39.907 46.9351C39.5603 46.4416 39.0757 46.0614 38.514 45.8418C37.9522 45.6223 37.3382 45.5733 36.7488 45.701C36.1593 45.8286 35.6206 46.1272 35.1999 46.5594C34.7793 46.9916 34.4954 47.5382 34.3838 48.1309C34.2722 48.7236 34.3379 49.3361 34.5725 49.8917C34.8072 50.4473 35.2004 50.9213 35.7031 51.2546C36.2058 51.5878 36.7956 51.7655 37.3987 51.7653C39.1665 51.7653 40.4615 50.3552 40.4615 48.6162H40.4635ZM55.5657 51.4117L57.428 50.4456C57.6742 50.8845 58.0356 51.2479 58.4732 51.4964C58.9108 51.7449 59.408 51.8691 59.9111 51.8557C61.0745 51.8557 61.6789 51.2596 61.6789 50.5813C61.6789 49.8084 60.5545 49.6357 59.3314 49.3829C57.687 49.0334 55.9747 48.4928 55.9747 46.5051C55.9747 44.9778 57.428 43.5657 59.7158 43.5862C61.5185 43.5862 62.8608 44.3016 63.6214 45.4568L61.8947 46.4023C61.6562 46.049 61.3314 45.7624 60.9512 45.5696C60.5711 45.3768 60.148 45.2842 59.722 45.3006C58.6161 45.3006 58.0529 45.8412 58.0529 46.4599C58.0529 47.1547 58.945 47.3479 60.3428 47.6583C61.9338 48.0077 63.7344 48.5278 63.7344 50.5361C63.7344 51.8681 62.571 53.6646 59.8165 53.6461C57.8021 53.6461 56.3838 52.8342 55.5677 51.4056L55.5657 51.4117ZM69.3194 49.1712L67.6893 50.9492V53.457H65.6337V39.3559H67.6893V48.5915L72.0532 43.8021H74.5569L70.7747 47.9337L74.6556 53.4591H72.3287L69.3214 49.1712H69.3194ZM26.0644 43.6088C23.6183 43.6088 21.573 45.1916 21.573 47.8227V53.4652H23.6697V48.0838C23.6697 46.501 24.5803 45.5513 26.1363 45.5513C27.6924 45.5513 28.4653 46.4969 28.4653 48.0838V53.4652H30.5496V47.8227C30.5496 45.1957 28.494 43.6088 26.0582 43.6088" fill="#3E3E3E"/>
</svg>
