<svg width="217" height="32" viewBox="0 0 217 32" fill="none" xmlns="http://www.w3.org/2000/svg">
<path fill-rule="evenodd" clip-rule="evenodd" d="M52.736 9.85851C50.5331 9.85186 48.3976 10.6186 46.702 12.0249V10.0766H41.1914V31.5374H46.9201V17.8263C47.5362 17.0247 48.3229 16.3701 49.2231 15.9099C50.1234 15.4497 51.1147 15.1954 52.1254 15.1656C52.907 15.1229 53.689 15.2417 54.4227 15.5145V10.0039C53.866 9.90438 53.3015 9.85571 52.736 9.85851Z" fill="#3E3E3E"/>
<path fill-rule="evenodd" clip-rule="evenodd" d="M2.77711 24.9945C4.40435 26.3665 6.46458 27.1185 8.59304 27.1173C10.1343 27.1173 11.3265 26.3612 11.3265 25.2998C11.3701 22.0719 1.01779 23.2642 1.01779 16.3142C1.01779 12.1994 4.98716 9.64039 9.21825 9.64039C11.8011 9.63749 14.3283 10.3906 16.4882 11.8068L13.7547 15.9943C12.5684 15.1025 11.1376 14.5951 9.65445 14.5403C8.06961 14.5403 6.74648 15.1655 6.74648 16.2706C6.74648 19.0622 17.0988 17.9572 17.0988 25.387C17.0988 29.4582 13.0858 31.9881 8.59304 31.9881C5.49527 31.9401 2.49029 30.9232 0 29.0801L2.77711 24.9945Z" fill="#3E3E3E"/>
<path fill-rule="evenodd" clip-rule="evenodd" d="M38.7486 20.6034C38.7486 14.6275 34.5612 9.64038 28.6434 9.64038C22.3041 9.64038 18.2475 14.8602 18.2475 20.8215C18.1811 22.3081 18.4255 23.7921 18.9651 25.1789C19.5046 26.5657 20.3274 27.8247 21.381 28.8755C22.4346 29.9263 23.6957 30.7459 25.0839 31.2818C26.4721 31.8178 27.9568 32.0583 29.4431 31.9881C31.0859 32.0006 32.7126 31.665 34.2163 31.0034C35.7199 30.3418 37.0664 29.3692 38.167 28.1496L34.8956 24.849C34.212 25.6038 33.3833 26.2129 32.4589 26.6401C31.5346 27.0673 30.5336 27.3038 29.5158 27.3354C28.079 27.3937 26.6747 26.8983 25.5925 25.9513C24.5103 25.0044 23.8328 23.6782 23.6999 22.2464H38.6032C38.6988 21.7039 38.7474 21.1542 38.7486 20.6034ZM24.0634 18.0444C24.2697 16.982 24.8399 16.0248 25.6758 15.3374C26.5118 14.6501 27.5612 14.2757 28.6434 14.2786C29.6877 14.2787 30.6955 14.6622 31.4755 15.3565C32.2555 16.0507 32.7534 17.0072 32.8745 18.0444H24.0634Z" fill="#3E3E3E"/>
<path fill-rule="evenodd" clip-rule="evenodd" d="M68.0754 23.1769L73.9349 10.0765H79.8963L70.0528 31.5373H66.098L56.269 10.0765H62.2158L68.0754 23.1769Z" fill="#3E3E3E"/>
<path fill-rule="evenodd" clip-rule="evenodd" d="M84.6943 0.000459821C85.4192 0.0119232 86.1246 0.237372 86.7219 0.648485C87.3191 1.0596 87.7815 1.63804 88.0511 2.31114C88.3206 2.98424 88.3852 3.72198 88.2368 4.43168C88.0883 5.14138 87.7335 5.79139 87.2168 6.30004C86.7001 6.8087 86.0446 7.15332 85.3326 7.29061C84.6207 7.4279 83.8841 7.35173 83.2153 7.07168C82.5465 6.79163 81.9754 6.32019 81.5737 5.71657C81.172 5.11296 80.9576 4.40409 80.9575 3.67904C80.9575 3.19103 81.0545 2.70788 81.243 2.25774C81.4315 1.8076 81.7077 1.39947 82.0554 1.05711C82.4032 0.714751 82.8156 0.445012 83.2687 0.263604C83.7217 0.0821956 84.2063 -0.00725577 84.6943 0.000459821Z" fill="#3E3E3E"/>
<path d="M87.5588 10.0765H81.8301V31.5373H87.5588V10.0765Z" fill="#3E3E3E"/>
<path fill-rule="evenodd" clip-rule="evenodd" d="M111.259 27.1609C110.174 28.7116 108.718 29.9659 107.024 30.8091C105.33 31.6524 103.452 32.0577 101.561 31.9882C98.5991 31.9882 95.7588 30.8117 93.6647 28.7175C91.5705 26.6234 90.394 23.7831 90.394 20.8216C90.394 17.86 91.5705 15.0197 93.6647 12.9256C95.7588 10.8315 98.5991 9.65498 101.561 9.65498C103.294 9.64896 105.006 10.0388 106.565 10.7947C108.125 11.5506 109.492 12.6527 110.561 14.0169L106.548 17.4483C105.98 16.6665 105.237 16.028 104.379 15.5837C103.521 15.1395 102.571 14.9017 101.604 14.8893C100.834 14.8893 100.072 15.0421 99.3617 15.3389C98.6513 15.6357 98.0069 16.0706 97.4658 16.6184C96.9248 17.1662 96.498 17.8159 96.21 18.53C95.922 19.244 95.7787 20.0081 95.7883 20.7779C95.7656 21.5553 95.9034 22.329 96.1931 23.0507C96.4829 23.7724 96.9184 24.4266 97.4724 24.9724C98.0264 25.5183 98.687 25.944 99.4129 26.2229C100.139 26.5019 100.915 26.6282 101.691 26.5939C102.711 26.5745 103.711 26.3061 104.603 25.8119C105.495 25.3177 106.252 24.6128 106.81 23.7586L111.259 27.1609Z" fill="#3E3E3E"/>
<path fill-rule="evenodd" clip-rule="evenodd" d="M132.065 28.135C130.965 29.3546 129.618 30.3272 128.114 30.9889C126.611 31.6505 124.984 31.9861 123.341 31.9736C121.857 32.0414 120.374 31.7997 118.988 31.2638C117.602 30.728 116.343 29.9097 115.29 28.8609C114.237 27.8121 113.414 26.5558 112.872 25.1718C112.331 23.7878 112.084 22.3063 112.146 20.8215C112.146 14.8602 116.202 9.64038 122.556 9.64038C128.459 9.64038 132.647 14.6275 132.647 20.6034C132.65 21.1538 132.606 21.7035 132.516 22.2464H117.656C117.789 23.6782 118.467 25.0044 119.549 25.9513C120.631 26.8983 122.035 27.3937 123.472 27.3354C124.49 27.3038 125.491 27.0673 126.415 26.6401C127.34 26.2129 128.168 25.6038 128.852 24.849L132.065 28.135ZM126.744 18.0444C126.602 17.0159 126.098 16.0716 125.322 15.3813C124.547 14.691 123.551 14.3 122.512 14.2786C121.428 14.2723 120.375 14.6451 119.536 15.3328C118.697 16.0204 118.125 16.9795 117.918 18.0444H126.744Z" fill="#3E3E3E"/>
<path fill-rule="evenodd" clip-rule="evenodd" d="M134.872 31.5374V10.0766H140.382V11.8068C142.081 10.3961 144.223 9.62908 146.431 9.64038C147.842 9.63632 149.236 9.94295 150.515 10.5385C151.794 11.1341 152.926 12.0039 153.832 13.0863C155.286 14.7729 156.042 16.9394 156.042 20.6034V31.5374H150.298V20.1672C150.378 19.4449 150.306 18.714 150.089 18.0207C149.871 17.3274 149.512 16.6869 149.033 16.1397C148.157 15.331 146.997 14.9023 145.806 14.9474C144.798 14.9767 143.81 15.2293 142.913 15.6869C142.015 16.1445 141.23 16.7958 140.615 17.5937V31.5374H134.872Z" fill="#3E3E3E"/>
<path fill-rule="evenodd" clip-rule="evenodd" d="M170.785 9.64039C168.272 9.63745 165.816 10.389 163.735 11.7977C161.655 13.2065 160.045 15.2074 159.114 17.5416C158.184 19.8757 157.975 22.4355 158.516 24.8893C159.057 27.3432 160.322 29.5781 162.148 31.3047C162.577 31.7138 163.138 31.9561 163.73 31.9881C164.322 32.0201 164.905 31.8396 165.376 31.4792C166.92 30.3286 168.794 29.7071 170.719 29.7071C172.645 29.7071 174.519 30.3286 176.063 31.4792C176.537 31.8388 177.124 32.0173 177.719 31.9827C178.313 31.948 178.876 31.7025 179.305 31.2902C181.119 29.5695 182.377 27.3464 182.918 24.9059C183.46 22.4654 183.26 19.9187 182.344 17.5925C181.429 15.2663 179.84 13.2666 177.78 11.8498C175.72 10.4329 173.284 9.66359 170.785 9.64039ZM170.785 28.4404C169.96 28.4624 169.139 28.3161 168.372 28.0104C167.605 27.7048 166.909 27.2461 166.325 26.6624C165.741 26.0788 165.283 25.3824 164.977 24.6156C164.671 23.8489 164.525 23.0279 164.547 22.2028C164.506 21.3574 164.638 20.5124 164.933 19.7193C165.228 18.9261 165.682 18.2011 166.266 17.5883C166.85 16.9756 167.552 16.4878 168.33 16.1544C169.108 15.8211 169.946 15.6493 170.792 15.6493C171.638 15.6493 172.476 15.8211 173.254 16.1544C174.032 16.4878 174.734 16.9756 175.318 17.5883C175.902 18.2011 176.356 18.9261 176.651 19.7193C176.946 20.5124 177.078 21.3574 177.037 22.2028C177.059 23.0292 176.912 23.8514 176.606 24.6191C176.299 25.3869 175.839 26.084 175.254 26.6679C174.669 27.2517 173.97 27.7101 173.202 28.0148C172.434 28.3196 171.611 28.4644 170.785 28.4404Z" fill="#3E3E3E"/>
<path fill-rule="evenodd" clip-rule="evenodd" d="M194.557 31.5373H190.283L181.777 10.0765H187.491L192.158 22.3482L196.738 10.0765H201.522L206.058 22.3482L210.755 10.0765H216.483L207.963 31.5373H203.703L199.123 19.3239L194.557 31.5373Z" fill="#3E3E3E"/>
<path d="M213.343 28.8184V29.2836H212.616V31.5373H212.092V29.2836H211.365V28.8184H213.343Z" fill="#3E3E3E"/>
<path d="M215.117 30.4468L216.105 28.8184H216.483V31.5373H215.96V30.0106L215.306 31.0866H214.928L214.288 30.0106V31.5373H213.75V28.8184H214.128L215.117 30.4468Z" fill="#3E3E3E"/>
</svg>
