<svg width="21" height="20" viewBox="0 0 21 20" fill="none" xmlns="http://www.w3.org/2000/svg">
<path d="M1.7998 10C1.7998 11.1819 2.0326 12.3522 2.48489 13.4442C2.93718 14.5361 3.60012 15.5282 4.43584 16.364C5.27157 17.1997 6.26372 17.8626 7.35565 18.3149C8.44758 18.7672 9.61791 19 10.7998 19C11.9817 19 13.152 18.7672 14.244 18.3149C15.3359 17.8626 16.328 17.1997 17.1638 16.364C17.9995 15.5282 18.6624 14.5361 19.1147 13.4442C19.567 12.3522 19.7998 11.1819 19.7998 10C19.7998 7.61305 18.8516 5.32387 17.1638 3.63604C15.4759 1.94821 13.1868 1 10.7998 1C8.41286 1 6.12367 1.94821 4.43584 3.63604C2.74802 5.32387 1.7998 7.61305 1.7998 10Z" stroke="#31BB46" stroke-width="2" stroke-linecap="round" stroke-linejoin="round"/>
<path d="M10.7998 5V10L13.7998 13" stroke="#31BB46" stroke-width="2" stroke-linecap="round" stroke-linejoin="round"/>
</svg>
