<svg width="41" height="40" viewBox="0 0 41 40" fill="none" xmlns="http://www.w3.org/2000/svg">
<g clip-path="url(#clip0_105_2925)">
<path d="M10.5 40.1656L30.5 40.1719V27.625C30.5 23.7875 27.4937 21.4594 23.7812 20.8187C21.3719 20.4031 19.1625 20.5562 17.0188 21.0625C13.5094 21.8969 10.5 24.075 10.5 27.625V40.1656Z" fill="#00BFA5"/>
<path d="M30.5 40.1656L10.5 40.1719V27.625C10.5 23.7875 13.5062 21.4594 17.2188 20.8187C19.6281 20.4031 21.8375 20.5562 23.9812 21.0625C27.4906 21.8969 30.5 24.075 30.5 27.625V40.1656Z" fill="#00BFA5"/>
<path d="M20.5 23.1625C19.2906 23.1625 18.3125 22.1844 18.3125 20.975V18.9688H22.6875V20.975C22.6875 22.1844 21.7094 23.1625 20.5 23.1625Z" fill="#E59900"/>
<path d="M27.0816 11.6312C27.0816 11.6312 28.2879 11.8406 28.2879 13.1406C28.2879 14.2875 27.4066 14.7406 26.5254 14.7406V11.6312H27.0816ZM13.9191 11.6312C13.9191 11.6312 12.7129 11.8406 12.7129 13.1406C12.7129 14.2875 13.5941 14.7406 14.4754 14.7406V11.6312H13.9191Z" fill="#E59600"/>
<path d="M20.5 3.11874C15.2969 3.11874 13.9375 7.14999 13.9375 12.8156C13.9375 18.6906 17.7125 20.2094 20.5 20.2094C23.2469 20.2094 27.0625 18.7344 27.0625 12.8156C27.0625 7.15312 25.7031 3.11874 20.5 3.11874Z" fill="#FCC21B"/>
<path d="M18.3371 13.3438C18.3371 13.9281 17.9465 14.4031 17.4621 14.4031C16.9777 14.4031 16.584 13.9281 16.584 13.3438C16.584 12.7563 16.9777 12.2844 17.4621 12.2844C17.9465 12.2813 18.3371 12.7563 18.3371 13.3438ZM22.659 13.3438C22.659 13.9281 23.0496 14.4031 23.5371 14.4031C24.0215 14.4031 24.4152 13.9281 24.4152 13.3438C24.4152 12.7563 24.0215 12.2844 23.5371 12.2844C23.0527 12.2813 22.659 12.7563 22.659 13.3438Z" fill="#444444"/>
<path d="M22.3998 16.9219H18.5998C18.3811 16.9219 18.2873 17.0687 18.4311 17.2875C18.6342 17.5937 19.3811 18.1844 20.4967 18.1844C21.6123 18.1844 22.3623 17.5937 22.5623 17.2875C22.7092 17.0687 22.6154 16.9219 22.3998 16.9219Z" fill="#513F35"/>
<path d="M21.4192 15.3062C21.0973 15.3969 20.7598 15.4437 20.5004 15.4437C20.241 15.4437 19.9067 15.4 19.5817 15.3062C19.4442 15.2656 19.3879 15.3969 19.4379 15.4844C19.541 15.6656 19.9535 16.0281 20.4973 16.0281C21.041 16.0281 21.4567 15.6656 21.5567 15.4844C21.6098 15.3969 21.5567 15.2656 21.4192 15.3062Z" fill="#E59600"/>
<path d="M20.6564 2.37813C20.6564 2.37813 20.5564 2.375 20.5096 2.375C20.4658 2.375 20.3627 2.37813 20.3627 2.37813C14.7533 2.4875 13.0596 5.86562 13.0596 8.20625C13.0596 10.4812 13.0627 12.1531 13.0627 12.1531C13.0627 12.1531 13.1533 12.0594 13.3158 11.9312C13.4908 11.7937 13.6877 11.7188 13.6877 11.7188L13.9721 13.6188L15.8439 9.70937C15.8564 9.68437 15.8814 9.67187 15.9064 9.675L17.0158 9.79688C18.1314 9.92188 19.2502 9.98125 20.3689 9.98438V9.9875H20.6627V9.98438C21.7814 9.98125 22.9002 9.92188 24.0158 9.79688L25.1252 9.675C25.1533 9.67187 25.1783 9.6875 25.1877 9.70937L27.0596 13.6188L27.3439 11.7188C27.3439 11.7188 27.5377 11.7969 27.7158 11.9312C27.8814 12.0594 27.9689 12.1531 27.9689 12.1531C27.9689 12.1531 27.9721 10.4812 27.9721 8.20625C27.9627 5.86562 26.2689 2.4875 20.6564 2.37813Z" fill="#6D4C41"/>
<path d="M30.4988 40.165H27.9394V30.3494H30.4988V40.165ZM10.5 30.35H13.0594V40.1656H10.5V30.35Z" fill="#FCC21B"/>
<path d="M34.8278 40.35H21.3497C21.2528 40.35 21.3497 38.1188 21.3497 38.1188C21.3497 35.0438 25.2653 34.0125 26.6247 34.0125H29.5559C30.9153 34.0125 34.8278 35.0438 34.8278 38.1188V38.2063C34.8278 38.3156 34.9216 40.35 34.8278 40.35Z" fill="#B2DFDB"/>
<path d="M28.0877 36.3437C27.699 36.3437 27.3262 36.1893 27.0513 35.9145C26.7765 35.6396 26.6221 35.2668 26.6221 34.8781V33.7531H29.5564V34.8781C29.5552 35.267 29.4 35.6395 29.1247 35.9142C28.8494 36.1889 28.4766 36.3433 28.0877 36.3437Z" fill="#E59900"/>
<path d="M28.0879 32.9344C31.6605 32.9344 34.5566 30.2075 34.5566 26.8437C34.5566 23.48 31.6605 20.7531 28.0879 20.7531C24.5153 20.7531 21.6191 23.48 21.6191 26.8437C21.6191 30.2075 24.5153 32.9344 28.0879 32.9344Z" fill="#6D4C41"/>
<path d="M33.3879 28.35C33.3879 28.35 34.3723 28.5219 34.3723 29.5813C34.3723 30.5188 33.6535 30.8875 32.9348 30.8875V28.35H33.3879ZM22.791 28.35C22.791 28.35 21.8066 28.5219 21.8066 29.5813C21.8066 30.5188 22.5254 30.8875 23.2441 30.8875V28.35H22.791Z" fill="#E59600"/>
<path d="M31.8372 25.1656C30.9403 24.05 29.3965 23.5687 28.0872 23.5687C26.7809 23.5687 25.234 24.0469 24.3372 25.1656C23.459 26.2594 22.9997 27.6687 23.0059 29.5625C23.0122 31.0906 23.4059 32.2625 24.5122 33.1875C25.5372 34.0437 26.7247 34.5062 28.009 34.5062C29.2715 34.5062 30.6653 34.0656 31.6528 33.1969C32.7372 32.2437 33.1559 31.0906 33.1622 29.5656C33.1747 27.6687 32.7122 26.2594 31.8372 25.1656Z" fill="#FCC21B"/>
<path d="M28.8315 30.7094C28.569 30.7844 28.3002 30.8188 28.0909 30.8188C27.8815 30.8188 27.6096 30.7813 27.3502 30.7094C27.2377 30.6781 27.194 30.7844 27.2346 30.8531C27.319 31 27.6502 31.2938 28.0909 31.2938C28.5315 31.2938 28.8659 31 28.9471 30.8531C28.9877 30.7844 28.9409 30.6781 28.8315 30.7094Z" fill="#E59600"/>
<path d="M29.6252 31.9156H26.5564C26.3814 31.9156 26.3033 32.0344 26.4221 32.2125C26.5846 32.4594 27.1908 32.9375 28.0939 32.9375C28.9971 32.9375 29.6002 32.4594 29.7627 32.2125C29.8752 32.0344 29.8002 31.9156 29.6252 31.9156Z" fill="#513F35"/>
<path d="M26.0564 29.6062C26.0564 30.0594 25.7533 30.425 25.3783 30.425C25.0033 30.425 24.7002 30.0594 24.7002 29.6062C24.7002 29.1531 25.0064 28.7844 25.3783 28.7844C25.7533 28.7875 26.0564 29.1531 26.0564 29.6062ZM31.4783 29.6062C31.4783 30.0594 31.1752 30.425 30.8002 30.425C30.4252 30.425 30.1221 30.0594 30.1221 29.6062C30.1221 29.1531 30.4283 28.7844 30.8002 28.7844C31.1752 28.7875 31.4783 29.1531 31.4783 29.6062Z" fill="#444444"/>
<path d="M22.7285 29.2562C22.7285 29.2562 24.2035 27.7125 24.7441 27.1937C24.7785 27.1593 24.8348 27.1875 24.8285 27.2375C24.8066 27.4531 24.791 27.6875 24.7816 27.8281C24.7785 27.8937 24.8379 27.9469 24.9035 27.9344C25.9629 27.7344 26.9816 27.2937 27.2535 27.1687C27.2879 27.1531 27.3223 27.1812 27.3223 27.2156C27.316 27.4125 27.3191 27.6 27.3223 27.7125C27.3223 27.775 27.3785 27.8219 27.441 27.8125C28.4129 27.6625 29.2223 27.2656 29.491 27.1219C29.5535 27.0875 29.6223 27.0812 29.691 27.1062C30.1941 27.2875 30.8066 27.6437 31.0285 27.775C31.0785 27.8031 31.141 27.7875 31.1691 27.7375C31.2535 27.5844 31.3723 27.35 31.4254 27.2375C31.441 27.2062 31.4816 27.2 31.5035 27.2219C32.2941 28.0031 33.4504 29.2531 33.4504 29.2531L34.266 26.6344C34.266 26.6344 32.9441 21.975 28.3535 21.975C23.7629 21.975 22.0254 26.95 22.0254 26.95L22.7285 29.2562Z" fill="#6D4C41"/>
<path d="M19.5786 40.35H6.1036C6.00673 40.35 6.1036 38.1188 6.1036 38.1188C6.1036 35.0438 10.0192 34.0125 11.3786 34.0125H14.3099C15.6692 34.0125 19.5817 35.0438 19.5817 38.1188V38.2063C19.5786 38.3156 19.6755 40.35 19.5786 40.35Z" fill="#B2DFDB"/>
<path d="M12.8406 36.3437C12.4519 36.3437 12.0791 36.1893 11.8043 35.9145C11.5294 35.6396 11.375 35.2668 11.375 34.8781V33.7531H14.3094V34.8781C14.3081 35.267 14.1529 35.6395 13.8776 35.9142C13.6024 36.1889 13.2295 36.3433 12.8406 36.3437Z" fill="#E59900"/>
<path d="M12.8408 32.9344C16.4134 32.9344 19.3096 30.2075 19.3096 26.8437C19.3096 23.48 16.4134 20.7531 12.8408 20.7531C9.26823 20.7531 6.37207 23.48 6.37207 26.8437C6.37207 30.2075 9.26823 32.9344 12.8408 32.9344Z" fill="#6D4C41"/>
<path d="M18.1377 28.35C18.1377 28.35 19.1221 28.5219 19.1221 29.5813C19.1221 30.5188 18.4033 30.8875 17.6846 30.8875V28.35H18.1377ZM7.54395 28.35C7.54395 28.35 6.55957 28.5219 6.55957 29.5813C6.55957 30.5188 7.27832 30.8875 7.99707 30.8875V28.35H7.54395Z" fill="#E59600"/>
<path d="M16.5911 25.1656C15.6942 24.05 14.1505 23.5687 12.8411 23.5687C11.5348 23.5687 9.98795 24.0469 9.09108 25.1656C8.21295 26.2594 7.75358 27.6687 7.75983 29.5625C7.76608 31.0906 8.15983 32.2625 9.26608 33.1875C10.2911 34.0437 11.4786 34.5062 12.763 34.5062C14.0255 34.5062 15.4192 34.0656 16.4067 33.1969C17.4911 32.2437 17.9098 31.0906 17.9161 29.5656C17.9286 27.6687 17.4661 26.2594 16.5911 25.1656Z" fill="#FCC21B"/>
<path d="M13.5815 30.7094C13.319 30.7844 13.0502 30.8188 12.8409 30.8188C12.6315 30.8188 12.3596 30.7813 12.1002 30.7094C11.9877 30.6781 11.944 30.7844 11.9846 30.8531C12.069 31 12.4002 31.2938 12.8409 31.2938C13.2815 31.2938 13.6159 31 13.6971 30.8531C13.7377 30.7844 13.694 30.6781 13.5815 30.7094Z" fill="#E59600"/>
<path d="M14.3752 31.9156H11.3064C11.1314 31.9156 11.0533 32.0344 11.1721 32.2125C11.3346 32.4594 11.9408 32.9375 12.8408 32.9375C13.7439 32.9375 14.3471 32.4594 14.5096 32.2125C14.6283 32.0344 14.5533 31.9156 14.3752 31.9156Z" fill="#513F35"/>
<path d="M10.8094 29.6062C10.8094 30.0594 10.5063 30.425 10.1313 30.425C9.75625 30.425 9.45312 30.0594 9.45312 29.6062C9.45312 29.1531 9.75938 28.7844 10.1313 28.7844C10.5063 28.7875 10.8094 29.1531 10.8094 29.6062ZM16.2313 29.6062C16.2313 30.0594 15.9281 30.425 15.5531 30.425C15.1781 30.425 14.875 30.0594 14.875 29.6062C14.875 29.1531 15.1812 28.7844 15.5531 28.7844C15.9281 28.7875 16.2313 29.1531 16.2313 29.6062Z" fill="#444444"/>
<path d="M7.48164 29.2562C7.48164 29.2562 8.95664 27.7125 9.49727 27.1937C9.53164 27.1593 9.58789 27.1875 9.58164 27.2375C9.55977 27.4531 9.54414 27.6875 9.53477 27.8281C9.53164 27.8937 9.59102 27.9469 9.65664 27.9344C10.716 27.7344 11.7348 27.2937 12.0066 27.1687C12.041 27.1531 12.0754 27.1812 12.0754 27.2156C12.0691 27.4125 12.0723 27.6 12.0754 27.7125C12.0754 27.775 12.1316 27.8219 12.1941 27.8125C13.166 27.6625 13.9754 27.2656 14.2441 27.1219C14.3066 27.0875 14.3754 27.0812 14.4441 27.1062C14.9473 27.2875 15.5598 27.6437 15.7816 27.775C15.8316 27.8031 15.8941 27.7875 15.9223 27.7375C16.0066 27.5844 16.1254 27.35 16.1785 27.2375C16.1941 27.2062 16.2348 27.2 16.2566 27.2219C17.0473 28.0031 18.2035 29.2531 18.2035 29.2531L19.0191 26.6344C19.0191 26.6344 17.6973 21.975 13.1066 21.975C8.51602 21.975 6.77539 26.95 6.77539 26.95L7.48164 29.2562Z" fill="#6D4C41"/>
</g>
<defs>
<clipPath id="clip0_105_2925">
<rect width="40" height="40" fill="white" transform="translate(0.5)"/>
</clipPath>
</defs>
</svg>
