<svg width="20" height="20" viewBox="0 0 20 20" fill="none" xmlns="http://www.w3.org/2000/svg">
<path d="M10 0.250061C8.07164 0.250061 6.18657 0.821889 4.58319 1.89323C2.97982 2.96458 1.73013 4.48732 0.992179 6.2689C0.254225 8.05048 0.061142 10.0109 0.437348 11.9022C0.813554 13.7935 1.74215 15.5308 3.10571 16.8944C4.46928 18.2579 6.20656 19.1865 8.09787 19.5627C9.98919 19.9389 11.9496 19.7458 13.7312 19.0079C15.5127 18.2699 17.0355 17.0203 18.1068 15.4169C19.1782 13.8135 19.75 11.9284 19.75 10.0001C19.7473 7.41504 18.7192 4.93667 16.8913 3.10878C15.0634 1.2809 12.585 0.252791 10 0.250061ZM10 18.2501C8.36831 18.2501 6.77326 17.7662 5.41655 16.8597C4.05984 15.9532 3.00242 14.6647 2.378 13.1572C1.75358 11.6497 1.5902 9.99091 1.90853 8.39057C2.22685 6.79022 3.01259 5.32021 4.16637 4.16643C5.32016 3.01265 6.79017 2.22691 8.39051 1.90858C9.99085 1.59025 11.6497 1.75363 13.1571 2.37805C14.6646 3.00248 15.9531 4.0599 16.8596 5.41661C17.7661 6.77331 18.25 8.36837 18.25 10.0001C18.2475 12.1873 17.3775 14.2843 15.8309 15.831C14.2843 17.3776 12.1873 18.2476 10 18.2501ZM16 10.0001C16 11.1867 15.6481 12.3468 14.9888 13.3335C14.3295 14.3202 13.3925 15.0892 12.2961 15.5433C11.1997 15.9975 9.99335 16.1163 8.82946 15.8848C7.66558 15.6533 6.59648 15.0818 5.75736 14.2427C4.91825 13.4036 4.3468 12.3345 4.11529 11.1706C3.88378 10.0067 4.0026 8.80032 4.45673 7.70396C4.91085 6.6076 5.67989 5.67053 6.66658 5.01124C7.65328 4.35195 8.81332 4.00006 10 4.00006C11.5908 4.0018 13.1159 4.6345 14.2407 5.75934C15.3656 6.88418 15.9983 8.4093 16 10.0001Z" fill="#0D4261"/>
</svg>
