<svg width="16" height="16" viewBox="0 0 16 16" fill="none" xmlns="http://www.w3.org/2000/svg">
<path d="M0.81875 1.38827C0.767882 1.43216 0.727046 1.48648 0.699009 1.54755C0.670972 1.60861 0.656389 1.67498 0.65625 1.74217V14.875C0.65625 14.9993 0.705636 15.1185 0.793544 15.2064C0.881451 15.2943 1.00068 15.3437 1.125 15.3437C1.24932 15.3437 1.36855 15.2943 1.45646 15.2064C1.54436 15.1185 1.59375 14.9993 1.59375 14.875V11.3422C3.7875 9.5617 5.64687 10.4828 7.79219 11.543C9.05156 12.168 10.4086 12.8383 11.8547 12.8383C12.9148 12.8383 14.0234 12.4789 15.1797 11.4773C15.2306 11.4337 15.2717 11.3797 15.3 11.319C15.3283 11.2582 15.3432 11.192 15.3438 11.125V1.74217C15.3438 1.65226 15.3181 1.56422 15.2695 1.48855C15.221 1.41288 15.1517 1.35276 15.0699 1.31538C14.9881 1.27799 14.8973 1.26491 14.8083 1.2777C14.7193 1.29048 14.6359 1.32859 14.568 1.38749C12.3023 3.34999 10.4055 2.41014 8.20781 1.32186C6.02891 0.242954 3.54688 -0.97189 0.81875 1.38827ZM14.4062 10.9039C12.2125 12.6851 10.3531 11.7633 8.20781 10.7023C6.23438 9.72499 4.02266 8.63045 1.59375 10.1875V1.96249C3.7875 0.181235 5.64687 1.10311 7.79219 2.16249C9.76562 3.13983 11.9773 4.23436 14.4062 2.68045V10.9039Z" fill="#0D4261"/>
</svg>
