<svg width="17" height="16" viewBox="0 0 17 16" fill="none" xmlns="http://www.w3.org/2000/svg">
<g clip-path="url(#clip0_104_2534)">
<path opacity="0.6" d="M8.33294 6.20543C6.85909 6.20543 5.66535 7.36138 5.66535 8.78857C5.66535 10.2157 6.85909 11.3717 8.33294 11.3717C9.80678 11.3717 11.0005 10.2157 11.0005 8.78857C11.0005 7.36138 9.80678 6.20543 8.33294 6.20543ZM14.295 8.14278C14.1439 6.83321 13.5375 5.6123 12.5753 4.68053C11.613 3.74877 10.3522 3.16153 8.99983 3.01525V1.68494H7.66604V3.01525C6.31365 3.16153 5.05283 3.74877 4.0906 4.68053C3.12837 5.6123 2.52194 6.83321 2.37088 8.14278H0.99707V9.43435H2.37088C2.52194 10.7439 3.12837 11.9648 4.0906 12.8966C5.05283 13.8284 6.31365 14.4156 7.66604 14.5619V15.8922H8.99983V14.5619C10.3522 14.4156 11.613 13.8284 12.5753 12.8966C13.5375 11.9648 14.1439 10.7439 14.295 9.43435H15.6688V8.14278H14.295ZM8.33294 13.3091C5.75205 13.3091 3.66466 11.2878 3.66466 8.78857C3.66466 6.28938 5.75205 4.26807 8.33294 4.26807C10.9138 4.26807 13.0012 6.28938 13.0012 8.78857C13.0012 11.2878 10.9138 13.3091 8.33294 13.3091Z" fill="#12283E"/>
</g>
<defs>
<clipPath id="clip0_104_2534">
<rect width="16.0055" height="14.6898" fill="white" transform="translate(0.333984 0.568756)"/>
</clipPath>
</defs>
</svg>
