<svg width="20" height="20" viewBox="0 0 20 20" fill="none" xmlns="http://www.w3.org/2000/svg">
<path d="M11.875 13.125H8.125C7.62772 13.125 7.15081 13.3225 6.79917 13.6742C6.44754 14.0258 6.25 14.5027 6.25 15V16.25H7.5V15C7.5 14.8342 7.56585 14.6753 7.68306 14.5581C7.80027 14.4408 7.95924 14.375 8.125 14.375H11.875C12.0408 14.375 12.1997 14.4408 12.3169 14.5581C12.4342 14.6753 12.5 14.8342 12.5 15V16.25H13.75V15C13.75 14.5027 13.5525 14.0258 13.2008 13.6742C12.8492 13.3225 12.3723 13.125 11.875 13.125ZM10 12.5C10.4945 12.5 10.9778 12.3534 11.3889 12.0787C11.8 11.804 12.1205 11.4135 12.3097 10.9567C12.4989 10.4999 12.5484 9.99723 12.452 9.51228C12.3555 9.02732 12.1174 8.58187 11.7678 8.23223C11.4181 7.8826 10.9727 7.6445 10.4877 7.54804C10.0028 7.45157 9.50011 7.50108 9.04329 7.6903C8.58648 7.87952 8.19603 8.19995 7.92133 8.61108C7.64662 9.0222 7.5 9.50555 7.5 10C7.5 10.663 7.76339 11.2989 8.23223 11.7678C8.70107 12.2366 9.33696 12.5 10 12.5ZM10 8.75C10.2472 8.75 10.4889 8.82331 10.6945 8.96066C10.9 9.09802 11.0602 9.29324 11.1548 9.52165C11.2495 9.75005 11.2742 10.0014 11.226 10.2439C11.1778 10.4863 11.0587 10.7091 10.8839 10.8839C10.7091 11.0587 10.4863 11.1778 10.2439 11.226C10.0014 11.2742 9.75005 11.2495 9.52165 11.1549C9.29324 11.0602 9.09801 10.9 8.96066 10.6945C8.82331 10.4889 8.75 10.2472 8.75 10C8.75 9.66848 8.8817 9.35054 9.11612 9.11612C9.35054 8.8817 9.66848 8.75 10 8.75Z" fill="#0D4261"/>
<path d="M15.625 3.125H13.75V2.5C13.75 2.16848 13.6183 1.85054 13.3839 1.61612C13.1495 1.3817 12.8315 1.25 12.5 1.25H7.5C7.16848 1.25 6.85054 1.3817 6.61612 1.61612C6.3817 1.85054 6.25 2.16848 6.25 2.5V3.125H4.375C4.04348 3.125 3.72554 3.2567 3.49112 3.49112C3.2567 3.72554 3.125 4.04348 3.125 4.375V17.5C3.125 17.8315 3.2567 18.1495 3.49112 18.3839C3.72554 18.6183 4.04348 18.75 4.375 18.75H15.625C15.9565 18.75 16.2745 18.6183 16.5089 18.3839C16.7433 18.1495 16.875 17.8315 16.875 17.5V4.375C16.875 4.04348 16.7433 3.72554 16.5089 3.49112C16.2745 3.2567 15.9565 3.125 15.625 3.125ZM7.5 2.5H12.5V5H7.5V2.5ZM15.625 17.5H4.375V4.375H6.25V6.25H13.75V4.375H15.625V17.5Z" fill="#0D4261"/>
</svg>
