<svg width="18" height="18" viewBox="0 0 18 18" fill="none" xmlns="http://www.w3.org/2000/svg">
<path d="M0.666992 9.00008C0.666992 13.6026 4.39783 17.3334 9.00033 17.3334C13.6028 17.3334 17.3337 13.6026 17.3337 9.00008C17.3337 4.39758 13.6028 0.666748 9.00033 0.666748C4.39783 0.666748 0.666992 4.39758 0.666992 9.00008Z" stroke="#0D4261" stroke-linecap="round" stroke-linejoin="round"/>
<path d="M9.83405 0.708435C9.83405 0.708435 12.334 4.0001 12.334 9.0001C12.334 14.0001 9.83405 17.2918 9.83405 17.2918M8.16738 17.2918C8.16738 17.2918 5.66738 14.0001 5.66738 9.0001C5.66738 4.0001 8.16738 0.708435 8.16738 0.708435M1.19238 11.9168H16.8091M1.19238 6.08343H16.8091" stroke="#0D4261" stroke-linecap="round" stroke-linejoin="round"/>
</svg>
