<svg width="103" height="40" viewBox="0 0 103 40" fill="none" xmlns="http://www.w3.org/2000/svg">
<path d="M23.7651 6.79995L3.2002 18.8V11.6L17.6002 3.19995L23.7651 6.79995Z" fill="white"/>
<path d="M32.0002 11.6V15.7538L6.76214 30.4769L3.2002 28.3999V24.4923L28.6361 9.6461L32.0002 11.6Z" fill="white"/>
<path d="M11.6332 33.323L32.0002 21.4461V28.3999L17.6002 36.7999L11.6332 33.323Z" fill="white"/>
<path d="M42 25.827V13.173H44.3758V23.9054H50.152V25.827H42Z" fill="white"/>
<path d="M63.4222 19.5C63.4222 20.8634 63.1575 22.0312 62.6281 23.0033C62.103 23.9713 61.3858 24.7128 60.4765 25.2277C59.5714 25.7426 58.5447 26 57.3962 26C56.2478 26 55.219 25.7426 54.3096 25.2277C53.4046 24.7087 52.6873 23.9651 52.158 22.9971C51.6329 22.025 51.3703 20.8593 51.3703 19.5C51.3703 18.1366 51.6329 16.9708 52.158 16.0029C52.6873 15.0307 53.4046 14.2872 54.3096 13.7723C55.219 13.2574 56.2478 13 57.3962 13C58.5447 13 59.5714 13.2574 60.4765 13.7723C61.3858 14.2872 62.103 15.0307 62.6281 16.0029C63.1575 16.9708 63.4222 18.1366 63.4222 19.5ZM61.0336 19.5C61.0336 18.5402 60.8778 17.7308 60.5661 17.0718C60.2587 16.4086 59.8318 15.9081 59.2854 15.5703C58.7389 15.2285 58.1092 15.0575 57.3962 15.0575C56.6833 15.0575 56.0536 15.2285 55.5071 15.5703C54.9607 15.9081 54.5316 16.4086 54.22 17.0718C53.9126 17.7308 53.7589 18.5402 53.7589 19.5C53.7589 20.4598 53.9126 21.2712 54.22 21.9344C54.5316 22.5935 54.9607 23.0939 55.5071 23.4358C56.0536 23.7736 56.6833 23.9425 57.3962 23.9425C58.1092 23.9425 58.7389 23.7736 59.2854 23.4358C59.8318 23.0939 60.2587 22.5935 60.5661 21.9344C60.8778 21.2712 61.0336 20.4598 61.0336 19.5Z" fill="white"/>
<path d="M74.4543 17.2139C74.3475 16.8802 74.2003 16.5816 74.0124 16.318C73.8288 16.0502 73.6068 15.8216 73.3464 15.6321C73.0903 15.4426 72.7957 15.3005 72.4627 15.2058C72.1297 15.1069 71.7668 15.0575 71.3741 15.0575C70.6696 15.0575 70.0421 15.2285 69.4914 15.5703C68.9406 15.9122 68.5073 16.4148 68.1914 17.0779C67.8797 17.737 67.7239 18.5402 67.7239 19.4876C67.7239 20.4433 67.8797 21.2527 68.1914 21.9159C68.503 22.5791 68.9364 23.0836 69.4914 23.4297C70.0463 23.7715 70.691 23.9425 71.4253 23.9425C72.0913 23.9425 72.6676 23.8189 73.1543 23.5718C73.6453 23.3246 74.0231 22.9745 74.2878 22.5214C74.5525 22.0642 74.6848 21.5287 74.6848 20.9149L75.2227 20.9952H71.6622V19.2034H76.9838V20.7234C76.9838 21.8067 76.7447 22.7438 76.2665 23.5347C75.7884 24.3256 75.1309 24.9352 74.2942 25.3636C73.4574 25.7879 72.4969 26 71.4125 26C70.2043 26 69.1434 25.7384 68.2298 25.2153C67.3205 24.6881 66.6097 23.9404 66.0974 22.9724C65.5893 22.0003 65.3353 20.847 65.3353 19.5124C65.3353 18.4908 65.4847 17.5784 65.7836 16.7752C66.0867 15.972 66.5093 15.2902 67.0515 14.73C67.5937 14.1657 68.2298 13.7373 68.9598 13.4449C69.6899 13.1483 70.4839 13 71.342 13C72.0678 13 72.7445 13.103 73.372 13.3089C73.9996 13.5108 74.5567 13.7991 75.0434 14.174C75.5344 14.5488 75.9378 14.9937 76.2537 15.5086C76.5696 16.0234 76.7767 16.5919 76.8749 17.2139H74.4543Z" fill="white"/>
<path d="M91 19.5C91 20.8634 90.7353 22.0312 90.2059 23.0033C89.6808 23.9713 88.9636 24.7128 88.0543 25.2277C87.1492 25.7426 86.1225 26 84.9741 26C83.8256 26 82.7968 25.7426 81.8874 25.2277C80.9824 24.7087 80.2652 23.9651 79.7358 22.9971C79.2107 22.025 78.9481 20.8593 78.9481 19.5C78.9481 18.1366 79.2107 16.9708 79.7358 16.0029C80.2652 15.0307 80.9824 14.2872 81.8874 13.7723C82.7968 13.2574 83.8256 13 84.9741 13C86.1225 13 87.1492 13.2574 88.0543 13.7723C88.9636 14.2872 89.6808 15.0307 90.2059 16.0029C90.7353 16.9708 91 18.1366 91 19.5ZM88.6114 19.5C88.6114 18.5402 88.4556 17.7308 88.1439 17.0718C87.8365 16.4086 87.4096 15.9081 86.8632 15.5703C86.3167 15.2285 85.687 15.0575 84.9741 15.0575C84.2611 15.0575 83.6314 15.2285 83.0849 15.5703C82.5385 15.9081 82.1094 16.4086 81.7978 17.0718C81.4904 17.7308 81.3367 18.5402 81.3367 19.5C81.3367 20.4598 81.4904 21.2712 81.7978 21.9344C82.1094 22.5935 82.5385 23.0939 83.0849 23.4358C83.6314 23.7736 84.2611 23.9425 84.9741 23.9425C85.687 23.9425 86.3167 23.7736 86.8632 23.4358C87.4096 23.0939 87.8365 22.5935 88.1439 21.9344C88.4556 21.2712 88.6114 20.4598 88.6114 19.5Z" fill="white"/>
</svg>
