<svg width="25" height="25" viewBox="0 0 25 25" fill="none" xmlns="http://www.w3.org/2000/svg">
<path d="M22.3065 17.3908V20.3454C22.3076 20.6196 22.2514 20.8911 22.1416 21.1424C22.0317 21.3938 21.8705 21.6193 21.6684 21.8048C21.4663 21.9902 21.2277 22.1314 20.9678 22.2192C20.708 22.3071 20.4327 22.3397 20.1595 22.3151C17.129 21.9858 14.2179 20.9502 11.6603 19.2916C9.28073 17.7795 7.26328 15.762 5.7512 13.3825C4.08679 10.8132 3.05099 7.888 2.72772 4.84384C2.70311 4.5715 2.73548 4.29702 2.82276 4.03787C2.91004 3.77872 3.05033 3.54058 3.23469 3.33862C3.41905 3.13666 3.64344 2.9753 3.89357 2.86481C4.14371 2.75432 4.41412 2.69713 4.68757 2.69687H7.64211C8.12007 2.69217 8.58342 2.86142 8.94582 3.17308C9.30821 3.48474 9.54492 3.91754 9.61181 4.39081C9.73651 5.33633 9.96778 6.26471 10.3012 7.15824C10.4337 7.51074 10.4624 7.89383 10.3838 8.26213C10.3053 8.63043 10.1228 8.9685 9.85802 9.23627L8.60727 10.487C10.0093 12.9526 12.0507 14.9941 14.5164 16.3961L15.7671 15.1454C16.0349 14.8806 16.3729 14.6981 16.7412 14.6195C17.1095 14.541 17.4926 14.5697 17.8451 14.7022C18.7387 15.0356 19.667 15.2669 20.6126 15.3916C21.091 15.4591 21.5279 15.7 21.8402 16.0686C22.1525 16.4373 22.3185 16.9078 22.3065 17.3908Z" stroke="#8A1538" stroke-width="1.7" stroke-linecap="round" stroke-linejoin="round"/>
</svg>
