<svg width="54" height="26" viewBox="0 0 54 26" fill="none" xmlns="http://www.w3.org/2000/svg">
<path d="M53.7795 23.5462L47.5991 12.7888L53.7165 2.47C53.8617 2.22411 53.941 1.94286 53.9461 1.65503C53.9513 1.3672 53.8822 1.08312 53.7459 0.831858C53.6095 0.580597 53.4109 0.371173 53.1703 0.225012C52.9296 0.0788501 52.6556 0.00119786 52.3763 0H3.1533C2.31699 0 1.51494 0.34241 0.92358 0.951904C0.332222 1.5614 0 2.38805 0 3.25L0 22.75C0 23.612 0.332222 24.4386 0.92358 25.0481C1.51494 25.6576 2.31699 26 3.1533 26H52.4236C52.7019 26 52.9752 25.924 53.2158 25.7798C53.4564 25.6357 53.6557 25.4284 53.7934 25.1792C53.9311 24.93 54.0024 24.6476 53.9999 24.3608C53.9975 24.074 53.9215 23.793 53.7795 23.5462ZM16.5706 18.1675H14.8047L9.66487 11.115V18.1838H7.88325V8.125H9.66487L14.8205 15.1937V8.125H16.5864L16.5706 18.1675ZM26.5508 9.75H20.9852V12.1712H26.0305V13.7962H20.9852V16.4125H26.5508V18.0375H19.2036V8.125H26.535L26.5508 9.75ZM39.6212 18.135H37.8396L35.3958 10.6762L32.952 18.1675H31.1861L28.0328 8.125H29.9564L32.0375 15.3238L34.434 8.125H36.3576L38.6595 15.3238L40.7564 8.125H42.6957L39.6212 18.135Z" fill="#0D4261"/>
</svg>
