<svg width="312" height="225" viewBox="0 0 312 225" fill="none" xmlns="http://www.w3.org/2000/svg">
<rect y="6.10352e-05" width="312" height="225" rx="6" fill="#F2F2F2"/>
<path d="M207.124 55.7813H106.93C103.91 55.7813 101.014 57.1147 98.8787 59.4882C96.7435 61.8617 95.5439 65.0809 95.5439 68.4376V134.25C95.5439 137.607 96.7435 140.826 98.8787 143.199C101.014 145.573 103.91 146.906 106.93 146.906H207.124C210.143 146.906 213.039 145.573 215.175 143.199C217.31 140.826 218.509 137.607 218.509 134.25V68.4376C218.509 65.0809 217.31 61.8617 215.175 59.4882C213.039 57.1147 210.143 55.7813 207.124 55.7813ZM204.847 131.719H109.207V70.9688H204.847V131.719ZM218.509 164.625C218.509 166.639 217.79 168.571 216.509 169.995C215.227 171.419 213.49 172.219 211.678 172.219H102.375C100.564 172.219 98.826 171.419 97.5448 169.995C96.2637 168.571 95.5439 166.639 95.5439 164.625C95.5439 162.611 96.2637 160.68 97.5448 159.255C98.826 157.831 100.564 157.031 102.375 157.031H211.678C213.49 157.031 215.227 157.831 216.509 159.255C217.79 160.68 218.509 162.611 218.509 164.625ZM143.364 114V88.6876C143.363 87.3318 143.69 86.0007 144.308 84.8324C144.927 83.6641 145.816 82.7012 146.883 82.0438C147.949 81.3864 149.155 81.0584 150.374 81.0939C151.593 81.1293 152.782 81.527 153.816 82.2455L172.033 94.9018C173.017 95.5841 173.828 96.5335 174.39 97.6605C174.952 98.7875 175.247 100.055 175.247 101.344C175.247 102.633 174.952 103.9 174.39 105.027C173.828 106.154 173.017 107.103 172.033 107.786L153.816 120.442C152.782 121.161 151.593 121.558 150.374 121.594C149.155 121.629 147.949 121.301 146.883 120.644C145.816 119.986 144.927 119.024 144.308 117.855C143.69 116.687 143.363 115.356 143.364 114Z" fill="black"/>
</svg>
