<svg width="124" height="118" viewBox="0 0 124 118" fill="none" xmlns="http://www.w3.org/2000/svg">
<path d="M112.124 0.781311H11.9296C8.90996 0.781311 6.01397 2.11473 3.87874 4.48824C1.74351 6.86175 0.543945 10.0809 0.543945 13.4376V79.2501C0.543945 82.6067 1.74351 85.8259 3.87874 88.1994C6.01397 90.5729 8.90996 91.9063 11.9296 91.9063H112.124C115.143 91.9063 118.039 90.5729 120.175 88.1994C122.31 85.8259 123.509 82.6067 123.509 79.2501V13.4376C123.509 10.0809 122.31 6.86175 120.175 4.48824C118.039 2.11473 115.143 0.781311 112.124 0.781311ZM109.847 76.7188H14.2068V15.9688H109.847V76.7188ZM123.509 109.625C123.509 111.639 122.79 113.571 121.509 114.995C120.227 116.419 118.49 117.219 116.678 117.219H7.37536C5.56356 117.219 3.82596 116.419 2.54482 114.995C1.26368 113.571 0.543945 111.639 0.543945 109.625C0.543945 107.611 1.26368 105.68 2.54482 104.255C3.82596 102.831 5.56356 102.031 7.37536 102.031H116.678C118.49 102.031 120.227 102.831 121.509 104.255C122.79 105.68 123.509 107.611 123.509 109.625ZM48.3638 59.0001V33.6876C48.3634 32.3318 48.6895 31.0007 49.3083 29.8324C49.9271 28.6641 50.816 27.7012 51.8826 27.0438C52.9493 26.3864 54.1548 26.0584 55.374 26.0939C56.5932 26.1293 57.7817 26.527 58.8159 27.2455L77.033 39.9018C78.0166 40.5841 78.8277 41.5335 79.39 42.6605C79.9524 43.7875 80.2475 45.0551 80.2475 46.3438C80.2475 47.6326 79.9524 48.9001 79.39 50.0271C78.8277 51.1541 78.0166 52.1035 77.033 52.7858L58.8159 65.4421C57.7817 66.1606 56.5932 66.5583 55.374 66.5938C54.1548 66.6292 52.9493 66.3012 51.8826 65.6438C50.816 64.9864 49.9271 64.0235 49.3083 62.8552C48.6895 61.6869 48.3634 60.3558 48.3638 59.0001Z" fill="black"/>
</svg>
