<svg width="17" height="16" viewBox="0 0 17 16" fill="none" xmlns="http://www.w3.org/2000/svg">
<path d="M7.86722 2.45761H8.805C8.88836 2.45761 8.93004 2.49797 8.93004 2.57869V13.2336C8.93004 13.3143 8.88836 13.3546 8.805 13.3546H7.86722C7.78387 13.3546 7.74219 13.3143 7.74219 13.2336V2.57869C7.74219 2.49797 7.78387 2.45761 7.86722 2.45761Z" fill="#12283E"/>
<path d="M3.08304 7.33142H13.5861C13.6695 7.33142 13.7112 7.37187 13.7112 7.45276V8.3628C13.7112 8.44369 13.6695 8.48414 13.5861 8.48414H3.08304C2.99969 8.48414 2.95801 8.44369 2.95801 8.3628V7.45276C2.95801 7.37187 2.99969 7.33142 3.08304 7.33142Z" fill="#12283E"/>
</svg>
