<svg width="208" height="74" viewBox="0 0 208 74" fill="none" xmlns="http://www.w3.org/2000/svg">
<path d="M44.9857 7.92857L0 34.3571V18.5L31.5 0L44.9857 7.92857Z" fill="white"/>
<path d="M63 18.5V27.6483L7.79176 60.0742L0 55.5V46.8938L55.6411 14.1969L63 18.5Z" fill="white"/>
<path d="M18.4471 66.3425L63 40.185V55.5L31.5 74L18.4471 66.3425Z" fill="white"/>
<path d="M86.3366 41.2045H90.6321L93.1761 44.5028L94.9915 46.6506L99.3509 52.25H94.7486L91.7827 48.4915L90.517 46.7017L86.3366 41.2045ZM99.9773 36.9091C99.9773 39.7301 99.4489 42.1463 98.392 44.1577C97.3438 46.1605 95.9119 47.6946 94.0966 48.7599C92.2898 49.8253 90.2401 50.358 87.9474 50.358C85.6548 50.358 83.6009 49.8253 81.7855 48.7599C79.9787 47.6861 78.5469 46.1477 77.4901 44.1449C76.4418 42.1335 75.9176 39.7216 75.9176 36.9091C75.9176 34.0881 76.4418 31.6761 77.4901 29.6733C78.5469 27.6619 79.9787 26.1236 81.7855 25.0582C83.6009 23.9929 85.6548 23.4602 87.9474 23.4602C90.2401 23.4602 92.2898 23.9929 94.0966 25.0582C95.9119 26.1236 97.3438 27.6619 98.392 29.6733C99.4489 31.6761 99.9773 34.0881 99.9773 36.9091ZM95.2088 36.9091C95.2088 34.9233 94.8977 33.2486 94.2756 31.8849C93.6619 30.5128 92.8097 29.4773 91.7188 28.7784C90.6278 28.071 89.3707 27.7173 87.9474 27.7173C86.5241 27.7173 85.267 28.071 84.1761 28.7784C83.0852 29.4773 82.2287 30.5128 81.6065 31.8849C80.9929 33.2486 80.6861 34.9233 80.6861 36.9091C80.6861 38.8949 80.9929 40.5739 81.6065 41.946C82.2287 43.3097 83.0852 44.3452 84.1761 45.0526C85.267 45.7514 86.5241 46.1009 87.9474 46.1009C89.3707 46.1009 90.6278 45.7514 91.7188 45.0526C92.8097 44.3452 93.6619 43.3097 94.2756 41.946C94.8977 40.5739 95.2088 38.8949 95.2088 36.9091ZM104.292 50V30.3636H108.715V33.7003H108.945C109.354 32.5753 110.032 31.6974 110.978 31.0668C111.924 30.4276 113.053 30.108 114.366 30.108C115.695 30.108 116.816 30.4318 117.728 31.0795C118.648 31.7187 119.296 32.5923 119.671 33.7003H119.876C120.31 32.6094 121.043 31.7401 122.075 31.0923C123.114 30.4361 124.346 30.108 125.769 30.108C127.576 30.108 129.05 30.679 130.192 31.821C131.335 32.9631 131.906 34.6293 131.906 36.8196V50H127.265V37.5355C127.265 36.3168 126.941 35.4261 126.293 34.8636C125.646 34.2926 124.853 34.0071 123.915 34.0071C122.799 34.0071 121.925 34.3565 121.295 35.0554C120.673 35.7457 120.362 36.6449 120.362 37.7528V50H115.823V37.3438C115.823 36.3295 115.516 35.5199 114.903 34.9148C114.298 34.3097 113.505 34.0071 112.525 34.0071C111.86 34.0071 111.255 34.1776 110.71 34.5185C110.164 34.8509 109.729 35.3239 109.406 35.9375C109.082 36.5426 108.92 37.25 108.92 38.0597V50H104.292ZM142.251 50.3963C141.007 50.3963 139.886 50.1747 138.889 49.7315C137.9 49.2798 137.116 48.6151 136.537 47.7372C135.966 46.8594 135.68 45.777 135.68 44.4901C135.68 43.3821 135.885 42.4659 136.294 41.7415C136.703 41.017 137.261 40.4375 137.968 40.0028C138.676 39.5682 139.473 39.2401 140.359 39.0185C141.254 38.7884 142.179 38.6222 143.133 38.5199C144.284 38.4006 145.217 38.294 145.933 38.2003C146.649 38.098 147.169 37.9446 147.493 37.7401C147.825 37.527 147.991 37.1989 147.991 36.7557V36.679C147.991 35.7159 147.706 34.9702 147.135 34.4418C146.564 33.9134 145.741 33.6491 144.667 33.6491C143.534 33.6491 142.635 33.8963 141.97 34.3906C141.314 34.8849 140.87 35.4687 140.64 36.142L136.319 35.5284C136.66 34.3352 137.223 33.3381 138.007 32.5369C138.791 31.7273 139.75 31.1222 140.883 30.7216C142.017 30.3125 143.27 30.108 144.642 30.108C145.588 30.108 146.529 30.2188 147.467 30.4403C148.404 30.6619 149.261 31.0284 150.037 31.5398C150.812 32.0426 151.434 32.7287 151.903 33.598C152.38 34.4673 152.619 35.554 152.619 36.858V50H148.17V47.3026H148.017C147.735 47.848 147.339 48.3594 146.828 48.8366C146.325 49.3054 145.69 49.6847 144.923 49.9744C144.164 50.2557 143.274 50.3963 142.251 50.3963ZM143.453 46.9957C144.382 46.9957 145.187 46.8125 145.869 46.446C146.551 46.071 147.075 45.5767 147.441 44.9631C147.816 44.3494 148.004 43.6804 148.004 42.956V40.642C147.859 40.7614 147.612 40.8722 147.262 40.9744C146.922 41.0767 146.538 41.1662 146.112 41.2429C145.686 41.3196 145.264 41.3878 144.846 41.4474C144.429 41.5071 144.066 41.5582 143.76 41.6009C143.069 41.6946 142.451 41.848 141.906 42.0611C141.36 42.2741 140.93 42.5724 140.615 42.956C140.299 43.331 140.142 43.8168 140.142 44.4134C140.142 45.2656 140.453 45.9091 141.075 46.3438C141.697 46.7784 142.49 46.9957 143.453 46.9957ZM157.272 50V30.3636H161.9V50H157.272ZM159.599 27.5767C158.866 27.5767 158.235 27.3338 157.707 26.848C157.179 26.3537 156.914 25.7614 156.914 25.071C156.914 24.3722 157.179 23.7798 157.707 23.294C158.235 22.7997 158.866 22.5526 159.599 22.5526C160.341 22.5526 160.971 22.7997 161.491 23.294C162.02 23.7798 162.284 24.3722 162.284 25.071C162.284 25.7614 162.02 26.3537 161.491 26.848C160.971 27.3338 160.341 27.5767 159.599 27.5767ZM173.946 50.3452C172.403 50.3452 171.023 49.9489 169.804 49.1562C168.585 48.3636 167.622 47.2131 166.915 45.7045C166.207 44.196 165.854 42.3636 165.854 40.2074C165.854 38.0256 166.212 36.1847 166.928 34.6847C167.652 33.1761 168.628 32.0384 169.855 31.2713C171.082 30.4957 172.45 30.108 173.959 30.108C175.109 30.108 176.055 30.304 176.797 30.696C177.538 31.0795 178.126 31.544 178.561 32.0895C178.996 32.6264 179.332 33.1335 179.571 33.6108H179.763V23.8182H184.403V50H179.852V46.9062H179.571C179.332 47.3835 178.987 47.8906 178.536 48.4276C178.084 48.956 177.487 49.4077 176.746 49.7827C176.004 50.1577 175.071 50.3452 173.946 50.3452ZM175.237 46.5483C176.217 46.5483 177.053 46.2841 177.743 45.7557C178.433 45.2187 178.957 44.473 179.315 43.5185C179.673 42.5639 179.852 41.4517 179.852 40.1818C179.852 38.9119 179.673 37.8082 179.315 36.8707C178.966 35.9332 178.446 35.2045 177.756 34.6847C177.074 34.1648 176.234 33.9048 175.237 33.9048C174.206 33.9048 173.345 34.1733 172.655 34.7102C171.964 35.2472 171.445 35.9886 171.095 36.9347C170.746 37.8807 170.571 38.9631 170.571 40.1818C170.571 41.4091 170.746 42.5043 171.095 43.4673C171.453 44.4219 171.977 45.1761 172.668 45.7301C173.366 46.2756 174.223 46.5483 175.237 46.5483ZM204.855 35.554L200.636 36.0142C200.517 35.5881 200.308 35.1875 200.01 34.8125C199.72 34.4375 199.328 34.1349 198.833 33.9048C198.339 33.6747 197.734 33.5597 197.018 33.5597C196.055 33.5597 195.245 33.7685 194.589 34.1861C193.941 34.6037 193.622 35.1449 193.63 35.8097C193.622 36.3807 193.831 36.8452 194.257 37.2031C194.691 37.5611 195.407 37.8551 196.404 38.0852L199.754 38.8011C201.612 39.2017 202.993 39.8366 203.896 40.706C204.808 41.5753 205.268 42.7131 205.277 44.1193C205.268 45.3551 204.906 46.446 204.19 47.392C203.483 48.3295 202.498 49.0625 201.237 49.5909C199.975 50.1193 198.527 50.3835 196.89 50.3835C194.487 50.3835 192.552 49.8807 191.086 48.875C189.62 47.8608 188.747 46.4503 188.466 44.6435L192.978 44.2088C193.183 45.0952 193.618 45.7642 194.282 46.2159C194.947 46.6676 195.812 46.8935 196.877 46.8935C197.977 46.8935 198.859 46.6676 199.524 46.2159C200.197 45.7642 200.534 45.206 200.534 44.5412C200.534 43.9787 200.316 43.5142 199.882 43.1477C199.456 42.7812 198.791 42.5 197.887 42.304L194.538 41.6009C192.654 41.2088 191.261 40.5483 190.358 39.6193C189.454 38.6818 189.007 37.4972 189.015 36.0653C189.007 34.8551 189.335 33.8068 190 32.9205C190.673 32.0256 191.606 31.3352 192.799 30.8494C194.001 30.3551 195.386 30.108 196.954 30.108C199.255 30.108 201.066 30.598 202.387 31.5781C203.717 32.5582 204.539 33.8835 204.855 35.554Z" fill="white"/>
</svg>
