<svg width="208" height="74" viewBox="0 0 208 74" fill="none" xmlns="http://www.w3.org/2000/svg">
<path d="M44.9857 7.92857L0 34.3571V18.5L31.5 0L44.9857 7.92857Z" fill="#8A1538"/>
<path d="M63 18.5V27.6483L7.79176 60.0742L0 55.5V46.8938L55.6411 14.1969L63 18.5Z" fill="#8A1538"/>
<path d="M18.4471 66.3425L63 40.185V55.5L31.5 74L18.4471 66.3425Z" fill="#8A1538"/>
<path d="M85.8366 41.2045H90.1321L92.6761 44.5028L94.4915 46.6506L98.8509 52.25H94.2486L91.2827 48.4915L90.017 46.7017L85.8366 41.2045ZM99.4773 36.9091C99.4773 39.7301 98.9489 42.1463 97.892 44.1577C96.8438 46.1605 95.4119 47.6946 93.5966 48.7599C91.7898 49.8253 89.7401 50.358 87.4474 50.358C85.1548 50.358 83.1009 49.8253 81.2855 48.7599C79.4787 47.6861 78.0469 46.1477 76.9901 44.1449C75.9418 42.1335 75.4176 39.7216 75.4176 36.9091C75.4176 34.0881 75.9418 31.6761 76.9901 29.6733C78.0469 27.6619 79.4787 26.1236 81.2855 25.0582C83.1009 23.9929 85.1548 23.4602 87.4474 23.4602C89.7401 23.4602 91.7898 23.9929 93.5966 25.0582C95.4119 26.1236 96.8438 27.6619 97.892 29.6733C98.9489 31.6761 99.4773 34.0881 99.4773 36.9091ZM94.7088 36.9091C94.7088 34.9233 94.3977 33.2486 93.7756 31.8849C93.1619 30.5128 92.3097 29.4773 91.2188 28.7784C90.1278 28.071 88.8707 27.7173 87.4474 27.7173C86.0241 27.7173 84.767 28.071 83.6761 28.7784C82.5852 29.4773 81.7287 30.5128 81.1065 31.8849C80.4929 33.2486 80.1861 34.9233 80.1861 36.9091C80.1861 38.8949 80.4929 40.5739 81.1065 41.946C81.7287 43.3097 82.5852 44.3452 83.6761 45.0526C84.767 45.7514 86.0241 46.1009 87.4474 46.1009C88.8707 46.1009 90.1278 45.7514 91.2188 45.0526C92.3097 44.3452 93.1619 43.3097 93.7756 41.946C94.3977 40.5739 94.7088 38.8949 94.7088 36.9091ZM103.996 23.8182H109.8L117.573 42.7898H117.88L125.653 23.8182H131.457V50H126.906V32.0128H126.663L119.427 49.9233H116.026L108.79 31.9744H108.548V50H103.996V23.8182ZM142.067 50.3963C140.823 50.3963 139.702 50.1747 138.705 49.7315C137.717 49.2798 136.933 48.6151 136.353 47.7372C135.782 46.8594 135.496 45.777 135.496 44.4901C135.496 43.3821 135.701 42.4659 136.11 41.7415C136.519 41.017 137.077 40.4375 137.785 40.0028C138.492 39.5682 139.289 39.2401 140.175 39.0185C141.07 38.7884 141.995 38.6222 142.95 38.5199C144.1 38.4006 145.033 38.294 145.749 38.2003C146.465 38.098 146.985 37.9446 147.309 37.7401C147.641 37.527 147.808 37.1989 147.808 36.7557V36.679C147.808 35.7159 147.522 34.9702 146.951 34.4418C146.38 33.9134 145.558 33.6491 144.484 33.6491C143.35 33.6491 142.451 33.8963 141.786 34.3906C141.13 34.8849 140.687 35.4687 140.457 36.142L136.136 35.5284C136.477 34.3352 137.039 33.3381 137.823 32.5369C138.607 31.7273 139.566 31.1222 140.7 30.7216C141.833 30.3125 143.086 30.108 144.458 30.108C145.404 30.108 146.346 30.2188 147.283 30.4403C148.221 30.6619 149.077 31.0284 149.853 31.5398C150.629 32.0426 151.251 32.7287 151.719 33.598C152.197 34.4673 152.435 35.554 152.435 36.858V50H147.987V47.3026H147.833C147.552 47.848 147.156 48.3594 146.644 48.8366C146.141 49.3054 145.506 49.6847 144.739 49.9744C143.981 50.2557 143.09 50.3963 142.067 50.3963ZM143.269 46.9957C144.198 46.9957 145.004 46.8125 145.685 46.446C146.367 46.071 146.891 45.5767 147.258 44.9631C147.633 44.3494 147.82 43.6804 147.82 42.956V40.642C147.675 40.7614 147.428 40.8722 147.079 40.9744C146.738 41.0767 146.354 41.1662 145.928 41.2429C145.502 41.3196 145.08 41.3878 144.663 41.4474C144.245 41.5071 143.883 41.5582 143.576 41.6009C142.886 41.6946 142.268 41.848 141.722 42.0611C141.177 42.2741 140.746 42.5724 140.431 42.956C140.116 43.331 139.958 43.8168 139.958 44.4134C139.958 45.2656 140.269 45.9091 140.891 46.3438C141.513 46.7784 142.306 46.9957 143.269 46.9957ZM157.089 50V30.3636H161.717V50H157.089ZM159.415 27.5767C158.683 27.5767 158.052 27.3338 157.523 26.848C156.995 26.3537 156.731 25.7614 156.731 25.071C156.731 24.3722 156.995 23.7798 157.523 23.294C158.052 22.7997 158.683 22.5526 159.415 22.5526C160.157 22.5526 160.788 22.7997 161.308 23.294C161.836 23.7798 162.1 24.3722 162.1 25.071C162.1 25.7614 161.836 26.3537 161.308 26.848C160.788 27.3338 160.157 27.5767 159.415 27.5767ZM173.762 50.3452C172.22 50.3452 170.839 49.9489 169.62 49.1562C168.402 48.3636 167.439 47.2131 166.731 45.7045C166.024 44.196 165.67 42.3636 165.67 40.2074C165.67 38.0256 166.028 36.1847 166.744 34.6847C167.468 33.1761 168.444 32.0384 169.672 31.2713C170.899 30.4957 172.267 30.108 173.775 30.108C174.926 30.108 175.872 30.304 176.613 30.696C177.355 31.0795 177.943 31.544 178.377 32.0895C178.812 32.6264 179.149 33.1335 179.387 33.6108H179.579V23.8182H184.22V50H179.669V46.9062H179.387C179.149 47.3835 178.804 47.8906 178.352 48.4276C177.9 48.956 177.304 49.4077 176.562 49.7827C175.821 50.1577 174.887 50.3452 173.762 50.3452ZM175.054 46.5483C176.034 46.5483 176.869 46.2841 177.559 45.7557C178.25 45.2187 178.774 44.473 179.132 43.5185C179.49 42.5639 179.669 41.4517 179.669 40.1818C179.669 38.9119 179.49 37.8082 179.132 36.8707C178.782 35.9332 178.262 35.2045 177.572 34.6847C176.89 34.1648 176.051 33.9048 175.054 33.9048C174.022 33.9048 173.162 34.1733 172.471 34.7102C171.781 35.2472 171.261 35.9886 170.912 36.9347C170.562 37.8807 170.387 38.9631 170.387 40.1818C170.387 41.4091 170.562 42.5043 170.912 43.4673C171.27 44.4219 171.794 45.1761 172.484 45.7301C173.183 46.2756 174.039 46.5483 175.054 46.5483ZM204.671 35.554L200.452 36.0142C200.333 35.5881 200.124 35.1875 199.826 34.8125C199.536 34.4375 199.144 34.1349 198.65 33.9048C198.156 33.6747 197.55 33.5597 196.835 33.5597C195.871 33.5597 195.062 33.7685 194.406 34.1861C193.758 34.6037 193.438 35.1449 193.447 35.8097C193.438 36.3807 193.647 36.8452 194.073 37.2031C194.508 37.5611 195.224 37.8551 196.221 38.0852L199.57 38.8011C201.428 39.2017 202.809 39.8366 203.712 40.706C204.624 41.5753 205.085 42.7131 205.093 44.1193C205.085 45.3551 204.722 46.446 204.006 47.392C203.299 48.3295 202.315 49.0625 201.053 49.5909C199.792 50.1193 198.343 50.3835 196.707 50.3835C194.303 50.3835 192.369 49.8807 190.903 48.875C189.437 47.8608 188.563 46.4503 188.282 44.6435L192.795 44.2088C192.999 45.0952 193.434 45.7642 194.099 46.2159C194.763 46.6676 195.629 46.8935 196.694 46.8935C197.793 46.8935 198.675 46.6676 199.34 46.2159C200.013 45.7642 200.35 45.206 200.35 44.5412C200.35 43.9787 200.133 43.5142 199.698 43.1477C199.272 42.7812 198.607 42.5 197.704 42.304L194.354 41.6009C192.471 41.2088 191.077 40.5483 190.174 39.6193C189.271 38.6818 188.823 37.4972 188.832 36.0653C188.823 34.8551 189.151 33.8068 189.816 32.9205C190.489 32.0256 191.423 31.3352 192.616 30.8494C193.817 30.3551 195.202 30.108 196.771 30.108C199.072 30.108 200.883 30.598 202.204 31.5781C203.533 32.5582 204.356 33.8835 204.671 35.554Z" fill="#8A1538"/>
</svg>
