<svg width="18" height="18" viewBox="0 0 18 18" fill="none" xmlns="http://www.w3.org/2000/svg">
<path d="M14.8747 3.09168C14.1107 2.31995 13.2007 1.70807 12.1977 1.29172C11.1948 0.875371 10.1189 0.662893 9.03301 0.666676C4.48301 0.666676 0.774675 4.37501 0.774675 8.92501C0.774675 10.3833 1.15801 11.8 1.87467 13.05L0.708008 17.3333L5.08301 16.1833C6.29134 16.8417 7.64967 17.1917 9.03301 17.1917C13.583 17.1917 17.2913 13.4833 17.2913 8.93334C17.2913 6.72501 16.433 4.65001 14.8747 3.09168ZM9.03301 15.7917C7.79967 15.7917 6.59134 15.4583 5.53301 14.8333L5.28301 14.6833L2.68301 15.3667L3.37467 12.8333L3.20801 12.575C2.5228 11.4808 2.15896 10.216 2.15801 8.92501C2.15801 5.14167 5.24134 2.05834 9.02467 2.05834C10.858 2.05834 12.583 2.77501 13.8747 4.07501C14.5142 4.71165 15.0211 5.46889 15.3658 6.30286C15.7106 7.13683 15.8864 8.03093 15.883 8.93334C15.8997 12.7167 12.8163 15.7917 9.03301 15.7917ZM12.7997 10.6583C12.5913 10.5583 11.5747 10.0583 11.3913 9.98334C11.1997 9.91668 11.0663 9.88334 10.9247 10.0833C10.783 10.2917 10.3913 10.7583 10.2747 10.8917C10.158 11.0333 10.033 11.05 9.82467 10.9417C9.61634 10.8417 8.94967 10.6167 8.16634 9.91668C7.54967 9.36668 7.14134 8.69168 7.01634 8.48334C6.89967 8.27501 6.99967 8.16668 7.10801 8.05834C7.19967 7.96667 7.31634 7.81667 7.41634 7.70001C7.51634 7.58334 7.55801 7.49167 7.62467 7.35834C7.69134 7.21667 7.65801 7.10001 7.60801 7.00001C7.55801 6.90001 7.14134 5.88334 6.97467 5.46668C6.80801 5.06668 6.63301 5.11668 6.50801 5.10834H6.10801C5.96634 5.10834 5.74967 5.15834 5.55801 5.36668C5.37467 5.57501 4.84134 6.07501 4.84134 7.09168C4.84134 8.10834 5.58301 9.09168 5.68301 9.22501C5.78301 9.36668 7.14134 11.45 9.20801 12.3417C9.69967 12.5583 10.083 12.6833 10.383 12.775C10.8747 12.9333 11.3247 12.9083 11.683 12.8583C12.083 12.8 12.908 12.3583 13.0747 11.875C13.2497 11.3917 13.2497 10.9833 13.1913 10.8917C13.133 10.8 13.008 10.7583 12.7997 10.6583Z" fill="black"/>
</svg>
