<svg width="38" height="38" viewBox="0 0 38 38" fill="none" xmlns="http://www.w3.org/2000/svg">
<path d="M19 11.5C19 9.19877 20.8655 7.33329 23.1667 7.33329C25.4679 7.33329 27.3334 9.19877 27.3334 11.5C27.3334 13.8011 25.4679 15.6666 23.1667 15.6666C20.8655 15.6666 19 13.8011 19 11.5Z" fill="white"/>
<path fill-rule="evenodd" clip-rule="evenodd" d="M15.5938 0.666626C13.322 0.666613 11.5153 0.666602 10.0577 0.785697C8.56498 0.907653 7.2922 1.16275 6.12678 1.75656C4.24516 2.7153 2.71536 4.2451 1.75662 6.12672C1.16282 7.29213 0.907714 8.56492 0.785758 10.0576C0.666663 11.5152 0.666674 13.322 0.666687 15.5937V22.4062C0.666674 24.678 0.666663 26.4847 0.785758 27.9423C0.907714 29.435 1.16282 30.7078 1.75662 31.8732C2.71536 33.7548 4.24516 35.2846 6.12678 36.2434C7.2922 36.8372 8.56498 37.0923 10.0577 37.2142C11.5153 37.3333 13.3219 37.3333 15.5936 37.3333H22.4063C24.678 37.3333 26.4848 37.3333 27.9424 37.2142C29.4351 37.0923 30.7078 36.8372 31.8733 36.2434C33.7549 35.2846 35.2847 33.7548 36.2434 31.8732C36.8372 30.7078 37.0923 29.435 37.2143 27.9423C37.3334 26.4847 37.3334 24.6781 37.3334 22.4064V15.5937C37.3334 13.322 37.3334 11.5152 37.2143 10.0576C37.0923 8.56492 36.8372 7.29213 36.2434 6.12672C35.2847 4.2451 33.7549 2.7153 31.8733 1.75656C30.7078 1.16275 29.4351 0.907653 27.9424 0.785697C26.4847 0.666602 24.678 0.666613 22.4063 0.666626H15.5938ZM7.64008 4.72658C8.25727 4.41211 9.04256 4.21307 10.3291 4.10796C11.6351 4.00126 13.3056 3.99996 15.6667 3.99996H22.3334C24.6944 3.99996 26.365 4.00126 27.671 4.10796C28.9575 4.21307 29.7428 4.41211 30.36 4.72658C31.6144 5.36574 32.6342 6.38561 33.2734 7.64002C33.5879 8.25721 33.7869 9.0425 33.892 10.329C33.9987 11.635 34 13.3056 34 15.6666V22.3333C34 22.9306 33.9999 23.4838 33.9981 23.998L31.357 21.357C30.0553 20.0552 27.9447 20.0552 26.643 21.357L22.9226 25.0774C22.5972 25.4028 22.0695 25.4028 21.7441 25.0774L11.357 14.6903C10.0553 13.3886 7.94475 13.3886 6.643 14.6903L4.00002 17.3333V15.6666C4.00002 13.3056 4.00132 11.635 4.10802 10.329C4.21314 9.0425 4.41217 8.25721 4.72664 7.64002C5.3658 6.38561 6.38567 5.36574 7.64008 4.72658Z" fill="white"/>
</svg>
