<svg width="24" height="24" viewBox="0 0 24 24" fill="none" xmlns="http://www.w3.org/2000/svg">
<g clip-path="url(#clip0_509_2313)">
<path d="M22.8035 11.1458L22.8033 11.1457L21.5473 10.8695L21.547 10.8695L21.6329 10.4788C21.396 10.4269 21.2142 10.2407 21.1639 10.0034L22.8035 11.1458ZM22.8035 11.1458C22.8966 11.1662 22.9671 11.249 22.967 11.3575V11.3577V13.1608C22.967 13.2695 22.8964 13.3523 22.8034 13.3727L22.8029 13.3728L21.3905 13.6841L21.4759 14.0749M22.8035 11.1458L22.889 13.7634L21.4759 14.0749M21.4759 14.0749L21.3898 13.6843L21.3901 13.6842C21.0242 13.7643 20.7327 14.0393 20.6306 14.3993L20.6306 14.3995C20.3842 15.2702 20.0097 16.0872 19.5281 16.8285L19.5281 16.8286C19.3114 17.1623 19.3069 17.5933 19.5232 17.9313L19.5233 17.9315L20.2372 19.046M21.4759 14.0749C21.2543 14.1233 21.0774 14.2899 21.0155 14.5084C20.758 15.4183 20.3666 16.272 19.8636 17.0464C19.7315 17.2499 19.7294 17.5114 19.8601 17.7157L20.5741 18.8304M20.5741 18.8304L20.2372 19.046M20.5741 18.8304L20.2373 19.0461L20.2372 19.046M20.5741 18.8304C20.7303 19.0745 20.6956 19.3945 20.4908 19.5994M20.2372 19.046C20.2921 19.1319 20.2799 19.2445 20.208 19.3165L20.4908 19.5994M20.4908 19.5994L20.2079 19.3166L18.9329 20.5915L19.2157 20.8743M20.4908 19.5994L19.2157 20.8743M19.2157 20.8743C19.0109 21.0792 18.6909 21.1139 18.4468 20.9575M19.2157 20.8743L18.9329 20.5915C18.8609 20.6635 18.7484 20.6757 18.6626 20.6207L18.6626 20.6207L17.4077 19.8168L17.4076 19.8168C17.0923 19.6149 16.6918 19.6027 16.3648 19.7851M18.4468 20.9575L13.5121 21.5713L13.1214 21.4856C13.2075 21.0928 13.5155 20.795 13.9017 20.7119L13.9018 20.7118C14.7773 20.5235 15.6051 20.2084 16.3648 19.7851M18.4468 20.9575L17.1919 20.1537C17.0007 20.0312 16.758 20.0238 16.5597 20.1344M18.4468 20.9575L16.5597 20.1344M16.3648 19.7851L16.5597 20.1344M16.3648 19.7851C16.3649 19.785 16.3649 19.785 16.365 19.785L16.5597 20.1344M3.3639 9.56887L3.3639 9.56889C3.26384 9.93228 2.97103 10.2106 2.60245 10.2916L2.60204 10.2917L1.16023 10.6068L3.3639 9.56887ZM3.3639 9.56887C3.6036 8.69818 3.97139 7.88048 4.44597 7.13711L3.3639 9.56887ZM2.47849 13.1224L2.47868 13.1225C2.86639 13.2075 3.16858 13.5104 3.25407 13.897M2.47849 13.1224L4.16679 17.3987L3.82997 17.183L4.16685 17.3986C4.37054 17.0806 4.37977 16.6777 4.19522 16.3508C3.76798 15.5941 3.44703 14.7694 3.25407 13.897M2.47849 13.1224L1.16023 12.8339C1.05703 12.8113 0.985938 12.7203 0.985938 12.6218V10.8189C0.985938 10.7206 1.05689 10.6297 1.15989 10.6069L2.47849 13.1224ZM3.25407 13.897L2.8635 13.9834L3.25406 13.897C3.25406 13.897 3.25406 13.897 3.25407 13.897ZM9.56456 20.578C9.56454 20.578 9.56452 20.578 9.5645 20.578L9.45581 20.963L9.56456 20.578ZM6.96309 19.8416L7.17886 19.5048L7.17884 19.5048L6.96309 19.8416ZM9.89016 21.4235L10.2809 21.3379L9.89016 21.4235ZM19.8499 6.51367C19.6473 6.83 19.6355 7.23233 19.8201 7.56007L4.44598 7.13709C4.65866 6.80397 4.6613 6.37642 4.4464 6.04094L3.73718 4.93339C3.73717 4.93338 3.73717 4.93338 3.73717 4.93337C3.68215 4.84743 3.69444 4.73482 3.76639 4.66291L3.76646 4.66284L5.04141 3.38784C5.04141 3.38784 5.04141 3.38784 5.04141 3.38784C5.11343 3.31582 5.22611 3.30357 5.31199 3.35853L6.52276 4.13387L6.5228 4.13389C6.84194 4.33821 7.24648 4.34683 7.57387 4.16032L7.57405 4.16022C8.34856 3.71847 9.19477 3.38858 10.0911 3.1934C10.4795 3.10889 10.7834 2.80535 10.8684 2.41693L11.1433 1.16136L11.1433 1.16134C11.1661 1.05711 11.2579 0.985938 11.3551 0.985938H13.1581C13.2553 0.985938 13.3472 1.0571 13.3701 1.16124C13.3701 1.16132 13.3702 1.16139 13.3702 1.16146L13.6734 2.54948L13.6734 2.54974C13.7541 2.91787 14.0319 3.21099 14.3952 3.31117C15.283 3.55598 16.1154 3.93386 16.8701 4.42247L16.8703 4.42257C17.204 4.63842 17.6341 4.64228 17.9714 4.42634L17.9714 4.42633L19.0437 3.73976C19.1296 3.68476 19.2421 3.69695 19.3141 3.76902C19.3141 3.76902 19.3141 3.76903 19.3141 3.76903L20.5889 5.04388L20.5889 5.04389C20.661 5.116 20.6732 5.22848 20.6182 5.31429L20.6182 5.31433L19.8499 6.51367ZM4.66025 20.2105L4.37799 20.4929L4.66031 20.2106L4.66025 20.2105ZM6.29677 19.8401L6.08107 19.5032L6.08104 19.5032L6.29677 19.8401ZM5.12759 12.1222C5.12759 14.1407 5.79447 15.8311 6.99957 17.0172C8.20394 18.2026 9.9104 18.8495 11.9253 18.8495C13.9396 18.8495 15.6747 18.2032 16.909 17.021C18.1452 15.8371 18.8468 14.1463 18.8468 12.1222C18.8468 10.0997 18.1467 8.3474 16.9173 7.09917C15.6874 5.85036 13.9513 5.13008 11.9253 5.13008C9.89845 5.13008 8.19115 5.85109 6.99135 7.10309C5.79323 8.35333 5.12759 10.1052 5.12759 12.1222Z" stroke="white" stroke-width="0.8"/>
<path d="M10.0726 10.0386C10.0726 10.509 9.69133 10.8904 9.22089 10.8904C8.75049 10.8904 8.36914 10.5089 8.36914 10.0386C8.36914 9.5681 8.75053 9.18677 9.22089 9.18677C9.69136 9.18677 10.0726 9.56812 10.0726 10.0386Z" stroke="white" stroke-width="0.5"/>
<path d="M15.6732 10.0386C15.6732 10.509 15.2919 10.8904 14.8215 10.8904C14.3511 10.8904 13.9697 10.5089 13.9697 10.0386C13.9697 9.5681 14.3511 9.18677 14.8215 9.18677C15.2919 9.18677 15.6732 9.56812 15.6732 10.0386Z" stroke="white" stroke-width="0.5"/>
<path d="M12.8687 10.7485C12.8687 11.2189 12.4873 11.6003 12.0169 11.6003C11.5464 11.6003 11.165 11.2189 11.165 10.7485C11.165 10.278 11.5464 9.89661 12.0169 9.89661C12.4873 9.89661 12.8687 10.278 12.8687 10.7485Z" stroke="white" stroke-width="0.5"/>
<path d="M10.1172 14.4198C10.1172 13.3765 10.9403 12.5371 11.9766 12.5371C13.0128 12.5371 13.8359 13.3765 13.8359 14.4198V14.7735H10.1172V14.4198Z" stroke="white" stroke-width="0.5"/>
<path d="M9.17564 11.8317C9.54212 11.8317 9.90221 11.9395 10.1987 12.1206C9.61974 12.5878 9.21845 13.2461 9.11953 14.0703H7.25781V13.7096C7.25781 12.6766 8.12963 11.8317 9.17564 11.8317Z" stroke="white" stroke-width="0.5"/>
<path d="M16.1433 12.3791L16.1437 12.3796C16.4844 12.7194 16.6953 13.1902 16.6953 13.7097V14.0704H14.8936C14.7949 13.2455 14.3946 12.5882 13.8165 12.1216C14.1065 11.9368 14.4477 11.8271 14.8122 11.8271C15.3327 11.8271 15.8023 12.0372 16.1433 12.3791Z" stroke="white" stroke-width="0.5"/>
</g>
<defs>
<clipPath id="clip0_509_2313">
<rect width="24" height="24" fill="white"/>
</clipPath>
</defs>
</svg>
