<svg width="103" height="40" viewBox="0 0 103 40" fill="none" xmlns="http://www.w3.org/2000/svg">
<path d="M24.0649 6.79995L3.5 18.8V11.6L17.9 3.19995L24.0649 6.79995Z" fill="white"/>
<path d="M32.3 11.6V15.7538L7.06195 30.4769L3.5 28.3999V24.4923L28.9359 9.6461L32.3 11.6Z" fill="white"/>
<path d="M11.933 33.323L32.3 21.4461V28.3999L17.9 36.7999L11.933 33.323Z" fill="white"/>
<path d="M42.3 25.827V13.173H44.6758V23.9054H50.452V25.827H42.3Z" fill="white"/>
<path d="M63.7222 19.5C63.7222 20.8634 63.4575 22.0312 62.9281 23.0033C62.403 23.9713 61.6858 24.7128 60.7764 25.2277C59.8714 25.7426 58.8446 26 57.6962 26C56.5478 26 55.519 25.7426 54.6096 25.2277C53.7046 24.7087 52.9873 23.9651 52.458 22.9971C51.9328 22.025 51.6703 20.8593 51.6703 19.5C51.6703 18.1366 51.9328 16.9708 52.458 16.0029C52.9873 15.0307 53.7046 14.2872 54.6096 13.7723C55.519 13.2574 56.5478 13 57.6962 13C58.8446 13 59.8714 13.2574 60.7764 13.7723C61.6858 14.2872 62.403 15.0307 62.9281 16.0029C63.4575 16.9708 63.7222 18.1366 63.7222 19.5ZM61.3336 19.5C61.3336 18.5402 61.1777 17.7308 60.8661 17.0718C60.5587 16.4086 60.1318 15.9081 59.5853 15.5703C59.0389 15.2285 58.4092 15.0575 57.6962 15.0575C56.9833 15.0575 56.3536 15.2285 55.8071 15.5703C55.2607 15.9081 54.8316 16.4086 54.52 17.0718C54.2126 17.7308 54.0589 18.5402 54.0589 19.5C54.0589 20.4598 54.2126 21.2712 54.52 21.9344C54.8316 22.5935 55.2607 23.0939 55.8071 23.4358C56.3536 23.7736 56.9833 23.9425 57.6962 23.9425C58.4092 23.9425 59.0389 23.7736 59.5853 23.4358C60.1318 23.0939 60.5587 22.5935 60.8661 21.9344C61.1777 21.2712 61.3336 20.4598 61.3336 19.5Z" fill="white"/>
<path d="M74.7543 17.2139C74.6475 16.8802 74.5002 16.5816 74.3124 16.318C74.1288 16.0502 73.9068 15.8216 73.6464 15.6321C73.3903 15.4426 73.0957 15.3005 72.7627 15.2058C72.4297 15.1069 72.0668 15.0575 71.674 15.0575C70.9696 15.0575 70.3421 15.2285 69.7913 15.5703C69.2406 15.9122 68.8073 16.4148 68.4914 17.0779C68.1797 17.737 68.0239 18.5402 68.0239 19.4876C68.0239 20.4433 68.1797 21.2527 68.4914 21.9159C68.803 22.5791 69.2364 23.0836 69.7913 23.4297C70.3463 23.7715 70.991 23.9425 71.7253 23.9425C72.3913 23.9425 72.9676 23.8189 73.4543 23.5718C73.9453 23.3246 74.3231 22.9745 74.5878 22.5214C74.8525 22.0642 74.9848 21.5287 74.9848 20.9149L75.5227 20.9952H71.9622V19.2034H77.2837V20.7234C77.2837 21.8067 77.0447 22.7438 76.5665 23.5347C76.0884 24.3256 75.4309 24.9352 74.5942 25.3636C73.7574 25.7879 72.7968 26 71.7125 26C70.5043 26 69.4434 25.7384 68.5298 25.2153C67.6205 24.6881 66.9096 23.9404 66.3973 22.9724C65.8893 22.0003 65.6353 20.847 65.6353 19.5124C65.6353 18.4908 65.7847 17.5784 66.0836 16.7752C66.3867 15.972 66.8093 15.2902 67.3515 14.73C67.8937 14.1657 68.5298 13.7373 69.2598 13.4449C69.9899 13.1483 70.7839 13 71.642 13C72.3678 13 73.0445 13.103 73.672 13.3089C74.2996 13.5108 74.8567 13.7991 75.3434 14.174C75.8344 14.5488 76.2378 14.9937 76.5537 15.5086C76.8696 16.0234 77.0767 16.5919 77.1749 17.2139H74.7543Z" fill="white"/>
<path d="M91.3 19.5C91.3 20.8634 91.0353 22.0312 90.5059 23.0033C89.9808 23.9713 89.2636 24.7128 88.3543 25.2277C87.4492 25.7426 86.4225 26 85.274 26C84.1256 26 83.0968 25.7426 82.1874 25.2277C81.2824 24.7087 80.5651 23.9651 80.0358 22.9971C79.5107 22.025 79.2481 20.8593 79.2481 19.5C79.2481 18.1366 79.5107 16.9708 80.0358 16.0029C80.5651 15.0307 81.2824 14.2872 82.1874 13.7723C83.0968 13.2574 84.1256 13 85.274 13C86.4225 13 87.4492 13.2574 88.3543 13.7723C89.2636 14.2872 89.9808 15.0307 90.5059 16.0029C91.0353 16.9708 91.3 18.1366 91.3 19.5ZM88.9114 19.5C88.9114 18.5402 88.7556 17.7308 88.4439 17.0718C88.1365 16.4086 87.7096 15.9081 87.1632 15.5703C86.6167 15.2285 85.987 15.0575 85.274 15.0575C84.5611 15.0575 83.9314 15.2285 83.3849 15.5703C82.8385 15.9081 82.4094 16.4086 82.0978 17.0718C81.7904 17.7308 81.6367 18.5402 81.6367 19.5C81.6367 20.4598 81.7904 21.2712 82.0978 21.9344C82.4094 22.5935 82.8385 23.0939 83.3849 23.4358C83.9314 23.7736 84.5611 23.9425 85.274 23.9425C85.987 23.9425 86.6167 23.7736 87.1632 23.4358C87.7096 23.0939 88.1365 22.5935 88.4439 21.9344C88.7556 21.2712 88.9114 20.4598 88.9114 19.5Z" fill="white"/>
</svg>
