<svg width="10" height="16" viewBox="0 0 10 16" fill="none" xmlns="http://www.w3.org/2000/svg">
<path d="M3.98692 15.0834C4.09138 15.1887 4.21565 15.2723 4.35257 15.3294C4.48949 15.3864 4.63636 15.4158 4.78469 15.4158C4.93302 15.4158 5.07988 15.3864 5.2168 15.3294C5.35372 15.2723 5.478 15.1887 5.58245 15.0834L8.95328 11.7126C9.16486 11.501 9.28373 11.214 9.28373 10.9148C9.28373 10.6156 9.16486 10.3286 8.95328 10.1171C8.7417 9.90549 8.45474 9.78662 8.15552 9.78662C7.8563 9.78662 7.56933 9.90549 7.35776 10.1171L4.78469 12.7014L2.21162 10.1171C2.10685 10.0123 1.98248 9.9292 1.8456 9.8725C1.70872 9.8158 1.56201 9.78662 1.41385 9.78662C1.11463 9.78662 0.827669 9.90549 0.616089 10.1171C0.511325 10.2218 0.428222 10.3462 0.371524 10.4831C0.314826 10.62 0.285645 10.7667 0.285645 10.9148C0.285645 11.214 0.404509 11.501 0.616089 11.7126L3.98692 15.0834Z" fill="#202020"/>
<path d="M5.58245 0.916592C5.478 0.811278 5.35372 0.727688 5.2168 0.670644C5.07988 0.613599 4.93302 0.584229 4.78469 0.584229C4.63636 0.584229 4.48949 0.613599 4.35257 0.670644C4.21565 0.727688 4.09138 0.811278 3.98692 0.916592L0.616089 4.28742C0.404509 4.499 0.285645 4.78597 0.285645 5.08519C0.285645 5.38441 0.404509 5.67137 0.616089 5.88295C0.827669 6.09453 1.11463 6.2134 1.41385 6.2134C1.71307 6.2134 2.00004 6.09453 2.21162 5.88295L4.78469 3.29865L7.35776 5.88295C7.46221 5.98827 7.58648 6.07186 7.7234 6.1289C7.86033 6.18595 8.00719 6.21531 8.15552 6.21531C8.30385 6.21531 8.45071 6.18595 8.58763 6.1289C8.72456 6.07186 8.84883 5.98827 8.95328 5.88295C9.0586 5.7785 9.14219 5.65422 9.19923 5.5173C9.25628 5.38038 9.28564 5.23352 9.28564 5.08519C9.28564 4.93686 9.25628 4.79 9.19923 4.65307C9.14219 4.51615 9.0586 4.39188 8.95328 4.28742L5.58245 0.916592Z" fill="#202020"/>
</svg>
