<svg width="64" height="64" viewBox="0 0 64 64" fill="none" xmlns="http://www.w3.org/2000/svg">
<path d="M28.8 12.8C26.3584 12.8 24.08 13.4816 22.1376 14.6688C21.9368 13.5949 21.5709 12.5586 21.0528 11.5968C23.4889 10.2486 26.2347 9.55953 29.0188 9.5976C31.8028 9.63567 34.5287 10.3996 36.9271 11.8139C39.3255 13.2281 41.3133 15.2438 42.694 17.6616C44.0748 20.0794 44.8007 22.8157 44.8 25.6H52.8032C54.0757 25.6008 55.2958 26.1069 56.1953 27.007C57.0947 27.9071 57.6 29.1275 57.6 30.4V49.6C57.6 50.873 57.0943 52.0939 56.1941 52.9941C55.2939 53.8943 54.073 54.4 52.8 54.4H33.6C32.327 54.4 31.1061 53.8943 30.2059 52.9941C29.3057 52.0939 28.8 50.873 28.8 49.6V41.6C26.574 41.6028 24.3721 41.1395 22.336 40.24C22.3776 39.152 22.4 38.0096 22.4 36.8V36.688C24.2816 37.776 26.4672 38.4 28.8 38.4V30.4C28.8 29.1269 29.3057 27.906 30.2059 27.0059C31.1061 26.1057 32.327 25.6 33.6 25.6H41.6C41.6 22.2052 40.2514 18.9495 37.851 16.549C35.4505 14.1486 32.1948 12.8 28.8 12.8ZM44.48 28.8C43.8506 31.8738 42.3323 34.6951 40.1137 36.9137C37.8951 39.1323 35.0738 40.6506 32 41.28V49.6C32 50.0243 32.1686 50.4313 32.4686 50.7314C32.7687 51.0314 33.1757 51.2 33.6 51.2H52.8C53.2244 51.2 53.6313 51.0314 53.9314 50.7314C54.2314 50.4313 54.4 50.0243 54.4 49.6V30.4C54.4 29.9756 54.2314 29.5687 53.9314 29.2686C53.6313 28.9686 53.2244 28.8 52.8 28.8H44.48ZM41.1968 28.8H33.6C33.1757 28.8 32.7687 28.9686 32.4686 29.2686C32.1686 29.5687 32 29.9756 32 30.4V37.9968C34.2138 37.4232 36.2339 36.2681 37.851 34.651C39.4681 33.0339 40.6233 31.0138 41.1968 28.8ZM14.6592 6.79999C14.9248 7.03231 15.1062 7.34593 15.175 7.69203C15.2439 8.03812 15.1964 8.39728 15.04 8.71359C15.0129 8.80721 14.9989 8.90413 14.9984 9.00159C14.9984 9.20319 15.0496 9.58719 15.5328 10.0672C15.7664 10.3008 15.9456 10.4672 16.1408 10.6496C16.3008 10.7968 16.4704 10.9504 16.6848 11.1616C17.1008 11.5584 17.5392 12.0256 17.9328 12.6112C18.7488 13.8368 19.2 15.3696 19.2 17.6C19.2 20.3296 18.1888 22.656 16.6112 24.0832L16.816 24.32C17.712 25.4208 18.2336 26.848 18.56 28.256C19.2 31.04 19.2 34.3872 19.2 36.72V36.8C19.2 45.7184 17.9872 50.7776 16.6528 53.6704C15.9808 55.1264 15.2672 56.0544 14.6496 56.6368C14.3985 56.8777 14.1216 57.0902 13.824 57.2704C13.6877 57.3524 13.5454 57.4241 13.3984 57.4848C13.3984 57.4848 13.0368 57.6 12.8 57.6C12.5632 57.6 12.2016 57.4848 12.2016 57.4848C12.053 57.4277 11.9104 57.3558 11.776 57.2704C11.4784 57.0902 11.2015 56.8777 10.9504 56.6368C10.3328 56.0512 9.6192 55.1264 8.9472 53.6704C7.6128 50.7776 6.4 45.7184 6.4 36.8V36.72C6.4 34.384 6.4 31.04 7.04 28.256C7.3664 26.848 7.888 25.4208 8.784 24.32C8.848 24.24 8.9184 24.16 8.9888 24.0832C7.4112 22.656 6.4 20.3296 6.4 17.6C6.4 16.5568 6.6784 15.312 7.0624 14.1632C7.4464 13.0112 7.984 11.8208 8.6048 10.8608C9.344 9.61279 10.384 8.56639 11.1904 7.86239C11.6325 7.47358 12.0939 7.10725 12.5728 6.76479L12.6688 6.70079L12.6976 6.67839L12.7072 6.67199L12.7136 6.66879C13.007 6.47319 13.3569 6.38002 13.7087 6.40374C14.0605 6.42747 14.3947 6.56677 14.6592 6.79999ZM12.8 22.4C14.0384 22.3968 16 21.024 16 17.6C16 15.8304 15.6512 14.9632 15.2672 14.3872C15.0337 14.0508 14.7644 13.7407 14.464 13.4624L14.0672 13.0912C13.808 12.848 13.504 12.5664 13.2672 12.3328C12.9172 11.9864 12.6168 11.5934 12.3744 11.1648C11.9671 11.5931 11.6086 12.0653 11.3056 12.5728C10.8576 13.2608 10.4224 14.2048 10.0992 15.1776C9.7664 16.1696 9.6 17.0464 9.6 17.6C9.6 21.0304 11.568 22.4 12.8 22.4ZM11.264 26.3424C10.8096 26.896 10.432 27.7792 10.1568 28.976C9.6064 31.3696 9.6 34.3776 9.6 36.8C9.6 45.4816 10.7872 50.0224 11.8528 52.3296C12.2048 53.088 12.5344 53.5936 12.8 53.9296C13.1781 53.4357 13.4961 52.8986 13.7472 52.3296C14.8128 50.0224 16 45.4816 16 36.8C16 34.3776 15.9936 31.3696 15.44 28.976C15.1648 27.7792 14.7872 26.896 14.336 26.3424C14.1595 26.1032 13.9274 25.9106 13.6598 25.7813C13.3922 25.6519 13.0971 25.5897 12.8 25.6H12.7936C12.4976 25.5905 12.2037 25.6531 11.9372 25.7824C11.6707 25.9118 11.4397 26.1039 11.264 26.3424Z" fill="black"/>
</svg>
