<svg width="20" height="20" viewBox="0 0 20 20" fill="none" xmlns="http://www.w3.org/2000/svg">
<path d="M2.00002 16C2.00002 14.9391 2.42144 13.9217 3.17159 13.1716C3.92173 12.4214 4.93915 12 6.00002 12H14C15.0609 12 16.0783 12.4214 16.8284 13.1716C17.5786 13.9217 18 14.9391 18 16C18 16.5304 17.7893 17.0391 17.4142 17.4142C17.0392 17.7893 16.5304 18 16 18H4.00002C3.46958 18 2.96087 17.7893 2.5858 17.4142C2.21073 17.0391 2.00002 16.5304 2.00002 16Z" stroke="#202020" stroke-width="1.5" stroke-linejoin="round"/>
<path d="M10 8C11.6569 8 13 6.65685 13 5C13 3.34315 11.6569 2 10 2C8.34316 2 7.00002 3.34315 7.00002 5C7.00002 6.65685 8.34316 8 10 8Z" stroke="#202020" stroke-width="1.5"/>
</svg>
