<svg width="64" height="64" viewBox="0 0 64 64" fill="none" xmlns="http://www.w3.org/2000/svg">
<path fill-rule="evenodd" clip-rule="evenodd" d="M41.636 5.33334L40.0227 11.52L40.1147 10.1733L32 14.0547V8.86401L22.6667 11.72V16.5467L20.3067 7.74268L12.8373 14.7253L16.0907 26.8627C16.244 26.9427 16.3867 27.0453 16.5133 27.1667C17.62 28.2373 18.6853 29.2093 19.7133 30.0853L15.828 15.58L18.8813 12.7267L22.6667 26.8413V32.3893C23.5773 33.032 24.4653 33.5893 25.3333 34.056V13.6933L29.3333 12.4707V35.6267C30.3467 35.864 31.3467 35.972 32.3493 35.948L33.6907 16.2013L37.144 14.548L35.7293 35.38C36.8053 35.0467 37.8973 34.564 39.0173 33.9373L42.1213 22.3547L45.908 21.2187L43.2947 30.968C44.5503 29.9372 45.7621 28.854 46.9267 27.7213L49.7893 17.036L47.4333 17.6387L51.1253 5.33334H41.636ZM47.5413 8.00001L44.4187 18.4107L40.736 19.352L43.696 8.00001H47.5413Z" fill="black"/>
<path fill-rule="evenodd" clip-rule="evenodd" d="M47.4507 30.892C42.1827 35.732 37.3173 38.628 32.0613 38.62C26.8027 38.612 21.8933 35.6947 16.544 30.8493L19.688 56H44.312L47.4507 30.892ZM15.2933 26.6667C14.2533 26.6667 13.4467 27.5787 13.576 28.6107L17.0413 56.3307C17.1219 56.9757 17.4354 57.5691 17.9228 57.9993C18.4102 58.4295 19.0379 58.6668 19.688 58.6667H44.312C44.9621 58.6668 45.5898 58.4295 46.0772 57.9993C46.5646 57.5691 46.8781 56.9757 46.9587 56.3307L50.4253 28.604C50.4711 28.2461 50.4034 27.8828 50.2318 27.5655C50.0601 27.2481 49.7933 26.9925 49.4687 26.8348C49.1442 26.6771 48.7784 26.6252 48.4228 26.6864C48.0672 26.7476 47.7398 26.9189 47.4867 27.176C35.5667 38.904 28.6067 38.856 16.5133 27.1667C16.1863 26.849 15.7492 26.6699 15.2933 26.6667Z" fill="black"/>
</svg>
