<svg width="24" height="24" viewBox="0 0 24 24" fill="none" xmlns="http://www.w3.org/2000/svg">
<path fill-rule="evenodd" clip-rule="evenodd" d="M13.106 22H10.894C7.44704 22 5.72404 22 4.54904 20.988C3.37404 19.976 3.13004 18.283 2.64304 14.895L2.36404 12.958C1.98404 10.321 1.79404 9.002 2.33504 7.875C2.87504 6.748 4.02604 6.062 6.32704 4.692L7.71204 3.867C9.80004 2.622 10.846 2 12 2C13.154 2 14.199 2.622 16.288 3.867L17.673 4.692C19.973 6.062 21.124 6.748 21.665 7.875C22.205 9.002 22.015 10.321 21.635 12.958L21.357 14.895C20.87 18.283 20.626 19.976 19.451 20.988C18.276 22 16.553 22 13.106 22ZM8.39804 15.553C8.51647 15.3932 8.69352 15.287 8.89024 15.2578C9.08695 15.2285 9.28724 15.2786 9.44704 15.397C10.175 15.937 11.054 16.25 12 16.25C12.946 16.25 13.825 15.937 14.553 15.397C14.6322 15.3383 14.7221 15.2958 14.8176 15.2718C14.9132 15.2478 15.0125 15.243 15.11 15.2574C15.2074 15.2718 15.3011 15.3053 15.3856 15.356C15.4701 15.4066 15.5438 15.4734 15.6025 15.5525C15.6612 15.6316 15.7038 15.7215 15.7277 15.8171C15.7517 15.9127 15.7566 16.012 15.7421 16.1095C15.7277 16.2069 15.6942 16.3006 15.6436 16.3851C15.5929 16.4696 15.5262 16.5433 15.447 16.602C14.4518 17.3461 13.2427 17.7488 12 17.75C10.7574 17.7488 9.54831 17.3461 8.55304 16.602C8.39342 16.4834 8.28743 16.3063 8.25836 16.1096C8.2293 15.9129 8.27954 15.7127 8.39804 15.553Z" fill="white"/>
</svg>
