<svg width="64" height="64" viewBox="0 0 64 64" fill="none" xmlns="http://www.w3.org/2000/svg">
<path d="M10.6667 10.6667H26.6667V26.6667H10.6667V10.6667ZM37.3333 10.6667H53.3333V26.6667H37.3333V10.6667ZM10.6667 37.3334H26.6667V53.3334H10.6667V37.3334ZM37.3333 45.3334C37.3333 47.4551 38.1762 49.4899 39.6765 50.9902C41.1768 52.4905 43.2116 53.3334 45.3333 53.3334C47.4551 53.3334 49.4899 52.4905 50.9902 50.9902C52.4905 49.4899 53.3333 47.4551 53.3333 45.3334C53.3333 43.2116 52.4905 41.1768 50.9902 39.6765C49.4899 38.1762 47.4551 37.3334 45.3333 37.3334C43.2116 37.3334 41.1768 38.1762 39.6765 39.6765C38.1762 41.1768 37.3333 43.2116 37.3333 45.3334Z" stroke="black" stroke-width="4" stroke-linecap="round" stroke-linejoin="round"/>
</svg>
