<svg width="60" height="60" viewBox="0 0 60 60" fill="none" xmlns="http://www.w3.org/2000/svg">
<rect x="0.5" y="0.5" width="59" height="59" rx="3.5" fill="white"/>
<path d="M36 26C36 26.5304 35.7893 27.0391 35.4142 27.4142C35.0391 27.7893 34.5304 28 34 28C33.4696 28 32.9609 27.7893 32.5858 27.4142C32.2107 27.0391 32 26.5304 32 26C32 25.4696 32.2107 24.9609 32.5858 24.5858C32.9609 24.2107 33.4696 24 34 24C34.5304 24 35.0391 24.2107 35.4142 24.5858C35.7893 24.9609 36 25.4696 36 26Z" fill="#DCE1EA"/>
<path fill-rule="evenodd" clip-rule="evenodd" d="M29.943 19.25H30.057C32.366 19.25 34.175 19.25 35.587 19.44C37.031 19.634 38.171 20.04 39.066 20.934C39.961 21.829 40.366 22.969 40.56 24.414C40.75 25.825 40.75 27.634 40.75 29.943V30.031C40.75 31.94 40.75 33.502 40.646 34.774C40.542 36.054 40.329 37.121 39.851 38.009C39.641 38.4 39.381 38.751 39.066 39.066C38.171 39.961 37.031 40.366 35.586 40.56C34.175 40.75 32.366 40.75 30.057 40.75H29.943C27.634 40.75 25.825 40.75 24.413 40.56C22.969 40.366 21.829 39.96 20.934 39.066C20.141 38.273 19.731 37.286 19.514 36.06C19.299 34.857 19.26 33.36 19.252 31.502C19.25 31.029 19.25 30.529 19.25 30.001V29.943C19.25 27.634 19.25 25.825 19.44 24.413C19.634 22.969 20.04 21.829 20.934 20.934C21.829 20.039 22.969 19.634 24.414 19.44C25.825 19.25 27.634 19.25 29.943 19.25ZM24.613 20.926C23.335 21.098 22.564 21.426 21.995 21.995C21.425 22.565 21.098 23.335 20.926 24.614C20.752 25.914 20.75 27.622 20.75 30V30.844L21.751 29.967C22.1902 29.5828 22.759 29.3799 23.3422 29.3994C23.9254 29.4189 24.4794 29.6593 24.892 30.072L29.182 34.362C29.5149 34.6948 29.9546 34.8996 30.4235 34.9402C30.8925 34.9808 31.3608 34.8547 31.746 34.584L32.044 34.374C32.5997 33.9835 33.2714 33.7932 33.9493 33.834C34.6273 33.8749 35.2713 34.1446 35.776 34.599L38.606 37.146C38.892 36.548 39.061 35.762 39.151 34.653C39.249 33.448 39.25 31.946 39.25 30C39.25 27.622 39.248 25.914 39.074 24.614C38.902 23.335 38.574 22.564 38.005 21.994C37.435 21.425 36.665 21.098 35.386 20.926C34.086 20.752 32.378 20.75 30 20.75C27.622 20.75 25.913 20.752 24.613 20.926Z" fill="#DCE1EA"/>
<rect x="0.5" y="0.5" width="59" height="59" rx="3.5" stroke="#DCE1EA"/>
</svg>
