<svg width="64" height="64" viewBox="0 0 64 64" fill="none" xmlns="http://www.w3.org/2000/svg">
<path d="M52.06 37.232C53.543 35.3831 54.6445 33.2585 55.3009 30.981C55.9573 28.7036 56.1555 26.3186 55.884 23.964C54.347 24.6491 52.6828 25.0021 51 25C48.5064 25.0043 46.0741 24.228 44.044 22.78L40.828 26L52.06 37.232ZM49.232 40.064L36.656 27.48C36.6086 27.4368 36.5632 27.3914 36.52 27.344L23.936 14.76C22.524 16.52 21.44 18.552 20.768 20.76C19.4571 20.4588 18.1275 20.2463 16.788 20.124C18.2835 14.7248 21.7818 10.0992 26.5698 7.19017C31.3578 4.2811 37.075 3.30756 42.556 4.46802C45.9182 5.1858 49.0664 6.67881 51.7497 8.82811C54.4331 10.9774 56.5774 13.7236 58.012 16.848C58.676 18.304 59.188 19.836 59.528 21.44C60.6873 26.9204 59.7132 32.6366 56.8043 37.4237C53.8953 42.2108 49.2703 45.7085 43.872 47.204C43.7485 45.8645 43.5347 44.5348 43.232 43.224C45.4148 42.56 47.4511 41.4902 49.232 40.064ZM54.956 19.956C54.2855 18.0766 53.3068 16.322 52.06 14.764L46.932 19.892C48.1458 20.6091 49.5276 20.9927 50.9374 21.004C52.3472 21.0152 53.7309 20.6537 54.956 19.956ZM44.108 17.06L49.232 11.94C47.6769 10.6924 45.9249 9.71238 44.048 9.04002C43.38 10.208 43 11.56 43 13C43 14.48 43.4 15.872 44.108 17.06ZM40.036 8.12002C37.6811 7.84742 35.2955 8.04469 33.0173 8.7004C30.7391 9.35611 28.6137 10.4572 26.764 11.94L38 23.168L41.216 19.952C39.7703 17.9226 38.9954 15.4918 39 13C39 11.26 39.372 9.60802 40.04 8.11602L40.036 8.12002ZM10 28C9.46957 28 8.96086 28.2107 8.58579 28.5858C8.21071 28.9609 8 29.4696 8 30V34C8 39.8348 10.3179 45.4306 14.4437 49.5564C18.5695 53.6822 24.1652 56 30 56H34C34.5304 56 35.0391 55.7893 35.4142 55.4142C35.7893 55.0392 36 54.5304 36 54V50C36 47.1109 35.431 44.2501 34.3253 41.581C33.2197 38.9118 31.5992 36.4866 29.5563 34.4437C27.5135 32.4008 25.0882 30.7803 22.419 29.6747C19.7499 28.5691 16.8891 28 14 28H10ZM4 30C4 28.4087 4.63214 26.8826 5.75736 25.7574C6.88258 24.6322 8.4087 24 10 24H14C20.8956 24 27.5088 26.7393 32.3848 31.6152C37.2607 36.4912 40 43.1044 40 50V54C40 55.5913 39.3679 57.1174 38.2426 58.2427C37.1174 59.3679 35.5913 60 34 60H30C23.1044 60 16.4912 57.2607 11.6152 52.3848C6.73928 47.5088 4 40.8956 4 34V30ZM17.584 37.584C17.7698 37.3978 17.9905 37.25 18.2335 37.1492C18.4764 37.0483 18.7369 36.9964 19 36.9964C19.2631 36.9964 19.5236 37.0483 19.7665 37.1492C20.0095 37.25 20.2302 37.3978 20.416 37.584L26.416 43.584C26.602 43.77 26.7495 43.9907 26.8501 44.2337C26.9507 44.4766 27.0025 44.737 27.0025 45C27.0025 45.263 26.9507 45.5234 26.8501 45.7663C26.7495 46.0093 26.602 46.2301 26.416 46.416C26.23 46.602 26.0093 46.7495 25.7663 46.8501C25.5234 46.9507 25.263 47.0025 25 47.0025C24.737 47.0025 24.4766 46.9507 24.2337 46.8501C23.9907 46.7495 23.77 46.602 23.584 46.416L17.584 40.416C17.3977 40.2302 17.25 40.0095 17.1491 39.7665C17.0483 39.5236 16.9964 39.2631 16.9964 39C16.9964 38.7369 17.0483 38.4765 17.1491 38.2335C17.25 37.9905 17.3977 37.7698 17.584 37.584Z" fill="black"/>
</svg>
