<svg width="64" height="64" viewBox="0 0 64 64" fill="none" xmlns="http://www.w3.org/2000/svg">
<path d="M60 28H57.3L50.355 12.375C50.0407 11.6681 49.5281 11.0674 48.8794 10.6459C48.2307 10.2244 47.4737 10 46.7 10H17.3C16.5263 10 15.7693 10.2244 15.1206 10.6459C14.4719 11.0674 13.9593 11.6681 13.645 12.375L6.7 28H4C3.46957 28 2.96086 28.2107 2.58579 28.5858C2.21071 28.9609 2 29.4696 2 30C2 30.5304 2.21071 31.0391 2.58579 31.4142C2.96086 31.7893 3.46957 32 4 32H6V52C6 53.0609 6.42143 54.0783 7.17157 54.8284C7.92172 55.5786 8.93913 56 10 56H16C17.0609 56 18.0783 55.5786 18.8284 54.8284C19.5786 54.0783 20 53.0609 20 52V48H44V52C44 53.0609 44.4214 54.0783 45.1716 54.8284C45.9217 55.5786 46.9391 56 48 56H54C55.0609 56 56.0783 55.5786 56.8284 54.8284C57.5786 54.0783 58 53.0609 58 52V32H60C60.5304 32 61.0391 31.7893 61.4142 31.4142C61.7893 31.0391 62 30.5304 62 30C62 29.4696 61.7893 28.9609 61.4142 28.5858C61.0391 28.2107 60.5304 28 60 28ZM17.3 14H46.7L52.9225 28H11.0775L17.3 14ZM16 52H10V48H16V52ZM48 52V48H54V52H48ZM54 44H10V32H54V44ZM14 38C14 37.4696 14.2107 36.9609 14.5858 36.5858C14.9609 36.2107 15.4696 36 16 36H20C20.5304 36 21.0391 36.2107 21.4142 36.5858C21.7893 36.9609 22 37.4696 22 38C22 38.5304 21.7893 39.0391 21.4142 39.4142C21.0391 39.7893 20.5304 40 20 40H16C15.4696 40 14.9609 39.7893 14.5858 39.4142C14.2107 39.0391 14 38.5304 14 38ZM42 38C42 37.4696 42.2107 36.9609 42.5858 36.5858C42.9609 36.2107 43.4696 36 44 36H48C48.5304 36 49.0391 36.2107 49.4142 36.5858C49.7893 36.9609 50 37.4696 50 38C50 38.5304 49.7893 39.0391 49.4142 39.4142C49.0391 39.7893 48.5304 40 48 40H44C43.4696 40 42.9609 39.7893 42.5858 39.4142C42.2107 39.0391 42 38.5304 42 38Z" fill="black"/>
</svg>
