<svg width="201" height="200" viewBox="0 0 201 200" fill="none" xmlns="http://www.w3.org/2000/svg">
<path d="M50.5 166.667C48.1389 166.667 46.1583 165.867 44.5583 164.267C42.9583 162.667 42.1611 160.689 42.1667 158.333C42.1667 155.972 42.9667 153.992 44.5667 152.392C46.1667 150.792 48.1444 149.994 50.5 150H150.5C152.861 150 154.842 150.8 156.442 152.4C158.042 154 158.839 155.978 158.833 158.333C158.833 160.694 158.033 162.675 156.433 164.275C154.833 165.875 152.856 166.672 150.5 166.667H50.5ZM80.0833 129.792C78.9722 129.792 77.9306 129.617 76.9583 129.267C75.9861 128.917 75.0833 128.328 74.25 127.5L38.8333 92.0833C37.3056 90.5556 36.5417 88.5417 36.5417 86.0417C36.5417 83.5417 37.3056 81.5278 38.8333 80C40.3611 78.4722 42.3056 77.7083 44.6667 77.7083C47.0278 77.7083 48.9722 78.4722 50.5 80L80.0833 109.583L150.5 39.1667C152.028 37.6389 154.008 36.875 156.442 36.875C158.875 36.875 160.853 37.6389 162.375 39.1667C163.903 40.6944 164.667 42.675 164.667 45.1083C164.667 47.5417 163.903 49.5194 162.375 51.0417L85.9167 127.5C85.0833 128.333 84.1806 128.925 83.2083 129.275C82.2361 129.625 81.1945 129.797 80.0833 129.792Z" fill="#3B82F6"/>
</svg>
