<svg width="20" height="20" viewBox="0 0 20 20" fill="none" xmlns="http://www.w3.org/2000/svg">
<path d="M11.875 8.75C11.875 8.25272 11.6775 7.7758 11.3258 7.42417C10.9742 7.07254 10.4973 6.875 10 6.875C9.50272 6.875 9.02581 7.07254 8.67417 7.42417C8.32254 7.7758 8.125 8.25272 8.125 8.75C8.125 9.24728 8.32254 9.72419 8.67417 10.0758C9.02581 10.4275 9.50272 10.625 10 10.625C10.4973 10.625 10.9742 10.4275 11.3258 10.0758C11.6775 9.72419 11.875 9.24728 11.875 8.75ZM17.5 8.75C17.5 12.3425 13.6288 16.27 11.4488 18.1975C11.0501 18.5535 10.5344 18.7502 10 18.7502C9.46558 18.7502 8.94986 18.5535 8.55125 18.1975C6.37125 16.27 2.5 12.3425 2.5 8.75C2.5 7.76509 2.69399 6.78982 3.0709 5.87987C3.44781 4.96993 4.00026 4.14314 4.6967 3.4467C5.39314 2.75026 6.21993 2.19781 7.12987 1.8209C8.03982 1.44399 9.01509 1.25 10 1.25C10.9849 1.25 11.9602 1.44399 12.8701 1.8209C13.7801 2.19781 14.6069 2.75026 15.3033 3.4467C15.9997 4.14314 16.5522 4.96993 16.9291 5.87987C17.306 6.78982 17.5 7.76509 17.5 8.75ZM16.25 8.75C16.25 7.0924 15.5915 5.50268 14.4194 4.33058C13.2473 3.15848 11.6576 2.5 10 2.5C8.3424 2.5 6.75269 3.15848 5.58058 4.33058C4.40848 5.50268 3.75 7.0924 3.75 8.75C3.75 10.135 4.51875 11.7437 5.7125 13.3537C6.88 14.9262 8.32125 16.325 9.37875 17.2612C9.5489 17.4155 9.77034 17.5009 10 17.5009C10.2297 17.5009 10.4511 17.4155 10.6213 17.2612C11.6788 16.325 13.1213 14.9275 14.2875 13.3537C15.4813 11.7437 16.25 10.135 16.25 8.75Z" fill="black" stroke="black" stroke-width="0.3"/>
</svg>
