<svg width="64" height="64" viewBox="0 0 64 64" fill="none" xmlns="http://www.w3.org/2000/svg">
<path d="M52 14H45.07L41.6625 8.89C41.4799 8.61638 41.2327 8.39201 40.9427 8.23676C40.6527 8.08152 40.3289 8.0002 40 8H24C23.6711 8.0002 23.3473 8.08152 23.0573 8.23676C22.7673 8.39201 22.5201 8.61638 22.3375 8.89L18.9275 14H12C10.4087 14 8.88258 14.6321 7.75736 15.7574C6.63214 16.8826 6 18.4087 6 20V48C6 49.5913 6.63214 51.1174 7.75736 52.2426C8.88258 53.3679 10.4087 54 12 54H52C53.5913 54 55.1174 53.3679 56.2426 52.2426C57.3679 51.1174 58 49.5913 58 48V20C58 18.4087 57.3679 16.8826 56.2426 15.7574C55.1174 14.6321 53.5913 14 52 14ZM54 48C54 48.5304 53.7893 49.0391 53.4142 49.4142C53.0391 49.7893 52.5304 50 52 50H12C11.4696 50 10.9609 49.7893 10.5858 49.4142C10.2107 49.0391 10 48.5304 10 48V20C10 19.4696 10.2107 18.9609 10.5858 18.5858C10.9609 18.2107 11.4696 18 12 18H20C20.3294 18.0002 20.6537 17.9191 20.9441 17.7638C21.2346 17.6086 21.4822 17.384 21.665 17.11L25.07 12H38.9275L42.335 17.11C42.5178 17.384 42.7654 17.6086 43.0559 17.7638C43.3463 17.9191 43.6706 18.0002 44 18H52C52.5304 18 53.0391 18.2107 53.4142 18.5858C53.7893 18.9609 54 19.4696 54 20V48ZM32 22C29.8244 22 27.6977 22.6451 25.8887 23.8538C24.0798 25.0625 22.6699 26.7805 21.8373 28.7905C21.0048 30.8005 20.7869 33.0122 21.2114 35.146C21.6358 37.2798 22.6834 39.2398 24.2218 40.7782C25.7602 42.3166 27.7202 43.3642 29.854 43.7886C31.9878 44.2131 34.1995 43.9952 36.2095 43.1627C38.2195 42.3301 39.9375 40.9202 41.1462 39.1113C42.3549 37.3023 43 35.1756 43 33C42.9967 30.0836 41.8367 27.2877 39.7745 25.2255C37.7123 23.1633 34.9164 22.0033 32 22ZM32 40C30.6155 40 29.2622 39.5895 28.111 38.8203C26.9599 38.0511 26.0627 36.9579 25.5328 35.6788C25.003 34.3997 24.8644 32.9922 25.1345 31.6344C25.4046 30.2765 26.0713 29.0292 27.0503 28.0503C28.0292 27.0713 29.2765 26.4046 30.6344 26.1345C31.9922 25.8644 33.3997 26.003 34.6788 26.5328C35.9579 27.0627 37.0511 27.9599 37.8203 29.111C38.5895 30.2622 39 31.6155 39 33C39 34.8565 38.2625 36.637 36.9497 37.9497C35.637 39.2625 33.8565 40 32 40Z" fill="#202020"/>
</svg>
