<svg width="18" height="18" viewBox="0 0 18 18" fill="none" xmlns="http://www.w3.org/2000/svg">
<path d="M16.4958 7.25224C16.4485 7.11506 16.3623 6.99456 16.2478 6.90537C16.1333 6.81618 15.9954 6.76211 15.8508 6.74974L11.5833 6.12724L9.67083 2.24974C9.60942 2.12294 9.51353 2.016 9.39415 1.94117C9.27477 1.86635 9.13672 1.82666 8.99583 1.82666C8.85494 1.82666 8.7169 1.86635 8.59752 1.94117C8.47813 2.016 8.38225 2.12294 8.32083 2.24974L6.40833 6.11974L2.14083 6.74974C2.00202 6.76947 1.87153 6.82771 1.76415 6.91786C1.65676 7.00801 1.5768 7.12645 1.53333 7.25974C1.49354 7.39 1.48997 7.52863 1.523 7.66076C1.55604 7.79289 1.62443 7.91354 1.72083 8.00974L4.81833 11.0097L4.06833 15.2697C4.04156 15.4104 4.05558 15.5557 4.10874 15.6886C4.1619 15.8215 4.25197 15.9364 4.36833 16.0197C4.48175 16.1008 4.61551 16.1487 4.75462 16.158C4.89372 16.1672 5.03266 16.1375 5.15583 16.0722L8.99583 14.0697L12.8208 16.0797C12.9261 16.1391 13.045 16.1701 13.1658 16.1697C13.3247 16.1703 13.4796 16.1204 13.6083 16.0272C13.7247 15.9439 13.8148 15.829 13.8679 15.6961C13.9211 15.5632 13.9351 15.4179 13.9083 15.2772L13.1583 11.0172L16.2558 8.01724C16.3641 7.9255 16.4442 7.80492 16.4866 7.6695C16.5291 7.53409 16.5323 7.3894 16.4958 7.25224ZM7.87083 8.99973C4.58359 10.0169 5.65874 14.1334 5.62083 14.2497C5.58291 14.3661 8.59987 13.0042 8.62083 13.1247L12.2058 14.0622L9.38583 12.5622C9.27732 12.5045 9.15627 12.4742 9.03333 12.4742C8.9104 12.4742 8.78934 12.5045 8.68083 12.5622L5.86083 14.0622L6.40083 10.9197C6.42178 10.7992 9.03374 9.49107 8.99583 9.37473C8.95791 9.25838 6.27129 10.3373 6.18333 10.2522L10.4958 9.37473L10.1208 8.24973C12.4008 9.70471 8.76602 9.45498 8.8654 9.38306C8.96477 9.31114 11.9418 9.48485 11.9958 9.37473L8.99583 4.27474L10.4058 7.13974C10.4599 7.24987 5.76146 10.1803 5.86083 10.2522C4.21721 12.178 7.74933 8.98283 7.87083 8.99973Z" fill="#FECD08"/>
</svg>
