<svg width="101" height="102" viewBox="0 0 101 102" fill="none" xmlns="http://www.w3.org/2000/svg">
<path fill-rule="evenodd" clip-rule="evenodd" d="M6.31272 50.5079C6.31272 51.345 6.64525 52.1478 7.23716 52.7397C7.82907 53.3316 8.63188 53.6641 9.46897 53.6641L83.9123 53.6641L64.0468 73.5233C63.4542 74.1159 63.1212 74.9197 63.1212 75.7579C63.1212 76.596 63.4542 77.3999 64.0468 77.9925C64.6395 78.5852 65.4433 78.9181 66.2815 78.9181C67.1196 78.9181 67.9234 78.5852 68.5161 77.9925L93.7661 52.7425C94.06 52.4493 94.2932 52.101 94.4523 51.7176C94.6115 51.3341 94.6934 50.923 94.6934 50.5079C94.6934 50.0927 94.6115 49.6817 94.4523 49.2982C94.2932 48.9148 94.06 48.5665 93.7661 48.2733L68.5161 23.0233C68.2226 22.7298 67.8743 22.497 67.4908 22.3382C67.1074 22.1794 66.6965 22.0977 66.2815 22.0977C65.4433 22.0977 64.6395 22.4306 64.0468 23.0233C63.4542 23.6159 63.1212 24.4197 63.1212 25.2579C63.1212 26.096 63.4542 26.8999 64.0468 27.4925L83.9123 47.3516L9.46897 47.3516C8.63188 47.3516 7.82907 47.6842 7.23716 48.2761C6.64525 48.868 6.31272 49.6708 6.31272 50.5079Z" fill="#8CC39E"/>
</svg>
