<svg width="86" height="68" viewBox="0 0 86 68" fill="none" xmlns="http://www.w3.org/2000/svg">
<path d="M0.0976562 51.7533C0.0976562 54.6663 0.799592 57.3527 2.20346 59.8125C3.60733 62.2723 5.5217 64.2143 7.94657 65.6384C10.3714 67.0625 12.9877 67.7746 15.8274 67.7746H50.3818C53.2214 67.7746 55.8696 67.0625 58.2945 65.6384C60.7194 64.2143 62.6656 62.2723 64.0695 59.8125C65.4734 57.3527 66.2072 54.6663 66.2072 51.7533C66.2072 49.6172 65.7605 47.4487 64.8672 45.2801C67.292 42.3025 68.5045 38.7098 68.5045 34.5993C68.5045 32.3013 68.0578 30.1005 67.1963 27.9967C66.3348 25.8929 65.1224 24.1127 63.6228 22.5915C62.1232 21.0703 60.3684 19.8404 58.2945 18.9665C56.2206 18.0603 54.051 17.6395 51.7856 17.6395C47.0635 17.6395 42.9476 19.5167 39.406 23.2712C36.9493 21.8471 34.0777 21.135 30.7914 21.135C26.2926 21.135 22.3363 22.5592 18.8904 25.375C15.4445 28.1908 13.2111 31.8159 12.2539 36.2176C8.68041 37.0592 5.77695 38.904 3.51162 41.817C1.24628 44.7299 0.0976562 48.0312 0.0976562 51.7533ZM5.55361 51.7533C5.55361 49.0346 6.44698 46.7042 8.23373 44.7299C10.0205 42.7556 12.2539 41.6228 14.934 41.2991L16.5293 41.202C16.9122 41.202 17.1355 41.0078 17.1355 40.6194L17.3589 38.8717C17.8056 35.3761 19.3052 32.4308 21.8577 30.1004C24.4102 27.7377 27.4093 26.5725 30.8233 26.5725C34.333 26.5725 37.396 27.7701 39.9804 30.1328C42.5967 32.4955 44.0324 35.4085 44.3515 38.904L44.5748 40.7813C44.6387 41.1373 44.862 41.3315 45.2449 41.3315H50.3818C53.1895 41.3315 55.6144 42.3672 57.6564 44.4386C59.6984 46.51 60.7194 48.9375 60.7194 51.7857C60.7194 54.731 59.6984 57.2232 57.6883 59.2946C55.6782 61.3661 53.2214 62.4018 50.4137 62.4018H15.8274C13.0197 62.4018 10.6267 61.3661 8.58469 59.2623C6.57461 57.1585 5.55361 54.6663 5.55361 51.7533ZM26.9307 12.0402C26.9307 12.817 27.186 13.4967 27.6965 14.0792L29.8023 16.1507C30.5999 16.7656 31.27 17.0246 31.8443 16.9598C32.5143 16.9598 33.0886 16.6685 33.5991 16.1183C34.1096 15.5681 34.3649 14.8884 34.3649 14.1116C34.3649 13.3348 34.0777 12.6875 33.5353 12.202L31.6528 10.0658C31.0785 9.54799 30.4404 9.28906 29.7066 9.28906C28.9408 9.28906 28.2708 9.54799 27.7284 10.0982C27.186 10.6161 26.9307 11.2634 26.9307 12.0402ZM43.9686 26.3784C46.1702 24.2098 48.7865 23.1417 51.7856 23.1417C54.9444 23.1417 57.6245 24.2422 59.826 26.4754C62.0275 28.7087 63.1442 31.3951 63.1442 34.5993C63.1442 36.606 62.6018 38.6127 61.517 40.5547C58.4221 37.4475 54.721 35.894 50.3818 35.894H49.3608C48.5631 32.3661 46.7764 29.1942 43.9686 26.3784ZM49.1693 9.28906C49.1693 10.1306 49.4246 10.7779 49.9032 11.2958C50.3818 11.8136 51.0199 12.0402 51.7856 12.0402C52.6152 12.0402 53.2533 11.7813 53.7638 11.2958C54.2743 10.7779 54.4977 10.1306 54.4977 9.28906V2.65402C54.4977 1.87723 54.2424 1.26228 53.7319 0.74442C53.2214 0.226562 52.5833 0 51.7856 0C51.0199 0 50.4137 0.258928 49.9032 0.74442C49.3927 1.22991 49.1693 1.87723 49.1693 2.65402V9.28906ZM66.7815 16.7009C66.7815 17.5424 67.0049 18.1897 67.4835 18.7076C68.1535 19.2254 68.8235 19.4844 69.4616 19.4844C70.036 19.4844 70.6741 19.2254 71.3441 18.7076L75.9067 14.0792C76.4172 13.4967 76.6724 12.817 76.6724 12.0078C76.6724 11.231 76.4172 10.5837 75.9067 10.0658C75.3962 9.54799 74.7581 9.28906 74.0242 9.28906C73.2585 9.28906 72.6523 9.54799 72.1737 10.0658L67.4835 14.6942C67.0049 15.3092 66.7815 15.9565 66.7815 16.7009ZM69.3021 55.0223C69.3021 55.7991 69.5574 56.4788 70.0998 57.0614L72.1737 59.1004C72.6523 59.6183 73.2585 59.8772 74.0242 59.8772C74.79 59.8772 75.4281 59.6183 75.9386 59.0681C76.4491 58.5179 76.7044 57.8705 76.7044 57.0614C76.7044 56.3493 76.4491 55.702 75.9386 55.1842L73.8647 53.0804C73.3542 52.5625 72.748 52.3036 72.0461 52.3036C71.2803 52.3036 70.6422 52.5625 70.1317 53.0804C69.5893 53.5982 69.3021 54.2455 69.3021 55.0223ZM73.9923 34.5993C73.9923 35.3438 74.2795 35.9587 74.8219 36.4766C75.3324 36.9944 76.0024 37.2533 76.7682 37.2533H83.277C84.0109 37.2533 84.6171 36.9944 85.1276 36.5089C85.6381 36.0234 85.8614 35.3761 85.8614 34.5993C85.8614 33.8225 85.6062 33.1752 85.1276 32.6574C84.649 32.1395 84.0109 31.8482 83.277 31.8482H76.7682C76.0024 31.8482 75.3643 32.1071 74.8219 32.6574C74.2476 33.2076 73.9923 33.8549 73.9923 34.5993Z" fill="white"/>
</svg>
