<svg width="66" height="53" viewBox="0 0 66 53" fill="none" xmlns="http://www.w3.org/2000/svg">
<path fill-rule="evenodd" clip-rule="evenodd" d="M0.772203 1.18257C0.272298 1.77873 -0.00125487 2.53327 4.32782e-06 3.3125V43.0625C4.32782e-06 45.6981 1.04304 48.2257 2.89964 50.0894C4.75625 51.953 7.27435 53 9.89999 53H56.0999C58.7256 53 61.2437 51.953 63.1003 50.0894C64.9569 48.2257 65.9999 45.6981 65.9999 43.0625V3.34563C66.0031 2.85202 65.897 2.36388 65.6892 1.91647C65.4815 1.46906 65.1773 1.07357 64.7987 0.758567C64.2121 0.27075 63.4749 0.00261584 62.7131 3.90223e-06H3.3C2.81809 -0.00073967 2.3419 0.104791 1.9051 0.309137C1.4683 0.513483 1.08155 0.811653 0.772203 1.18257ZM6.6 11.3089V43.0625C6.6 43.941 6.94767 44.7836 7.56654 45.4048C8.18541 46.026 9.02478 46.375 9.89999 46.375H56.0999C56.9752 46.375 57.8145 46.026 58.4334 45.4048C59.0523 44.7836 59.3999 43.941 59.3999 43.0625V11.3089L35.3331 35.4669C34.7142 36.0879 33.875 36.4368 33 36.4368C32.1249 36.4368 31.2857 36.0879 30.6669 35.4669L6.6 11.3089Z" fill="#108B4A"/>
</svg>
