<svg width="23" height="18" viewBox="0 0 23 18" fill="none" xmlns="http://www.w3.org/2000/svg">
<path d="M1.91667 0H21.0833C22.0896 0 23 0.95 23 2V16C23 17.05 22.0896 18 21.0833 18H1.91667C0.910417 18 0 17.05 0 16V2C0 0.95 0.910417 0 1.91667 0ZM13.4167 3V4H21.0833V3H13.4167ZM13.4167 5V6H21.0833V5H13.4167ZM13.4167 7V8H20.125V7H13.4167ZM7.66667 10.91C5.75 10.91 1.91667 12 1.91667 14V15H13.4167V14C13.4167 12 9.58333 10.91 7.66667 10.91ZM7.66667 3C6.90417 3 6.1729 3.31607 5.63373 3.87868C5.09457 4.44129 4.79167 5.20435 4.79167 6C4.79167 6.79565 5.09457 7.55871 5.63373 8.12132C6.1729 8.68393 6.90417 9 7.66667 9C8.42916 9 9.16043 8.68393 9.6996 8.12132C10.2388 7.55871 10.5417 6.79565 10.5417 6C10.5417 5.20435 10.2388 4.44129 9.6996 3.87868C9.16043 3.31607 8.42916 3 7.66667 3Z" fill="#3F3F3F"/>
</svg>
