<svg width="55" height="54" viewBox="0 0 55 54" fill="none" xmlns="http://www.w3.org/2000/svg">
<path d="M12.2512 44.3077L0 54V2.76923C0 2.03479 0.289731 1.33042 0.805456 0.811089C1.32118 0.291757 2.02065 0 2.75 0H52.25C52.9793 0 53.6788 0.291757 54.1945 0.811089C54.7103 1.33042 55 2.03479 55 2.76923V41.5385C55 42.2729 54.7103 42.9773 54.1945 43.4966C53.6788 44.0159 52.9793 44.3077 52.25 44.3077H12.2512ZM10.3483 38.7692H49.5V5.53846H5.5V42.6046L10.3483 38.7692ZM16.5 19.3846H38.5V24.9231H16.5V19.3846Z" fill="#108B4A"/>
</svg>
