<svg width="73" height="73" viewBox="0 0 73 73" fill="none" xmlns="http://www.w3.org/2000/svg">
<path d="M72.4844 66.906C72.4843 68.0214 72.1818 69.1153 71.61 70.068C71.0382 71.0208 70.219 71.7957 69.242 72.3081C68.2651 72.8204 67.1681 73.0504 66.0709 72.9729C64.9738 72.8954 63.9188 72.5135 63.0213 71.8688L21.043 41.6847C20.2633 41.1255 19.6264 40.3855 19.1856 39.5263C18.7447 38.6671 18.5126 37.7135 18.5085 36.745C18.5044 35.7765 18.7284 34.8209 19.162 33.9579C19.5955 33.0949 20.2261 32.3494 21.0011 31.7834L62.9793 1.14926C63.8748 0.494155 64.9313 0.102538 66.0323 0.017547C67.1334 -0.0674443 68.2361 0.157493 69.2191 0.667587C70.2021 1.17768 71.0271 1.95311 71.6033 2.90841C72.1794 3.86371 72.4843 4.96179 72.4844 6.08163L72.4844 66.906ZM0.521675 69.9591C0.521675 70.7656 0.837586 71.539 1.3999 72.1093C1.3999 72.1093 2.72488 73 3.52013 73C4.31536 73 5.07803 72.6796 5.64034 72.1093C6.20266 71.539 6.51857 70.7656 6.51857 69.9591L6.51858 3.05895C6.51858 2.25245 6.20267 1.47898 5.64035 0.908701C5.07803 0.338419 4.31537 0.0180375 3.52013 0.0180374C2.72489 0.0180373 1.96223 0.338418 1.39991 0.9087C0.837592 1.47898 0.521681 2.25245 0.521681 3.05895L0.521675 69.9591Z" fill="#F8F8F8"/>
</svg>
