<svg width="68" height="68" viewBox="0 0 68 68" fill="none" xmlns="http://www.w3.org/2000/svg">
<path d="M34 0C38.5087 0 42.8327 1.79107 46.0208 4.97918C49.2089 8.1673 51 12.4913 51 17C51 21.5087 49.2089 25.8327 46.0208 29.0208C42.8327 32.2089 38.5087 34 34 34C29.4913 34 25.1673 32.2089 21.9792 29.0208C18.7911 25.8327 17 21.5087 17 17C17 12.4913 18.7911 8.1673 21.9792 4.97918C25.1673 1.79107 29.4913 0 34 0ZM34 42.5C52.785 42.5 68 50.1075 68 59.5V68H0V59.5C0 50.1075 15.215 42.5 34 42.5Z" fill="#F8F8F8"/>
</svg>
