<svg width="352" height="352" viewBox="0 0 352 352" fill="none" xmlns="http://www.w3.org/2000/svg">
<path d="M176 0C199.339 0 221.722 9.2714 238.225 25.7746C254.729 42.2778 264 64.6609 264 88C264 111.339 254.729 133.722 238.225 150.225C221.722 166.729 199.339 176 176 176C152.661 176 130.278 166.729 113.775 150.225C97.2714 133.722 88 111.339 88 88C88 64.6609 97.2714 42.2778 113.775 25.7746C130.278 9.2714 152.661 0 176 0ZM176 220C273.24 220 352 259.38 352 308V352H0V308C0 259.38 78.76 220 176 220Z" fill="#F8F8F8"/>
</svg>
