<svg width="28" height="28" viewBox="0 0 28 28" fill="none" xmlns="http://www.w3.org/2000/svg">
<path fill-rule="evenodd" clip-rule="evenodd" d="M2.40001 25.4856C4.38182 27.5 7.56677 27.5 13.9394 27.5C20.312 27.5 23.4983 27.5 25.4774 25.4856C27.4579 23.474 27.4579 20.2318 27.4579 13.75C27.4579 7.26825 27.4579 4.02738 25.4774 2.013C23.4997 0 20.312 0 13.9394 0C7.56677 0 4.38046 0 2.40001 2.013C0.420898 4.02875 0.420898 7.26825 0.420898 13.75C0.420898 20.2318 0.420898 23.4726 2.40001 25.4856ZM17.657 19.25C17.657 19.5235 17.5502 19.7858 17.36 19.9792C17.1699 20.1726 16.912 20.2812 16.6431 20.2812H11.2357C10.9668 20.2812 10.7089 20.1726 10.5188 19.9792C10.3286 19.7858 10.2218 19.5235 10.2218 19.25C10.2218 18.9765 10.3286 18.7142 10.5188 18.5208C10.7089 18.3274 10.9668 18.2188 11.2357 18.2188H16.6431C16.912 18.2188 17.1699 18.3274 17.36 18.5208C17.5502 18.7142 17.657 18.9765 17.657 19.25ZM19.3468 14.7812C19.6157 14.7812 19.8736 14.6726 20.0637 14.4792C20.2539 14.2858 20.3607 14.0235 20.3607 13.75C20.3607 13.4765 20.2539 13.2142 20.0637 13.0208C19.8736 12.8274 19.6157 12.7188 19.3468 12.7188H8.53199C8.26309 12.7188 8.00521 12.8274 7.81507 13.0208C7.62493 13.2142 7.51811 13.4765 7.51811 13.75C7.51811 14.0235 7.62493 14.2858 7.81507 14.4792C8.00521 14.6726 8.26309 14.7812 8.53199 14.7812H19.3468ZM23.0644 8.25C23.0644 8.5235 22.9576 8.78581 22.7674 8.9792C22.5773 9.1726 22.3194 9.28125 22.0505 9.28125H5.82829C5.5594 9.28125 5.30151 9.1726 5.11137 8.9792C4.92123 8.78581 4.81441 8.5235 4.81441 8.25C4.81441 7.9765 4.92123 7.71419 5.11137 7.5208C5.30151 7.3274 5.5594 7.21875 5.82829 7.21875H22.0505C22.3194 7.21875 22.5773 7.3274 22.7674 7.5208C22.9576 7.71419 23.0644 7.9765 23.0644 8.25Z" fill="#02482E"/>
</svg>
