<svg width="25" height="24" viewBox="0 0 25 24" fill="none" xmlns="http://www.w3.org/2000/svg">
<path d="M22.2321 3.39105V19.3238C22.2321 20.8997 20.7328 22.1896 18.9063 22.1896H5.45062C5.1453 22.1896 4.85089 22.1427 4.56738 22.0723C4.99264 23.1839 6.203 24 7.63144 24H21.2562C23.039 24 24.5001 22.743 24.5001 21.2093V6.04104C24.5001 4.79813 23.5406 3.7522 22.2321 3.39105Z" fill="#959595"/>
<path d="M17.3632 0H3.74398C1.96115 0 0.5 1.25699 0.5 2.7907V17.9636C0.5 19.4974 1.96115 20.7543 3.74398 20.7543H17.3687C19.1515 20.7543 20.6127 19.4974 20.6127 17.9636V2.7907C20.6072 1.25699 19.1515 0 17.3632 0ZM18.3991 16.4065C18.3991 17.6119 17.2487 18.6015 15.8476 18.6015H5.13426C3.73308 18.6015 2.58269 17.6119 2.58269 16.4065V4.4745C2.58269 3.2691 3.73308 2.27946 5.13426 2.27946H15.853C17.2542 2.27946 18.4046 3.2691 18.4046 4.4745V16.4065H18.3991Z" fill="#959595"/>
<path d="M15.9786 5.51046H8.92908C8.63467 5.51046 8.39478 5.30421 8.39478 5.05109V5.01827C8.39478 4.76515 8.63467 4.5589 8.92908 4.5589H15.9786C16.273 4.5589 16.5129 4.76515 16.5129 5.01827V5.05109C16.5184 5.30421 16.273 5.51046 15.9786 5.51046Z" fill="#959595"/>
<path d="M15.9785 8.2167H5.10706C4.81265 8.2167 4.57275 8.01045 4.57275 7.75732V7.72451C4.57275 7.47139 4.81265 7.26514 5.10706 7.26514H15.9839C16.2783 7.26514 16.5182 7.47139 16.5182 7.72451V7.75732C16.5182 8.00576 16.2729 8.2167 15.9785 8.2167Z" fill="#959595"/>
<path d="M15.9785 10.9183H5.10706C4.81265 10.9183 4.57275 10.712 4.57275 10.4589V10.4261C4.57275 10.173 4.81265 9.96674 5.10706 9.96674H15.9839C16.2783 9.96674 16.5182 10.173 16.5182 10.4261V10.4589C16.5182 10.712 16.2729 10.9183 15.9785 10.9183Z" fill="#959595"/>
<path d="M15.9785 13.6246H5.10706C4.81265 13.6246 4.57275 13.4183 4.57275 13.1652V13.1324C4.57275 12.8793 4.81265 12.673 5.10706 12.673H15.9839C16.2783 12.673 16.5182 12.8793 16.5182 13.1324V13.1652C16.5182 13.4183 16.2729 13.6246 15.9785 13.6246Z" fill="#959595"/>
<path d="M15.9785 16.3308H5.10706C4.81265 16.3308 4.57275 16.1246 4.57275 15.8715V15.8386C4.57275 15.5855 4.81265 15.3793 5.10706 15.3793H15.9839C16.2783 15.3793 16.5182 15.5855 16.5182 15.8386V15.8715C16.5182 16.1199 16.2729 16.3308 15.9785 16.3308Z" fill="#959595"/>
</svg>
