<svg width="16" height="16" viewBox="0 0 16 16" fill="none" xmlns="http://www.w3.org/2000/svg">
<g clip-path="url(#clip0_42_788)">
<path d="M15.0531 3.69778L12.4442 1.07556C12.2718 0.904029 12.0385 0.807739 11.7953 0.807739C11.5521 0.807739 11.3188 0.904029 11.1464 1.07556L1.89756 10.3111L1.05311 13.9556C1.02398 14.0888 1.02498 14.2268 1.05604 14.3596C1.08709 14.4924 1.14742 14.6166 1.23261 14.7231C1.3178 14.8296 1.4257 14.9157 1.54844 14.9751C1.67117 15.0346 1.80563 15.0658 1.942 15.0667C2.00555 15.0731 2.06957 15.0731 2.13311 15.0667L5.81756 14.2222L15.0531 4.99556C15.2246 4.82316 15.3209 4.58986 15.3209 4.34667C15.3209 4.10348 15.2246 3.87018 15.0531 3.69778ZM5.37312 13.4222L1.91978 14.1467L2.70645 10.76L9.62645 3.86667L12.2931 6.53333L5.37312 13.4222ZM12.8887 5.88889L10.222 3.22222L11.7687 1.68444L14.3909 4.35111L12.8887 5.88889Z" fill="black" fill-opacity="0.85"/>
</g>
<defs>
<clipPath id="clip0_42_788">
<rect width="16" height="16" fill="white"/>
</clipPath>
</defs>
</svg>
