<svg width="13" height="12" viewBox="0 0 13 12" fill="none" xmlns="http://www.w3.org/2000/svg">
<g clip-path="url(#clip0_42_870)">
<path d="M6.03466 4.25328C4.92315 4.25328 4.02287 5.12505 4.02287 6.20137C4.02287 7.27769 4.92315 8.14946 6.03466 8.14946C7.14616 8.14946 8.04644 7.27769 8.04644 6.20137C8.04644 5.12505 7.14616 4.25328 6.03466 4.25328ZM10.531 5.71435C10.4171 4.72672 9.95972 3.80597 9.23404 3.10327C8.50837 2.40057 7.55751 1.9577 6.5376 1.84738V0.844116H5.53171V1.84738C4.5118 1.9577 3.56094 2.40057 2.83527 3.10327C2.1096 3.80597 1.65225 4.72672 1.53833 5.71435H0.502258V6.68839H1.53833C1.65225 7.67602 2.1096 8.59678 2.83527 9.29947C3.56094 10.0022 4.5118 10.445 5.53171 10.5554V11.5586H6.5376V10.5554C7.55751 10.445 8.50837 10.0022 9.23404 9.29947C9.95972 8.59678 10.4171 7.67602 10.531 6.68839H11.5671V5.71435H10.531ZM6.03466 9.61053C4.08826 9.61053 2.51404 8.08615 2.51404 6.20137C2.51404 4.31659 4.08826 2.79221 6.03466 2.79221C7.98105 2.79221 9.55527 4.31659 9.55527 6.20137C9.55527 8.08615 7.98105 9.61053 6.03466 9.61053Z" fill="#111111"/>
</g>
<defs>
<clipPath id="clip0_42_870">
<rect width="12.0707" height="11.0784" fill="white"/>
</clipPath>
</defs>
</svg>
