<svg width="20" height="20" viewBox="0 0 20 20" fill="none" xmlns="http://www.w3.org/2000/svg">
<path d="M9.99998 1.66663C6.33331 1.66663 3.33331 4.66663 3.33331 8.33329C3.33331 12.8333 9.16665 17.9166 9.41665 18.1666C9.58331 18.25 9.83331 18.3333 9.99998 18.3333C10.1666 18.3333 10.4166 18.25 10.5833 18.1666C10.8333 17.9166 16.6666 12.8333 16.6666 8.33329C16.6666 4.66663 13.6666 1.66663 9.99998 1.66663ZM9.99998 16.4166C8.24998 14.75 4.99998 11.1666 4.99998 8.33329C4.99998 5.58329 7.24998 3.33329 9.99998 3.33329C12.75 3.33329 15 5.58329 15 8.33329C15 11.0833 11.75 14.75 9.99998 16.4166ZM9.99998 4.99996C8.16665 4.99996 6.66665 6.49996 6.66665 8.33329C6.66665 10.1666 8.16665 11.6666 9.99998 11.6666C11.8333 11.6666 13.3333 10.1666 13.3333 8.33329C13.3333 6.49996 11.8333 4.99996 9.99998 4.99996ZM9.99998 9.99996C9.08331 9.99996 8.33331 9.24996 8.33331 8.33329C8.33331 7.41663 9.08331 6.66663 9.99998 6.66663C10.9166 6.66663 11.6666 7.41663 11.6666 8.33329C11.6666 9.24996 10.9166 9.99996 9.99998 9.99996Z" fill="#F5F5F5"/>
</svg>
