<svg width="20" height="35" viewBox="0 0 20 35" fill="none" xmlns="http://www.w3.org/2000/svg">
<path d="M11.4459 24.2755L8.43385 24.2755C8.2779 24.2737 8.1293 24.3395 8.02871 24.4549C7.92744 24.5682 7.88205 24.7186 7.90446 24.8669L9.41274 34.3438C9.45432 34.6257 9.72403 34.8215 10.0151 34.7812C10.2494 34.7488 10.4334 34.5706 10.4669 34.3438L11.9729 24.8647C12.0178 24.5833 11.8186 24.3199 11.528 24.2765C11.501 24.2725 11.4739 24.2704 11.4466 24.2704L11.4459 24.2755Z" fill="#B9B8B8"/>
<path d="M13.7048 16.9838L6.17488 16.9838C5.04834 17.1197 4.00937 17.642 3.24643 18.456C2.16013 19.4368 1.53019 20.8017 1.50022 22.2396C1.50022 23.4238 2.50848 24.2776 4.49792 24.7778C6.28395 25.1604 8.11021 25.3381 9.93909 25.3072C12.9338 25.3065 16.3802 24.982 17.7582 23.6476C18.1565 23.2811 18.3807 22.7716 18.378 22.2396C18.3787 19.2041 15.305 16.9846 13.7048 16.9838Z" fill="#D32F2F"/>
<path d="M13.7049 11.1505L6.1749 11.1505C5.88092 11.1506 5.64259 11.3813 5.64252 11.6661L5.64251 17.4993C5.64251 18.453 6.77201 19.468 9.93988 19.4731C12.0046 19.4731 13.2034 19.04 13.7877 18.4742C14.0677 18.2215 14.2299 17.8698 14.2373 17.4993L14.2373 11.666C14.2373 11.3813 13.9989 11.1506 13.7049 11.1505Z" fill="#F44336"/>
<path d="M16.5445 6.45129C16.3455 6.37131 16.1163 6.41537 15.9639 6.56286C15.1477 7.35325 12.473 8.23409 9.93995 8.23409C7.4069 8.23409 4.73294 7.35397 3.91596 6.56286C3.70838 6.36116 3.37126 6.36058 3.16293 6.56156C3.06251 6.65846 3.00615 6.79015 3.00632 6.92745C3.00706 9.90607 5.15012 12.9116 9.93921 12.9116C11.8625 13.0098 13.7449 12.3492 15.1567 11.0807C16.2757 9.97201 16.893 8.47758 16.8721 6.92741C16.8722 6.71926 16.743 6.53145 16.5445 6.45129Z" fill="#D32F2F"/>
<path d="M9.94004 4.5881C6.75106 4.58882 4.53423 5.23485 3.16301 6.56265C2.95508 6.764 2.95508 7.09049 3.16301 7.29184C4.28726 8.38049 7.32788 9.26566 9.94003 9.26638C12.5522 9.2671 15.5936 8.37973 16.7171 7.29183C16.925 7.09048 16.925 6.76399 16.7171 6.56264C15.3451 5.23412 13.1282 4.58806 9.94004 4.5881Z" fill="#F44336"/>
</svg>
