<svg width="20" height="20" viewBox="0 0 20 20" fill="none" xmlns="http://www.w3.org/2000/svg">
<path d="M12.8332 6.99999C12.8332 8.5648 11.5646 9.83332 9.99984 9.83332C8.43503 9.83332 7.1665 8.5648 7.1665 6.99999C7.1665 5.43518 8.43503 4.16666 9.99984 4.16666C11.5646 4.16666 12.8332 5.43518 12.8332 6.99999Z" stroke="#0D4261"/>
<path d="M16.1668 14.5833C16.1668 15.6622 16.14 16.3405 15.5178 16.8472C15.1874 17.1162 14.6495 17.3675 13.7551 17.5486C12.863 17.7292 11.6496 17.8333 10.0002 17.8333C8.35068 17.8333 7.13733 17.7292 6.2452 17.5486C5.35086 17.3675 4.81292 17.1162 4.48256 16.8472C3.86037 16.3405 3.8335 15.6622 3.8335 14.5833C3.8335 13.8088 4.39701 13.0056 5.53134 12.3676C6.64997 11.7383 8.22895 11.3333 10.0002 11.3333C11.7714 11.3333 13.3504 11.7383 14.469 12.3676C15.6033 13.0056 16.1668 13.8088 16.1668 14.5833Z" stroke="#0D4261"/>
</svg>
