<svg width="30" height="36" viewBox="0 0 30 36" fill="none" xmlns="http://www.w3.org/2000/svg">
<path d="M27.5232 10.9978C27.4115 10.8465 27.2857 10.7102 27.1483 10.5903C27.2369 10.3096 27.2754 10.0103 27.2548 9.70358C27.2187 9.16852 27.0199 8.67866 26.7027 8.28913C26.7677 7.89831 26.7378 7.48895 26.6074 7.09411C26.8543 6.23665 26.6239 5.28992 25.9636 4.63976C25.486 4.16947 24.8566 3.92649 24.2219 3.92649C23.9792 3.92649 23.7357 3.96198 23.4997 4.03391C23.25 3.95571 22.9953 3.91734 22.7437 3.91734C22.5953 3.91734 22.448 3.93071 22.3034 3.95705C21.909 3.64584 21.4162 3.45472 20.8806 3.42684C20.8389 3.42467 20.797 3.42358 20.7555 3.42358C20.4925 3.42358 20.2368 3.46675 19.9956 3.54706C19.8736 3.41144 19.7353 3.28771 19.5822 3.17837C19.2977 2.13113 18.3626 1.38595 17.2722 1.34873C17.2437 1.34771 17.2152 1.34726 17.1868 1.34726C16.3281 1.34726 15.545 1.78974 15.0962 2.49188C14.5952 2.67125 14.1748 3.00387 13.8845 3.42889C13.6795 3.47685 13.4778 3.55147 13.284 3.65346C12.8356 3.88966 12.4867 4.25074 12.2614 4.67621C12.1726 4.66655 12.0833 4.66176 11.9939 4.66176C11.5091 4.66169 11.0221 4.80333 10.5979 5.09222C10.1984 5.36436 9.89991 5.7363 9.71825 6.15557C7.81898 6.2119 5.99242 6.32796 4.26144 6.50252C2.05672 6.58354 0.288086 8.40236 0.288086 10.6265V28.4371V29.7531C0.288086 31.6422 1.50976 33.2513 3.20461 33.8318C3.6405 34.5447 4.42616 35.0204 5.32301 35.0204H10.529C11.2928 35.0204 11.9759 34.6754 12.4311 34.1325H13.6238C13.8258 34.1325 14.0221 34.1084 14.2101 34.0629H21.5618C22.9322 34.0629 24.0431 32.9519 24.0431 31.5815V30.9236V27.2665V26.6086V21.0995C24.722 20.9975 25.3493 20.6157 25.7481 20.0099C26.0822 19.5024 26.2086 18.9098 26.1382 18.3407C26.5604 18.1087 26.9161 17.7541 27.1453 17.3018C27.2445 17.1059 27.3161 16.9022 27.3608 16.6958C27.7796 16.3994 28.1045 15.9754 28.2758 15.474C28.9961 14.9985 29.4334 14.1687 29.3875 13.2756C29.3316 12.1869 28.5738 11.2651 27.5232 10.9978Z" fill="#DDCAC6"/>
<path d="M26.2519 14.3035C26.2519 14.3035 25.706 14.0671 25.7761 13.7793C25.8462 13.4915 27.2323 13.0348 27.2323 13.0348C27.2323 13.0348 25.969 12.7549 25.7923 12.5531C25.6157 12.3513 25.8101 12.1256 25.8101 12.1256C25.8101 12.1256 24.9869 12.2745 24.6844 11.9673C24.3819 11.6602 24.8667 11.0832 24.8667 11.0832C24.8667 11.0832 23.3223 11.7385 23.161 11.7186C22.9997 11.6989 23.1602 11.4746 23.1602 11.4746L22.1952 11.6993C22.7969 10.5521 23.8243 9.89776 25.0705 9.49704C25.0705 9.49704 23.9665 9.27209 23.8878 8.75889C23.8091 8.24569 24.5508 7.52072 24.5508 7.52072C24.5508 7.52072 24.2027 7.50237 24.1117 7.19947C24.0206 6.89658 24.5441 6.04014 24.5441 6.04014C24.5441 6.04014 23.6958 6.57681 23.3916 6.49042C23.0873 6.40403 23.0636 6.05625 23.0636 6.05625C23.0636 6.05625 22.3502 6.80904 21.8358 6.73826C21.3215 6.66747 21.0795 5.5671 21.0795 5.5671C20.7094 6.78193 20.0962 7.79324 19.0211 8.41815C18.9926 8.41648 18.964 8.41482 18.9355 8.41322L19.1316 7.50761C19.1316 7.50761 18.9098 7.67162 18.8876 7.51068C18.8653 7.34967 19.4967 5.79531 19.4967 5.79531C19.4967 5.79531 18.9272 6.28894 18.6155 5.99123C18.3037 5.69358 18.4398 4.86815 18.4398 4.86815C18.4398 4.86815 18.2171 5.06605 18.0126 4.89245C17.8082 4.71891 17.5088 3.46008 17.5088 3.46008C17.5088 3.46008 17.0735 4.85299 16.7869 4.92762C16.5002 5.00223 16.2555 4.45994 16.2555 4.45994C16.2555 4.45994 16.2446 6.07608 15.8623 6.17244C15.4801 6.2688 14.7735 5.49427 14.7735 5.49427C14.7735 5.49427 15.3229 7.69969 15.1652 8.25803C15.0142 8.25439 14.8642 8.25234 14.7137 8.2494C14.31 7.95674 13.8544 7.29603 13.8544 7.29603C13.8544 7.29603 13.7067 7.67437 13.4261 7.62513C13.1454 7.5759 12.3161 6.77541 12.3161 6.77541C12.3161 6.77541 12.6909 7.68064 12.8337 8.22945C10.042 8.2274 7.33708 8.3471 4.7363 8.61336C3.82756 8.61336 3.09082 9.3501 3.09082 10.2588V28.0694V29.3854C3.09082 30.3953 3.90947 31.2139 4.9193 31.2139H5.64441V32.1714H10.8504V31.2836H13.9452V31.2139H21.8832V30.556V26.8989V26.241V18.2167C21.9106 18.2449 21.927 18.2625 21.927 18.2625C21.927 18.2625 21.918 17.8481 22.1542 17.7447C22.3904 17.6412 23.9974 18.2781 23.9974 18.2781C23.9974 18.2781 23.1842 17.4611 23.1307 17.1813C23.0772 16.9015 23.4532 16.7479 23.4532 16.7479C23.4532 16.7479 22.3041 15.9826 22.3452 15.5596C22.3863 15.1366 25.2405 15.8012 25.2405 15.8012C25.2405 15.8012 24.4552 15.1066 24.5457 14.723C24.6361 14.3392 26.2519 14.3035 26.2519 14.3035Z" fill="white"/>
<path d="M17.5087 3.46009C17.5087 3.46009 17.808 4.71891 18.0125 4.89245C18.0748 4.9454 18.1389 4.96374 18.1978 4.96374C18.3321 4.96374 18.4397 4.86815 18.4397 4.86815C18.4397 4.86815 18.3035 5.69358 18.6153 5.99123C18.6875 6.06022 18.7736 6.0867 18.8632 6.0867C19.1604 6.0867 19.4965 5.79531 19.4965 5.79531C19.4965 5.79531 18.8651 7.34968 18.8874 7.51069C18.8947 7.56369 18.9236 7.5814 18.9592 7.5814C19.0316 7.5814 19.1315 7.50762 19.1315 7.50762L18.9353 8.41323C18.9638 8.41483 18.9925 8.41655 19.021 8.41815C20.096 7.79325 20.7092 6.78194 21.0793 5.5671C21.0793 5.5671 21.3213 6.66748 21.8356 6.73826C21.8587 6.74146 21.8822 6.743 21.906 6.743C22.4126 6.743 23.0634 6.05626 23.0634 6.05626C23.0634 6.05626 23.0871 6.40404 23.3914 6.49036C23.4141 6.49682 23.4397 6.49983 23.4679 6.49983C23.8174 6.49983 24.5439 6.04015 24.5439 6.04015C24.5439 6.04015 24.0204 6.89658 24.1115 7.19948C24.2026 7.50237 24.5507 7.52072 24.5507 7.52072C24.5507 7.52072 23.8089 8.2457 23.8877 8.7589C23.9663 9.27209 25.0703 9.49704 25.0703 9.49704C23.8241 9.89777 22.7967 10.552 22.195 11.6993L23.1601 11.4746C23.1601 11.4746 22.9995 11.699 23.1608 11.7186C23.1632 11.719 23.1659 11.7191 23.1689 11.7191C23.3677 11.7191 24.8665 11.0832 24.8665 11.0832C24.8665 11.0832 24.3817 11.6602 24.6842 11.9674C24.8378 12.1233 25.1257 12.1617 25.3719 12.1617C25.6104 12.1617 25.8099 12.1256 25.8099 12.1256C25.8099 12.1256 25.6155 12.3514 25.7922 12.5531C25.9688 12.755 27.2321 13.0348 27.2321 13.0348C27.2321 13.0348 25.8461 13.4916 25.7759 13.7793C25.7058 14.0671 26.2517 14.3034 26.2517 14.3034C26.2517 14.3034 24.6359 14.3392 24.5455 14.723C24.455 15.1067 25.2404 15.8012 25.2404 15.8012C25.2404 15.8012 23.5979 15.4188 22.7869 15.4188C22.5288 15.4188 22.3549 15.4575 22.345 15.5596C22.3039 15.9826 23.453 16.7479 23.453 16.7479C23.453 16.7479 23.077 16.9015 23.1305 17.1813C23.184 17.4611 23.9972 18.2781 23.9972 18.2781C23.9972 18.2781 22.6225 17.7333 22.2292 17.7333C22.1972 17.7333 22.1718 17.7369 22.1541 17.7447C21.9178 17.848 21.9268 18.2625 21.9268 18.2625C21.9268 18.2625 21.9104 18.2449 21.8831 18.2167V26.241V26.8989V30.556V31.2139H13.9451V31.2836H10.8503V32.1714H5.64423V31.2139H4.91913C3.90929 31.2139 3.09065 30.3952 3.09065 29.3854V28.0694V10.2588C3.09065 9.35011 3.82738 8.61336 4.73619 8.61336C7.31497 8.34935 9.996 8.22946 12.7627 8.22946C12.7862 8.22946 12.81 8.22946 12.8335 8.22946C12.6908 7.68064 12.3159 6.77541 12.3159 6.77541C12.3159 6.77541 13.1453 7.57591 13.4259 7.62514C13.443 7.62815 13.4597 7.62955 13.4759 7.62955C13.7239 7.62955 13.8542 7.29603 13.8542 7.29603C13.8542 7.29603 14.3098 7.95674 14.7134 8.24941C14.864 8.25235 15.0139 8.2544 15.165 8.25804C15.3227 7.6997 14.7733 5.49427 14.7733 5.49427C14.7733 5.49427 15.3995 6.18075 15.7919 6.18075C15.8163 6.18075 15.8398 6.17813 15.8622 6.17244C16.2444 6.07608 16.2553 4.45994 16.2553 4.45994C16.2553 4.45994 16.4695 4.93465 16.7319 4.93465C16.7499 4.93465 16.7682 4.93242 16.7867 4.92762C17.0734 4.853 17.5087 3.46009 17.5087 3.46009ZM17.5081 0.979584C16.6494 0.979584 15.8662 1.42206 15.4175 2.12421C14.9165 2.30356 14.496 2.63619 14.2058 3.06122C14.0008 3.10917 13.7991 3.18379 13.6053 3.28578C13.1568 3.52198 12.808 3.88306 12.5826 4.30853C12.4938 4.29888 12.4046 4.29415 12.3152 4.29415C11.8304 4.29408 11.3433 4.43571 10.9191 4.7246C10.5196 4.99667 10.2212 5.36869 10.0395 5.78789C8.14027 5.84429 6.31365 5.96028 4.58273 6.13484C2.37801 6.21586 0.609375 8.03469 0.609375 10.2588V28.0694V29.3854C0.609375 31.2745 1.83105 32.8836 3.52584 33.4641C3.96179 34.177 4.74744 34.6527 5.64423 34.6527H10.8503C11.6141 34.6527 12.2972 34.3077 12.7523 33.7648H13.9451C14.147 33.7648 14.3434 33.7407 14.5313 33.6952H21.8831C23.2535 33.6952 24.3644 32.5843 24.3644 31.2139V30.556L24.3643 26.8989L24.3644 26.241V20.7318C25.0432 20.6298 25.6706 20.248 26.0694 19.6422C26.4035 19.1348 26.5299 18.5422 26.4595 17.973C26.8817 17.741 27.2373 17.3865 27.4665 16.9341C27.5658 16.7382 27.6374 16.5346 27.6821 16.3282C28.1009 16.0317 28.4257 15.6078 28.597 15.1064C29.3174 14.6308 29.7547 13.801 29.7087 12.908C29.6529 11.8193 28.8951 10.8974 27.8444 10.6302C27.7328 10.4789 27.6069 10.3426 27.4695 10.2227C27.5582 9.94195 27.5967 9.64264 27.576 9.33591C27.54 8.80084 27.3412 8.31098 27.024 7.92145C27.089 7.53063 27.0591 7.12134 26.9287 6.7265C27.1756 5.86897 26.9451 4.92225 26.2848 4.27215C25.8073 3.80179 25.1778 3.55888 24.5431 3.55881C24.3005 3.55881 24.057 3.5943 23.821 3.66623C23.5713 3.5881 23.3165 3.54967 23.0649 3.54967C22.9165 3.54967 22.7692 3.56303 22.6247 3.58938C22.2303 3.27817 21.7374 3.08705 21.2019 3.05917C21.1601 3.057 21.1183 3.05597 21.0768 3.05597C20.8138 3.05597 20.5581 3.09907 20.3169 3.17938C20.1949 3.04376 20.0566 2.92003 19.9034 2.81069C19.619 1.76351 18.6839 1.01827 17.5935 0.981054C17.5649 0.980033 17.5365 0.979584 17.5081 0.979584Z" fill="white"/>
<path d="M22.1544 17.7447C22.3906 17.6412 23.9976 18.2781 23.9976 18.2781C23.9976 18.2781 23.1844 17.4612 23.1309 17.1813C23.0774 16.9015 23.4534 16.748 23.4534 16.748C23.4534 16.748 22.3043 15.9826 22.3454 15.5597C22.3865 15.1366 25.2407 15.8012 25.2407 15.8012C25.2407 15.8012 24.4554 15.1067 24.5459 14.723C24.6363 14.3393 26.2521 14.3035 26.2521 14.3035C26.2521 14.3035 25.7061 14.0671 25.7763 13.7793C25.8465 13.4916 27.2325 13.0349 27.2325 13.0349C27.2325 13.0349 25.9693 12.755 25.7926 12.5532C25.6158 12.3514 25.8103 12.1257 25.8103 12.1257C25.8103 12.1257 24.9871 12.2745 24.6846 11.9674C24.3821 11.6603 24.8669 11.0832 24.8669 11.0832C24.8669 11.0832 23.3225 11.7385 23.1612 11.7187C22.9999 11.6989 23.1604 11.4747 23.1604 11.4747L22.1954 11.6993C22.7971 10.5521 23.8245 9.89786 25.0707 9.49707C25.0707 9.49707 23.9667 9.27212 23.888 8.75893C23.8093 8.24572 24.5511 7.52075 24.5511 7.52075C24.5511 7.52075 24.203 7.5024 24.1119 7.1995C24.0208 6.89661 24.5443 6.04017 24.5443 6.04017C24.5443 6.04017 23.696 6.57684 23.3918 6.49045C23.0876 6.40407 23.0638 6.05629 23.0638 6.05629C23.0638 6.05629 22.3504 6.80907 21.836 6.73829C21.3217 6.66751 21.0797 5.56713 21.0797 5.56713C20.6982 6.81937 20.0599 7.8567 18.9221 8.47611L19.1318 7.50764C19.1318 7.50764 18.91 7.67166 18.8878 7.51071C18.8655 7.3497 19.497 5.79534 19.497 5.79534C19.497 5.79534 18.9274 6.28897 18.6156 5.99132C18.3039 5.69361 18.4401 4.86818 18.4401 4.86818C18.4401 4.86818 18.2173 5.06608 18.0129 4.89248C17.8084 4.71894 17.5091 3.46017 17.5091 3.46017C17.5091 3.46017 17.0737 4.85303 16.7871 4.92765C16.5004 5.00226 16.2557 4.45997 16.2557 4.45997C16.2557 4.45997 16.2448 6.07611 15.8626 6.17247C15.4802 6.26883 14.7737 5.4943 14.7737 5.4943C14.7737 5.4943 15.4822 8.33793 15.0599 8.38557C14.6375 8.4332 13.8546 7.29612 13.8546 7.29612C13.8546 7.29612 13.7069 7.6744 13.4263 7.62517C13.1457 7.57593 12.3163 6.77551 12.3163 6.77551C12.3163 6.77551 12.9778 8.37246 12.8781 8.61026C12.7783 8.84806 12.3638 8.84537 12.3638 8.84537C12.3638 8.84537 13.2386 9.63269 13.1888 9.99154C13.139 10.3504 12.2441 10.1389 12.2441 10.1389C13.0185 10.7333 13.6447 11.3837 14.0494 12.1182C13.5823 12.4744 13.0329 12.6007 12.4132 12.5302C13.0162 12.743 13.4316 13.0529 13.6465 13.4665C14.4533 13.4151 16.066 13.7748 16.546 14.2428C17.026 14.7109 17.3259 16.2437 17.2869 17.0512C17.7037 17.2596 18.02 17.6703 18.2421 18.2699C18.162 17.6513 18.2799 17.1002 18.6287 16.6275C19.3694 17.0209 20.0295 17.637 20.6356 18.4021C20.6356 18.4021 20.4104 17.5105 20.7685 17.4552C21.1265 17.3999 21.9272 18.2626 21.9272 18.2626C21.9272 18.2626 21.9182 17.8481 22.1544 17.7447Z" fill="#FFC15B"/>
<path d="M14.4393 16.4078L14.3428 16.2947C17.6697 13.4611 20.7671 10.3158 23.5484 6.94604L23.663 7.0408C20.8762 10.4172 17.7729 13.5687 14.4393 16.4078Z" fill="#DB9A3D"/>
<path d="M16.6394 14.3161C16.0317 10.2799 17.3091 5.07785 17.3221 5.02567L17.4667 5.06186C17.4535 5.11359 16.1833 10.2874 16.7867 14.2939L16.6394 14.3161Z" fill="#DB9A3D"/>
<path d="M16.7051 14.379L16.7207 14.231C16.77 14.2362 21.6845 14.736 25.7268 13.2052L25.7794 13.3443C21.7034 14.888 16.7544 14.3842 16.7051 14.379Z" fill="#DB9A3D"/>
<path d="M16.6013 14.2977C14.9816 12.1856 13.7815 8.71307 13.7695 8.67829L13.9102 8.62982C13.9221 8.66461 15.1146 12.1147 16.7195 14.2072L16.6013 14.2977Z" fill="#DB9A3D"/>
<path d="M20.3449 16.4794C19.3468 16.1766 18.0145 15.5712 16.6641 14.3604L16.7633 14.2495C19.4181 16.6297 21.9928 16.6338 22.0183 16.6336L22.0198 16.7823C22.0067 16.7826 21.3429 16.7822 20.3449 16.4794Z" fill="#DB9A3D"/>
<path d="M21.1159 9.8218C20.438 8.53886 21.0208 7.21277 21.0459 7.15701L21.1816 7.21801C21.1759 7.23106 20.6042 8.53503 21.2475 9.75242L21.1159 9.8218Z" fill="#DB9A3D"/>
<path d="M20.2803 10.8113L20.3183 10.6673C21.5718 10.9968 22.6183 10.3132 22.6287 10.3062L22.7114 10.4302C22.6667 10.4599 21.6005 11.1582 20.2803 10.8113Z" fill="#DB9A3D"/>
<path d="M16.634 10.5223L16.5527 10.3976C17.9423 9.48947 18.2186 8.24151 18.2212 8.22891L18.367 8.2598C18.3556 8.31326 18.0747 9.58065 16.634 10.5223Z" fill="#DB9A3D"/>
<path d="M21.9424 14.1651C22.1518 13.1168 23.3157 12.4095 23.3652 12.3799L23.4416 12.5077C23.43 12.5144 22.2847 13.2112 22.0882 14.1944L21.9424 14.1651Z" fill="#DB9A3D"/>
<path d="M18.7628 14.3959C18.6636 13.1132 20.4269 11.8426 20.502 11.7891L20.5884 11.9104C20.5707 11.9228 18.8184 13.1857 18.9114 14.3843L18.7628 14.3959Z" fill="#DB9A3D"/>
<path d="M21.4492 15.6651C20.6628 14.9199 20.3929 14.3901 20.3818 14.3679L20.5148 14.3013C20.5175 14.3064 20.7865 14.8321 21.5515 15.5573L21.4492 15.6651Z" fill="#DB9A3D"/>
<path d="M14.7757 10.9296L14.6914 10.8072C15.6835 10.1227 15.9039 8.70286 15.9061 8.68854L16.0533 8.71053C16.0444 8.77121 15.8206 10.2088 14.7757 10.9296Z" fill="#DB9A3D"/>
<path d="M14.9241 13.0267C14.6725 12.9502 14.4855 12.8545 14.4697 12.8464L14.5382 12.7141C14.5458 12.7178 15.302 13.1044 15.7986 12.9263L15.8488 13.0662C15.5565 13.1714 15.2011 13.1107 14.9241 13.0267Z" fill="#DB9A3D"/>
<path d="M21.8828 30.556H5.15224C4.41504 30.556 3.81738 29.9583 3.81738 29.2211V28.2338C3.81738 27.4966 4.41499 26.899 5.15224 26.899C10.374 26.508 15.9912 26.5525 21.8828 26.899V30.556Z" fill="white"/>
<path d="M5.08056 26.899C10.3293 26.5509 15.9698 26.5901 21.8832 26.899V26.2411C15.9951 25.8782 10.3193 25.8453 4.91937 26.2411C3.90947 26.2411 3.09082 27.0597 3.09082 28.0695V29.3855C3.09082 30.3953 3.90947 31.2139 4.9193 31.2139H21.8832V30.556H5.08056C4.38321 30.556 3.8179 29.9906 3.8179 29.2932V28.1617C3.8179 27.4643 4.38321 26.899 5.08056 26.899Z" fill="#CC7587"/>
<path d="M4.91937 26.241C10.3193 25.8452 15.9951 25.8782 21.8832 26.241V8.61338C15.8263 8.13362 10.064 8.06796 4.7363 8.61338C3.82756 8.61338 3.09082 9.35012 3.09082 10.2589V28.0695C3.09082 27.0597 3.90947 26.241 4.91937 26.241Z" fill="#DF8C9A"/>
<path d="M4.84571 26.241H4.62012V8.66739H4.84571V26.241Z" fill="#CC7587"/>
<path d="M18.1778 17.211H8.07422V13.1771H18.1778V17.211ZM8.29974 16.9854H17.9523V13.4027H8.29974V16.9854Z" fill="#CC7587"/>
<path d="M10.8505 32.1714H5.64453V28.2972H10.8505V32.1714Z" fill="#AAD1DF"/>
<path d="M11.4643 30.8598H7.81445V27.3397C9.63936 27.258 11.4643 27.258 11.4643 27.258V30.8598Z" fill="#484B60"/>
<path d="M13.9452 31.2836H8.73926V28.0695C10.3913 28.014 12.1346 28.0192 13.9452 28.0695V31.2836Z" fill="#FFC15B"/>
</svg>
