<svg width="41" height="40" viewBox="0 0 41 40" fill="none" xmlns="http://www.w3.org/2000/svg">
<path d="M4.84644 28.0844C4.84644 28.0844 4.54644 30.0469 5.24332 31.7781C5.82457 33.2281 7.33082 35.1375 10.2121 36.5938C13.0933 38.05 16.4027 38.5625 21.2871 38.6625C26.1714 38.7656 31.1902 37.625 33.5996 35.5094C36.0121 33.3906 36.8558 31.6094 36.7871 29.675C36.7183 27.7406 35.6902 27.0063 35.6902 27.0063L4.84644 28.0844Z" fill="#FCB745"/>
<path d="M6.2442 26.1125L4.8192 27.5375C4.8192 27.5375 4.4317 29.4437 6.5817 31.5062C8.20982 33.0656 11.0911 35.775 20.6598 35.8469C29.6161 35.9156 32.4317 33.9469 34.1598 32.5562C35.8911 31.1656 36.5411 28.75 36.3692 28.0719C36.2004 27.3937 35.6692 27.0031 35.6692 27.0031L6.2442 26.1125Z" fill="#E78B20"/>
<path d="M6.85284 28.1469C6.85284 28.1469 6.44971 28.8313 6.58096 29.2656C6.68409 29.6063 6.88721 30.9969 10.9216 32.7594C13.056 33.6938 16.6872 34.4563 21.4028 34.3188C26.9966 34.1563 31.4778 33.0313 33.6466 30.9938C35.8685 28.9094 35.4435 27.6688 35.4435 27.6688L6.85284 28.1469Z" fill="#FFD290"/>
<path d="M5.69981 23.3969C5.69981 23.3969 4.36231 24.7594 4.14044 25.3656C3.93106 25.9375 3.95919 26.7688 4.32794 27.4406C4.82481 28.3406 5.44356 28.4344 6.20919 28.8938C7.03731 29.3875 8.34669 30.9281 11.5686 31.6063C14.7904 32.2844 19.0311 32.5906 21.3029 32.5906C23.5748 32.5906 26.5936 32.5563 29.4092 31.6063C32.2248 30.6563 35.4467 28.7906 36.1936 27.1281C36.9404 25.4656 36.2279 24.4813 36.2279 24.4813L34.5998 23.3969H5.69981Z" fill="#6D544D"/>
<path d="M4.91899 21.6688C4.91899 21.6688 3.88149 21.6219 3.63149 23.1938C3.45024 24.3375 4.27524 25.0594 4.27524 25.0594C4.27524 25.0594 3.83774 25.6875 4.34399 26.4844C4.81899 27.2313 5.32836 27.4 6.37836 27.5688C7.13461 27.6906 7.53149 27.4656 8.51586 28.0094C9.75024 28.6906 10.2784 29.9094 11.9752 30.2813C13.6721 30.6531 15.5721 30.3156 15.6377 30.0438C15.7034 29.7719 13.2627 28.7563 8.85336 26.2781C7.36586 25.4438 6.00337 24.3094 5.63149 23.7344C5.25961 23.1594 4.91899 21.6688 4.91899 21.6688ZM26.2565 29.9438C26.2565 30.3844 27.7159 30.1813 28.394 29.8094C29.0721 29.4375 30.1565 28.4875 31.1409 28.0781C32.1252 27.6719 32.4971 28.0438 33.9221 27.3656C35.3471 26.6875 36.1284 25.0938 36.1284 25.0938C36.1284 25.0938 36.8221 24.2375 36.8784 23.6375C36.9659 22.7219 36.8752 22.2781 36.2315 22.075C35.5877 21.8719 34.1846 23.9813 33.9815 24.2188C33.7784 24.4563 30.7721 26.6531 29.5846 27.5C28.3971 28.3469 26.2565 29.7063 26.2565 29.9438Z" fill="#9B7169"/>
<path d="M6.24355 20.5156C6.24355 20.5156 4.54667 20.7188 4.30917 21.4313C4.07167 22.1438 4.81855 23.1937 6.78418 24.5187C8.39668 25.6031 13.9217 28.2125 16.1123 29.5719C18.6217 31.1312 20.7467 33.3094 21.0998 33.3375C21.5404 33.3719 24.5998 30.1219 28.8342 27.2656C32.8592 24.5469 35.6185 23.875 36.6029 21.8719C37.1311 20.7969 35.8561 20.175 35.8561 20.175L19.5061 13.9688L6.24355 20.5156Z" fill="#FFE869"/>
<path d="M21.3033 31.5063C21.8096 31.45 24.4564 28.8938 27.5783 26.9281C30.7002 24.9625 35.3127 22.8562 35.9908 21.6719C36.6689 20.4875 35.0408 19.7031 35.0408 19.7031L16.0439 16.5156L4.91895 20.8906C4.91895 20.8906 4.30957 21.0937 4.71582 21.6031C5.12207 22.1125 5.76582 22.9594 7.19082 23.8406C8.92207 24.9125 13.3658 26.6906 16.1783 28.2156C18.9971 29.7406 20.6939 31.5719 21.3033 31.5063Z" fill="#FFBE01"/>
<path d="M6.4502 21.3969L7.04082 22.9781C7.04082 22.9781 11.2908 27.2625 19.7439 27.4313C28.1564 27.6 32.8721 23.5969 32.8721 23.5969L33.9471 20.8969L6.4502 21.3969Z" fill="#F4482B"/>
<path d="M17.5312 24.0094L16.8656 25.075C16.8656 25.075 18.2875 25.9281 18.6969 26.075C19.2844 26.2844 19.8625 26.2094 20.7281 25.9406C21.5938 25.675 25.1875 24.2438 25.1875 24.2438C25.1875 24.2438 28.1594 24.2875 30.025 24.3219C31.6781 24.3531 33.3344 23.7594 34.2 22.7594C35.0656 21.7594 36.4094 19.6156 36.4094 19.6156C36.4094 19.6156 37.1094 19.45 37.575 18.9156C38.0406 18.3813 38.075 17.9156 38.075 17.9156C38.075 17.9156 37.9406 17.0156 37.4437 16.7844C36.9437 16.55 14.675 15.1875 14.675 15.1875L5.75312 15.8531L4.25 18.95L9.20938 23.1781L16.2 23.5781L17.5312 24.0094Z" fill="#A6B732"/>
<path d="M4.71583 16.2219C4.2127 15.9937 3.68458 16.0219 3.4502 16.6875C3.21583 17.3531 3.2877 17.6469 3.2877 17.6469C3.2877 17.6469 2.60333 17.7906 2.51895 18.65C2.41895 19.6812 3.5502 20.0469 3.5502 20.0469C3.5502 20.0469 3.60333 20.4469 4.0502 20.8469C4.55958 21.3031 5.06895 21.2562 5.06895 21.2562C5.06895 21.2562 6.4127 22.5781 7.3127 23.1094C8.2127 23.6406 9.50958 24.0094 10.8096 23.975C12.1096 23.9406 12.5408 23.3437 13.5065 23.675C14.4721 24.0062 17.0315 25.3531 18.0627 25.375C19.694 25.4094 23.2221 22.8781 24.0221 22.9125C24.8221 22.9469 28.4502 23.5125 30.3815 23.5125C32.3127 23.5125 33.0127 22.9469 33.444 22.3812C33.8752 21.8156 34.6096 20.3844 34.3752 20.35C34.1408 20.3156 32.6096 21.5812 31.5127 21.4812C30.4127 21.3812 29.4502 20.75 28.0846 20.75C26.719 20.75 20.0627 21.6156 19.6283 21.8156C19.194 22.0156 17.3315 23.4469 16.9658 23.3812C16.6002 23.3156 15.3346 22.25 14.9033 22.0156C14.4721 21.7812 9.93145 21.6312 9.27833 21.75C8.80958 21.8344 8.14708 21.95 8.14708 21.95C8.14708 21.95 8.21271 20.9187 7.64708 20.3187C7.08145 19.7187 5.21583 18.6875 5.21583 18.6875C5.21583 18.6875 5.44708 16.5531 4.71583 16.2219ZM34.2408 18.0187C34.2408 18.0187 36.2721 18.0187 36.8377 17.9844C37.4033 17.95 38.069 17.9187 38.069 17.9187C38.069 17.9187 37.8752 16.9969 37.5815 16.5062C36.9815 15.5 35.5377 15.2219 35.5377 15.2219L34.2408 18.0187Z" fill="#C2DD1F"/>
<path d="M4.2502 14.9906L4.02832 15.9719C4.02832 15.9719 7.1002 21.4125 20.9064 21.6187C28.9877 21.7406 33.6314 19.2875 35.6814 17.2812C36.9096 16.0781 36.9502 14.9094 36.9502 14.9094L4.2502 14.9906Z" fill="#DE8010"/>
<path d="M3.54994 12.2844C3.37494 15.0031 4.03744 15.9781 4.03744 15.9781C4.03744 15.9781 8.60619 20.1156 20.2749 20.3063C32.2343 20.5 36.1218 16.5344 36.8031 15.3781C37.2374 14.6438 37.5843 13.2031 37.3093 11.1031C36.8531 7.63438 32.8593 1.05313 20.2187 1.10313C7.57807 1.15313 3.80619 8.3375 3.54994 12.2844Z" fill="url(#paint0_radial_105_3575)"/>
<path d="M15.5597 4.4875C15.6565 5.01875 13.2597 6.7875 12.9128 5.09062C12.5878 3.49375 15.469 3.99687 15.5597 4.4875ZM16.4159 7.81562C16.5409 8.14375 18.9972 8.61562 18.7347 7.23125C18.4597 5.79062 16.1597 7.14062 16.4159 7.81562ZM18.569 4.01562C18.6315 4.4875 21.494 5.0375 21.4347 3.70625C21.3628 2.0625 18.4972 3.46875 18.569 4.01562ZM13.8472 8.90937C13.8628 9.01562 13.1597 9.56875 12.4409 9.78437C11.8097 9.975 11.1628 9.89375 11.0909 9.10937C11.0222 8.35312 11.5597 8.07812 12.2034 8.14375C12.944 8.21562 13.8159 8.70625 13.8472 8.90937ZM19.794 11.1187C19.6753 10.6219 16.9847 9.93125 17.1659 11.5031C17.3503 13.0687 19.9222 11.6469 19.794 11.1187ZM22.3128 7.54062C22.1815 7.3875 21.5659 7.41562 20.8159 7.6125C20.2753 7.75625 19.8753 8.36562 20.2503 8.94375C20.6878 9.61875 21.4222 9.33437 21.8909 8.7625C22.2722 8.3 22.4597 7.7125 22.3128 7.54062ZM25.194 3.8875C25.1097 3.79687 24.494 3.73437 23.9909 3.97812C23.4847 4.22187 23.0472 4.80312 23.5159 5.34687C23.9909 5.89375 24.6972 5.57812 25.0315 5C25.2972 4.53437 25.3222 4.025 25.194 3.8875ZM27.1253 8.64375C27.044 8.13437 24.7815 7.22812 24.7972 8.61562C24.8128 10.0375 27.1972 9.10312 27.1253 8.64375ZM30.2534 6.13125C30.1784 5.74062 27.3003 5.425 27.7909 6.87812C28.3003 8.39375 30.344 6.60625 30.2534 6.13125ZM26.2909 11.2437C26.3097 10.8062 24.119 9.80312 23.9565 11.1156C23.794 12.4281 26.2659 11.8125 26.2909 11.2437Z" fill="#FDEAC8"/>
<defs>
<radialGradient id="paint0_radial_105_3575" cx="0" cy="0" r="1" gradientUnits="userSpaceOnUse" gradientTransform="translate(20.3326 4.85092) rotate(89.3583) scale(13.7626 23.981)">
<stop offset="0.517" stop-color="#DF8016"/>
<stop offset="0.643" stop-color="#E58C21"/>
<stop offset="1" stop-color="#F5AC3C"/>
</radialGradient>
</defs>
</svg>
