<svg width="21" height="20" viewBox="0 0 21 20" fill="none" xmlns="http://www.w3.org/2000/svg">
<path d="M10.2002 0C4.7002 0 0.200195 4.5 0.200195 10C0.200195 15.5 4.7002 20 10.2002 20C15.7002 20 20.2002 15.5 20.2002 10C20.2002 4.5 15.7002 0 10.2002 0ZM10.2002 18C5.7902 18 2.2002 14.41 2.2002 10C2.2002 5.59 5.7902 2 10.2002 2C14.6102 2 18.2002 5.59 18.2002 10C18.2002 14.41 14.6102 18 10.2002 18ZM14.7902 5.58L8.2002 12.17L5.6102 9.59L4.2002 11L8.2002 15L16.2002 7L14.7902 5.58Z" fill="#0D4261"/>
</svg>
