<svg width="14" height="16" viewBox="0 0 14 16" fill="none" xmlns="http://www.w3.org/2000/svg">
<path d="M2.00016 15.5C1.53016 15.5 1.13489 15.3397 0.81433 15.0192C0.493774 14.6986 0.333496 14.3033 0.333496 13.8333V11.525H2.8335V0.5H13.6668V13.8333C13.6668 14.3033 13.5066 14.6986 13.186 15.0192C12.8654 15.3397 12.4702 15.5 12.0002 15.5H2.00016ZM12.0002 14.6667C12.2363 14.6667 12.4343 14.5867 12.5943 14.4267C12.7543 14.2667 12.8341 14.0689 12.8335 13.8333V1.33333H3.66683V11.525H11.1668V13.8333C11.1668 14.0694 11.2468 14.2675 11.4068 14.4275C11.5668 14.5875 11.7646 14.6672 12.0002 14.6667ZM4.821 4.9875V4.15417H11.6793V4.9875H4.821ZM4.821 7.295V6.46167H11.6793V7.295H4.821ZM2.00016 14.6667H10.3335V12.3583H1.16683V13.8333C1.16683 14.0694 1.24683 14.2675 1.40683 14.4275C1.56683 14.5875 1.76461 14.6672 2.00016 14.6667ZM2.00016 14.6667H1.16683H10.3335H2.00016Z" fill="#0D4261"/>
</svg>
