<svg width="41" height="40" viewBox="0 0 41 40" fill="none" xmlns="http://www.w3.org/2000/svg">
<path d="M9.54355 19.7344C9.54355 19.7344 8.79668 21.8906 9.23418 24.1781C9.6748 26.4656 10.2904 28.5781 10.2904 28.5781C10.2904 28.5781 10.4217 33.0656 10.2904 33.55C10.1592 34.0344 9.14668 34.65 9.14668 35.5312C9.14668 36.4125 9.46855 37.525 11.0967 37.7906C12.7248 38.0562 14.0436 37.5125 14.5873 36.8531C15.3717 35.9 15.2186 35.225 15.2186 34.5219C15.2186 33.8187 15.2623 29.7719 15.4373 29.1531C15.6123 28.5375 15.8779 28.1844 16.3623 28.2281C16.8467 28.2719 17.3748 29.0187 17.4186 30.4281C17.4623 31.8344 17.5061 34.3 17.4623 34.7844C17.4186 35.2687 16.9779 36.8969 17.3311 37.5562C17.6842 38.2156 19.2811 38.8562 20.5123 38.7875C22.1248 38.7 23.0936 37.6875 23.1811 36.8969C23.2686 36.1062 22.7404 34.3 22.7404 33.7719C22.7404 33.2437 23.3561 29.6375 23.5311 29.4156C23.7061 29.1969 24.2436 29.2437 25.4217 28.7125C26.4936 28.2281 27.0654 27.7437 27.0654 27.7437C27.0654 27.7437 27.0936 30.8687 27.0498 31.2187C27.0061 31.5719 25.9498 32.6719 26.1248 33.5062C26.2998 34.3406 27.3311 34.8281 28.2498 34.9125C29.8029 35.0594 31.3154 33.8562 31.7092 32.8C32.1061 31.7437 31.9279 30.425 31.8404 29.7219C31.7529 29.0187 31.7529 26.5531 31.8404 25.8937C31.9279 25.2344 32.0717 24.8344 32.1279 24.4875C32.2154 23.9156 32.1936 23.2781 32.1936 23.2781C32.1936 23.2781 33.7123 23.2781 34.6123 22.6844C35.5123 22.0906 36.4592 21.0562 36.8779 19.7812C37.2873 18.5344 37.1873 18.1531 36.8342 18.1094C36.4811 18.0656 34.8998 20.2844 33.5561 20.3531C31.4217 20.4625 31.6342 18.175 30.0061 16.7906C28.1717 15.2281 25.3123 15.0312 25.3123 15.0312C25.3123 15.0312 25.8061 13.1844 25.8123 11.8187C25.8342 5.85624 22.9311 3.83436 22.9311 3.83436C22.9311 3.83436 19.4404 1.23436 15.4811 1.40936C11.5217 1.58436 8.61855 4.73124 8.61855 4.73124L6.44043 14.3437C6.44043 14.3437 6.99043 16.1906 7.87168 17.5344C8.79668 18.9406 9.54355 19.7344 9.54355 19.7344Z" fill="#FFD2B1"/>
<path d="M6.79395 2.6C3.55957 2.66562 1.8502 5.42187 1.8002 7.10938C1.77207 8.1 1.38145 15.3 5.3627 15.4469C6.95957 15.5062 8.14707 13.6531 8.7502 11.5531C9.50957 8.90625 9.4752 6.25312 9.5627 5.54687C9.70332 4.41875 9.9377 3.59062 9.9377 3.59062C9.9377 3.59062 9.54395 2.54375 6.79395 2.6ZM24.1064 1.5C27.6252 1.63125 28.8252 3.19062 29.1658 4.09687C29.5408 5.0875 29.8689 8.62187 29.3189 10.9812C28.8721 12.9062 28.1971 13.8844 26.6127 13.8188C25.1627 13.7594 24.4283 11.6687 23.3346 8.825C22.2783 6.075 21.4689 3.6125 21.3314 3.25937C21.1564 2.79687 20.7814 2.6 20.7814 2.6C20.7814 2.6 21.4846 1.4 24.1064 1.5Z" fill="#865B52"/>
<path d="M20.081 8.64686C18.3435 8.75624 17.5123 10.6875 17.881 12.6281C18.2779 14.7187 19.6498 15.7094 21.3779 15.4875C23.2685 15.2469 23.8404 13.0906 23.5998 11.4625C23.3779 9.98124 22.5404 8.49061 20.081 8.64686Z" fill="#D27856"/>
<path d="M22.1246 12.1875C22.1246 13.1 21.6183 13.8625 20.8152 13.8406C19.7246 13.8094 19.4402 12.8437 19.4621 12.0312C19.4871 11.0812 20.0558 10.6312 20.8683 10.6531C21.5933 10.6687 22.1246 11.275 22.1246 12.1875ZM12.9527 12.6906C12.9527 13.6406 12.4465 14.4344 11.6433 14.4094C10.5527 14.3781 10.2683 13.3719 10.2902 12.525C10.3152 11.5344 10.9933 11.1125 11.6308 11.1594C12.3527 11.2125 12.9527 11.7406 12.9527 12.6906ZM17.1308 17.9969C17.1308 17.9969 19.0433 17.8 18.9558 16.4125C18.8683 15.0281 17.5715 14.9375 16.559 14.9594C15.5465 14.9812 14.0965 15.5094 14.2496 16.675C14.4027 17.8406 16.0527 17.9937 16.0527 17.9937C16.0527 17.9937 16.0496 18.8562 15.4808 18.9187C14.8652 18.9844 13.984 18.0375 13.7433 17.7969C13.5027 17.5562 13.1277 17.6437 12.9965 17.8406C12.8652 18.0375 12.9527 18.4781 13.3277 18.8531C13.7027 19.2281 14.5808 20.1719 15.4621 20.0844C16.3433 19.9969 16.3652 19.5344 16.7152 19.5125C17.0683 19.4906 17.0465 20.0187 17.9246 19.9969C18.5433 19.9812 19.7902 18.8937 20.0152 18.7C20.5215 18.2594 20.6527 17.8187 20.434 17.5344C20.2152 17.25 19.5996 17.6656 19.2683 17.9094C18.9371 18.15 18.4027 18.7187 17.884 18.8125C17.0215 18.9656 17.1308 17.9969 17.1308 17.9969Z" fill="#060401"/>
<path d="M24.941 15.9344C24.941 15.9344 24.5254 16.8469 24.1785 17.5781C23.7597 18.4594 23.1597 19.2281 23.1597 19.2281C23.1597 19.2281 23.8379 23.8656 27.8722 23.4656C29.316 23.3219 30.4097 22.1906 30.5129 20.9906C30.6879 18.9656 29.9191 18.0188 28.7254 17.0938C26.791 15.6 24.941 15.9344 24.941 15.9344ZM22.1472 23.1875C21.4316 23.8438 21.816 25.0781 22.7629 25.2125C23.7097 25.3438 24.2191 24.5563 24.1472 23.9594C24.041 23.0344 22.9629 22.4406 22.1472 23.1875ZM12.8004 21.9688C12.8004 21.9688 12.1691 23.7 13.5035 25.8688C14.0722 26.7906 15.3379 27.3094 16.2316 27.275C17.1754 27.2406 18.0285 26.9125 18.7597 26C19.9254 24.5469 19.5941 22.1281 19.5941 22.1281C19.5941 22.1281 17.7472 22.8875 16.0535 22.8313C14.2504 22.775 12.8004 21.9688 12.8004 21.9688ZM10.4972 35.2188C10.0379 35.0781 9.85349 35.7906 9.82224 36.2438C9.79099 36.6969 9.79412 37.2844 10.2035 37.4313C10.6129 37.5781 10.5316 36.7063 10.5691 36.4188C10.6441 35.8656 10.9816 35.3656 10.4972 35.2188ZM12.3004 35.4844C12.0254 35.4719 11.7347 35.75 11.7004 36.5563C11.6722 37.2313 11.7004 37.7875 12.0816 37.8188C12.5941 37.8594 12.4504 37.2031 12.4785 36.6594C12.491 36.35 12.8722 35.5125 12.3004 35.4844ZM19.2972 36.3625C18.8566 36.3625 18.8441 36.8625 18.8441 37.4031C18.8441 37.9469 18.7316 38.6188 19.2254 38.6781C19.8254 38.75 19.7097 37.9438 19.7097 37.4906C19.7066 37.0969 19.7785 36.3625 19.2972 36.3625ZM21.291 36.2625C20.9379 36.3344 20.9691 36.8188 20.9816 37.4063C20.9972 37.9938 20.9097 38.6156 21.4066 38.5656C21.8316 38.5219 21.8035 37.8313 21.7879 37.3031C21.7754 36.8469 21.8347 36.1469 21.291 36.2625ZM27.3316 32.4406C27.0285 32.3813 26.6847 32.6375 26.5972 33.3219C26.5254 33.9094 26.5535 34.425 27.066 34.5375C27.3285 34.5969 27.3754 33.9219 27.3879 33.4375C27.4035 33.0188 27.7129 32.5156 27.3316 32.4406ZM28.9879 32.7969C28.6972 32.75 28.4129 32.9281 28.3379 33.6563C28.2941 34.0813 28.1379 34.8438 28.666 34.8719C29.0754 34.8906 29.0441 34.2188 29.0816 33.8688C29.141 33.3156 29.466 32.8781 28.9879 32.7969Z" fill="#D27856"/>
</svg>
