<svg width="18" height="18" viewBox="0 0 18 18" fill="none" xmlns="http://www.w3.org/2000/svg">
<path d="M5.02391 12.8175L5.02423 12.8156L5.4971 10.0668L3.50052 8.12364C3.50018 8.1233 3.49983 8.12297 3.49949 8.12263C3.35992 7.98775 3.26102 7.81638 3.21406 7.62804C3.16698 7.43922 3.174 7.24097 3.23431 7.05596C3.29462 6.87095 3.40579 6.70665 3.55509 6.58186C3.70383 6.45754 3.88443 6.37743 4.07637 6.3506L6.83419 5.94987L8.06638 3.45266C8.06667 3.45206 8.06696 3.45147 8.06725 3.45087C8.13076 3.32058 8.22091 3.20507 8.3319 3.11181C8.44339 3.01813 8.57338 2.94901 8.71339 2.90898C8.8534 2.86895 9.00029 2.8589 9.14445 2.87948C9.28802 2.89998 9.42567 2.95041 9.5485 3.0275C9.71298 3.1299 9.84533 3.27654 9.93038 3.45063C9.93062 3.45112 9.93086 3.45161 9.9311 3.45211L11.1636 5.94986L13.924 6.35082L13.9263 6.35116C14.1172 6.3798 14.2963 6.46104 14.4436 6.58576C14.5908 6.71048 14.7004 6.87376 14.7601 7.05729C14.8198 7.24083 14.8272 7.43735 14.7814 7.62483L14.2957 7.50629L14.7814 7.62484C14.7357 7.81232 14.6386 7.98336 14.5011 8.11877L14.4993 8.12055L12.5027 10.0667L12.9735 12.8143L5.02391 12.8175ZM5.02391 12.8175C4.99189 13.0082 5.01368 13.2039 5.08683 13.3828C5.15998 13.5617 5.28158 13.7167 5.43797 13.8302C5.59436 13.9438 5.77933 14.0115 5.97209 14.0257C6.16484 14.0399 6.35774 14.0001 6.52908 13.9106L6.5303 13.91M5.02391 12.8175L6.5303 13.91M6.5303 13.91L9 12.6124M6.5303 13.91L9 12.6124M9 12.6124L11.4668 13.9085L9 12.6124ZM12.0249 14.0257C11.8318 14.0395 11.6387 13.999 11.4674 13.9089L12.0249 14.0257ZM12.0249 14.0257C12.2182 14.0118 12.4038 13.9441 12.5606 13.8303M12.0249 14.0257L12.5606 13.8303M12.5606 13.8303C12.7174 13.7164 12.8392 13.5608 12.9122 13.3813M12.5606 13.8303L12.9122 13.3813M12.9122 13.3813C12.9851 13.2019 13.0064 13.0057 12.9736 12.8148L12.9122 13.3813ZM9 17.5C6.74566 17.5 4.58365 16.6045 2.98959 15.0104C1.39553 13.4163 0.5 11.2543 0.5 9C0.5 6.74566 1.39553 4.58365 2.98959 2.98959C4.58365 1.39553 6.74566 0.5 9 0.5C11.2543 0.5 13.4163 1.39553 15.0104 2.98959C16.6045 4.58365 17.5 6.74566 17.5 9C17.5 11.2543 16.6045 13.4163 15.0104 15.0104C13.4163 16.6045 11.2543 17.5 9 17.5Z" stroke="#0D4261"/>
</svg>
