<svg width="126" height="126" viewBox="0 0 126 126" fill="none" xmlns="http://www.w3.org/2000/svg">
<rect width="126" height="126" rx="63" fill="#7C8B9D"/>
<path d="M63 55.5C63 53.1988 64.8655 51.3333 67.1667 51.3333C69.4679 51.3333 71.3334 53.1988 71.3334 55.5C71.3334 57.8011 69.4679 59.6666 67.1667 59.6666C64.8655 59.6666 63 57.8011 63 55.5Z" fill="white"/>
<path fill-rule="evenodd" clip-rule="evenodd" d="M59.5938 44.6666C57.322 44.6666 55.5153 44.6666 54.0577 44.7857C52.565 44.9077 51.2922 45.1628 50.1268 45.7566C48.2452 46.7153 46.7154 48.2451 45.7566 50.1267C45.1628 51.2921 44.9077 52.5649 44.7858 54.0576C44.6667 55.5152 44.6667 57.322 44.6667 59.5937V66.4062C44.6667 68.678 44.6667 70.4847 44.7858 71.9423C44.9077 73.435 45.1628 74.7078 45.7566 75.8732C46.7154 77.7548 48.2452 79.2846 50.1268 80.2434C51.2922 80.8372 52.565 81.0923 54.0577 81.2142C55.5153 81.3333 57.3219 81.3333 59.5936 81.3333H66.4063C68.678 81.3333 70.4848 81.3333 71.9424 81.2142C73.4351 81.0923 74.7078 80.8372 75.8733 80.2434C77.7549 79.2846 79.2847 77.7548 80.2434 75.8732C80.8372 74.7078 81.0923 73.435 81.2143 71.9423C81.3334 70.4847 81.3334 68.6781 81.3334 66.4064V59.5937C81.3334 57.322 81.3334 55.5152 81.2143 54.0576C81.0923 52.5649 80.8372 51.2921 80.2434 50.1267C79.2847 48.2451 77.7549 46.7153 75.8733 45.7566C74.7078 45.1628 73.4351 44.9077 71.9424 44.7857C70.4847 44.6666 68.678 44.6666 66.4063 44.6666H59.5938ZM51.6401 48.7266C52.2573 48.4121 53.0426 48.2131 54.3291 48.108C55.6351 48.0013 57.3056 48 59.6667 48H66.3334C68.6944 48 70.365 48.0013 71.671 48.108C72.9575 48.2131 73.7428 48.4121 74.36 48.7266C75.6144 49.3657 76.6342 50.3856 77.2734 51.64C77.5879 52.2572 77.7869 53.0425 77.892 54.329C77.9987 55.635 78 57.3056 78 59.6666V66.3333C78 66.9306 77.9999 67.4838 77.9981 67.998L75.357 65.357C74.0553 64.0552 71.9447 64.0552 70.643 65.357L66.9226 69.0774C66.5972 69.4028 66.0695 69.4028 65.7441 69.0774L55.357 58.6903C54.0553 57.3886 51.9447 57.3886 50.643 58.6903L48 61.3333V59.6666C48 57.3056 48.0013 55.635 48.108 54.329C48.2131 53.0425 48.4122 52.2572 48.7266 51.64C49.3658 50.3856 50.3857 49.3657 51.6401 48.7266Z" fill="white"/>
</svg>
