<svg width="208" height="82" viewBox="0 0 208 82" fill="none" xmlns="http://www.w3.org/2000/svg">
<path d="M48.2725 14.27L6.5 38.57V23.99L35.75 6.97998L48.2725 14.27Z" fill="white"/>
<path d="M65 23.99V32.4015L13.7352 62.2157L6.5 58.01V50.0969L58.1668 20.0334L65 23.99Z" fill="white"/>
<path d="M23.6295 67.9792L65 43.9284V58.01L35.75 75.02L23.6295 67.9792Z" fill="white"/>
<path d="M85.3125 52.7996V27.1753H90.1383V48.9084H101.871V52.7996H85.3125Z" fill="white"/>
<path d="M128.826 39.9875C128.826 42.7484 128.289 45.1132 127.213 47.0817C126.147 49.0419 124.69 50.5433 122.843 51.586C121.004 52.6286 118.919 53.15 116.586 53.15C114.253 53.15 112.164 52.6286 110.316 51.586C108.478 50.535 107.021 49.0294 105.946 47.0692C104.879 45.1006 104.346 42.7401 104.346 39.9875C104.346 37.2265 104.879 34.8659 105.946 32.9057C107.021 30.9372 108.478 29.4316 110.316 28.3889C112.164 27.3463 114.253 26.825 116.586 26.825C118.919 26.825 121.004 27.3463 122.843 28.3889C124.69 29.4316 126.147 30.9372 127.213 32.9057C128.289 34.8659 128.826 37.2265 128.826 39.9875ZM123.974 39.9875C123.974 38.0439 123.658 36.4049 123.025 35.0703C122.401 33.7273 121.533 32.7139 120.423 32.0299C119.313 31.3376 118.034 30.9914 116.586 30.9914C115.138 30.9914 113.859 31.3376 112.749 32.0299C111.639 32.7139 110.767 33.7273 110.134 35.0703C109.51 36.4049 109.198 38.0439 109.198 39.9875C109.198 41.931 109.51 43.5742 110.134 44.9171C110.767 46.2517 111.639 47.2652 112.749 47.9575C113.859 48.6415 115.138 48.9835 116.586 48.9835C118.034 48.9835 119.313 48.6415 120.423 47.9575C121.533 47.2652 122.401 46.2517 123.025 44.9171C123.658 43.5742 123.974 41.931 123.974 39.9875Z" fill="white"/>
<path d="M151.235 35.3581C151.018 34.6824 150.719 34.0777 150.338 33.5438C149.965 33.0017 149.514 32.5387 148.985 32.155C148.465 31.7713 147.866 31.4835 147.19 31.2917C146.513 31.0915 145.776 30.9914 144.979 30.9914C143.548 30.9914 142.273 31.3376 141.154 32.0299C140.036 32.7222 139.155 33.7399 138.514 35.0828C137.881 36.4174 137.564 38.0439 137.564 39.9624C137.564 41.8976 137.881 43.5367 138.514 44.8796C139.147 46.2225 140.027 47.2443 141.154 47.945C142.282 48.6373 143.591 48.9835 145.083 48.9835C146.435 48.9835 147.606 48.7333 148.595 48.2328C149.592 47.7323 150.359 47.0233 150.897 46.1058C151.435 45.1799 151.704 44.0955 151.704 42.8527L152.796 43.0153H145.564V39.3869H156.373V42.4648C156.373 44.6586 155.888 46.5562 154.916 48.1577C153.945 49.7592 152.61 50.9937 150.91 51.8612C149.21 52.7204 147.259 53.15 145.057 53.15C142.603 53.15 140.448 52.6203 138.592 51.5609C136.745 50.4933 135.301 48.9793 134.26 47.0191C133.228 45.0506 132.712 42.715 132.712 40.0125C132.712 37.9438 133.016 36.0963 133.623 34.4697C134.239 32.8432 135.097 31.4627 136.198 30.3283C137.3 29.1855 138.592 28.318 140.075 27.7258C141.558 27.1252 143.171 26.825 144.914 26.825C146.388 26.825 147.762 27.0335 149.037 27.4505C150.312 27.8593 151.443 28.4432 152.432 29.2022C153.429 29.9613 154.249 30.8621 154.89 31.9048C155.532 32.9474 155.953 34.0985 156.152 35.3581H151.235Z" fill="white"/>
<path d="M184.844 39.9875C184.844 42.7484 184.306 45.1132 183.231 47.0817C182.164 49.0419 180.707 50.5433 178.86 51.586C177.022 52.6286 174.936 53.15 172.604 53.15C170.271 53.15 168.181 52.6286 166.334 51.586C164.495 50.535 163.039 49.0294 161.963 47.0692C160.897 45.1006 160.363 42.7401 160.363 39.9875C160.363 37.2265 160.897 34.8659 161.963 32.9057C163.039 30.9372 164.495 29.4316 166.334 28.3889C168.181 27.3463 170.271 26.825 172.604 26.825C174.936 26.825 177.022 27.3463 178.86 28.3889C180.707 29.4316 182.164 30.9372 183.231 32.9057C184.306 34.8659 184.844 37.2265 184.844 39.9875ZM179.992 39.9875C179.992 38.0439 179.675 36.4049 179.042 35.0703C178.418 33.7273 177.551 32.7139 176.441 32.0299C175.331 31.3376 174.052 30.9914 172.604 30.9914C171.155 30.9914 169.876 31.3376 168.766 32.0299C167.656 32.7139 166.785 33.7273 166.152 35.0703C165.527 36.4049 165.215 38.0439 165.215 39.9875C165.215 41.931 165.527 43.5742 166.152 44.9171C166.785 46.2517 167.656 47.2652 168.766 47.9575C169.876 48.6415 171.155 48.9835 172.604 48.9835C174.052 48.9835 175.331 48.6415 176.441 47.9575C177.551 47.2652 178.418 46.2517 179.042 44.9171C179.675 43.5742 179.992 41.931 179.992 39.9875Z" fill="white"/>
</svg>
