<svg width="40" height="41" viewBox="0 0 40 41" fill="none" xmlns="http://www.w3.org/2000/svg">
<path d="M20 13.0001C20 10.6989 21.8655 8.83342 24.1667 8.83342C26.4679 8.83342 28.3333 10.6989 28.3333 13.0001C28.3333 15.3013 26.4679 17.1667 24.1667 17.1667C21.8655 17.1667 20 15.3013 20 13.0001Z" fill="#ADB5BF"/>
<path fill-rule="evenodd" clip-rule="evenodd" d="M16.5937 2.16675C14.322 2.16674 12.5153 2.16672 11.0576 2.28582C9.56497 2.40777 8.29218 2.66288 7.12677 3.25668C5.24515 4.21542 3.71534 5.74522 2.75661 7.62684C2.1628 8.79226 1.9077 10.065 1.78574 11.5577C1.66665 13.0154 1.66666 14.8221 1.66667 17.0938V23.9063C1.66666 26.1781 1.66665 27.9848 1.78574 29.4425C1.9077 30.9351 2.1628 32.2079 2.75661 33.3733C3.71534 35.2549 5.24515 36.7847 7.12677 37.7435C8.29218 38.3373 9.56497 38.5924 11.0576 38.7143C12.5152 38.8334 14.3219 38.8334 16.5936 38.8334H23.4063C25.678 38.8334 27.4848 38.8334 28.9424 38.7143C30.435 38.5924 31.7078 38.3373 32.8732 37.7435C34.7549 36.7847 36.2847 35.2549 37.2434 33.3733C37.8372 32.2079 38.0923 30.9351 38.2143 29.4425C38.3334 27.9848 38.3334 26.1782 38.3333 23.9065V17.0938C38.3334 14.8221 38.3334 13.0153 38.2143 11.5577C38.0923 10.065 37.8372 8.79226 37.2434 7.62684C36.2847 5.74522 34.7549 4.21542 32.8732 3.25668C31.7078 2.66288 30.435 2.40777 28.9424 2.28582C27.4847 2.16672 25.678 2.16674 23.4063 2.16675H16.5937ZM8.64007 6.22671C9.25726 5.91223 10.0425 5.7132 11.3291 5.60808C12.6351 5.50138 14.3056 5.50008 16.6667 5.50008H23.3333C25.6944 5.50008 27.3649 5.50138 28.6709 5.60808C29.9575 5.7132 30.7428 5.91223 31.3599 6.22671C32.6144 6.86586 33.6342 7.88573 34.2734 9.14015C34.5879 9.75733 34.7869 10.5426 34.892 11.8292C34.9987 13.1351 35 14.8057 35 17.1667V23.8334C35 24.4308 34.9999 24.9839 34.9981 25.4981L32.357 22.8571C31.0553 21.5554 28.9447 21.5554 27.643 22.8571L23.9226 26.5775C23.5972 26.9029 23.0695 26.9029 22.7441 26.5775L12.357 16.1904C11.0553 14.8887 8.94473 14.8887 7.64299 16.1904L5.00001 18.8334V17.1667C5.00001 14.8057 5.0013 13.1351 5.10801 11.8292C5.21312 10.5426 5.41216 9.75733 5.72663 9.14015C6.36579 7.88573 7.38565 6.86586 8.64007 6.22671Z" fill="#ADB5BF"/>
<path d="M20 13.0001C20 10.6989 21.8655 8.83342 24.1667 8.83342C26.4679 8.83342 28.3333 10.6989 28.3333 13.0001C28.3333 15.3013 26.4679 17.1667 24.1667 17.1667C21.8655 17.1667 20 15.3013 20 13.0001Z" stroke="#ADB5BF" stroke-width="1.67"/>
<path fill-rule="evenodd" clip-rule="evenodd" d="M16.5937 2.16675C14.322 2.16674 12.5153 2.16672 11.0576 2.28582C9.56497 2.40777 8.29218 2.66288 7.12677 3.25668C5.24515 4.21542 3.71534 5.74522 2.75661 7.62684C2.1628 8.79226 1.9077 10.065 1.78574 11.5577C1.66665 13.0154 1.66666 14.8221 1.66667 17.0938V23.9063C1.66666 26.1781 1.66665 27.9848 1.78574 29.4425C1.9077 30.9351 2.1628 32.2079 2.75661 33.3733C3.71534 35.2549 5.24515 36.7847 7.12677 37.7435C8.29218 38.3373 9.56497 38.5924 11.0576 38.7143C12.5152 38.8334 14.3219 38.8334 16.5936 38.8334H23.4063C25.678 38.8334 27.4848 38.8334 28.9424 38.7143C30.435 38.5924 31.7078 38.3373 32.8732 37.7435C34.7549 36.7847 36.2847 35.2549 37.2434 33.3733C37.8372 32.2079 38.0923 30.9351 38.2143 29.4425C38.3334 27.9848 38.3334 26.1782 38.3333 23.9065V17.0938C38.3334 14.8221 38.3334 13.0153 38.2143 11.5577C38.0923 10.065 37.8372 8.79226 37.2434 7.62684C36.2847 5.74522 34.7549 4.21542 32.8732 3.25668C31.7078 2.66288 30.435 2.40777 28.9424 2.28582C27.4847 2.16672 25.678 2.16674 23.4063 2.16675H16.5937ZM8.64007 6.22671C9.25726 5.91223 10.0425 5.7132 11.3291 5.60808C12.6351 5.50138 14.3056 5.50008 16.6667 5.50008H23.3333C25.6944 5.50008 27.3649 5.50138 28.6709 5.60808C29.9575 5.7132 30.7428 5.91223 31.3599 6.22671C32.6144 6.86586 33.6342 7.88573 34.2734 9.14015C34.5879 9.75733 34.7869 10.5426 34.892 11.8292C34.9987 13.1351 35 14.8057 35 17.1667V23.8334C35 24.4308 34.9999 24.9839 34.9981 25.4981L32.357 22.8571C31.0553 21.5554 28.9447 21.5554 27.643 22.8571L23.9226 26.5775C23.5972 26.9029 23.0695 26.9029 22.7441 26.5775L12.357 16.1904C11.0553 14.8887 8.94473 14.8887 7.64299 16.1904L5.00001 18.8334V17.1667C5.00001 14.8057 5.0013 13.1351 5.10801 11.8292C5.21312 10.5426 5.41216 9.75733 5.72663 9.14015C6.36579 7.88573 7.38565 6.86586 8.64007 6.22671Z" stroke="#ADB5BF" stroke-width="1.67"/>
</svg>
