<svg width="20" height="20" viewBox="0 0 20 20" fill="none" xmlns="http://www.w3.org/2000/svg">
<path d="M18.1297 17.1721L15.2652 14.3715L15.1981 14.2694C15.0732 14.1452 14.9026 14.0751 14.7244 14.0751C14.5462 14.0751 14.3755 14.1452 14.2507 14.2694C11.8163 16.5028 8.0652 16.6242 5.48509 14.5531C2.90497 12.482 2.29647 8.86116 4.06315 6.09183C5.82983 3.3225 9.42347 2.26406 12.4608 3.61847C15.4981 4.97288 17.0366 8.31985 16.0559 11.4397C15.9853 11.6651 16.043 11.9102 16.2074 12.0827C16.3717 12.2551 16.6177 12.3288 16.8526 12.2759C17.0876 12.223 17.2758 12.0516 17.3464 11.8262C18.5187 8.12389 16.7482 4.13965 13.1802 2.4509C9.61216 0.762155 5.31745 1.87571 3.07429 5.0712C0.83114 8.2667 1.31273 12.5851 4.20752 15.2329C7.10232 17.8807 11.5416 18.0633 14.6535 15.6624L17.1898 18.1421C17.4517 18.3971 17.8752 18.3971 18.1372 18.1421C18.3988 17.8835 18.3988 17.4672 18.1372 17.2086L18.1297 17.1721Z" fill="#7C8B9D"/>
</svg>
