<svg width="20" height="20" viewBox="0 0 20 20" fill="none" xmlns="http://www.w3.org/2000/svg">
<path fill-rule="evenodd" clip-rule="evenodd" d="M10 0.888912C4.47715 0.888912 0 5.16708 0 10.4445C0 15.7218 4.47715 20 10 20C15.5228 20 20 15.7218 20 10.4445C20 5.16708 15.5228 0.888912 10 0.888912ZM10.6977 6.88891C10.6977 6.52072 10.3853 6.22224 10 6.22224C9.61469 6.22224 9.30233 6.52072 9.30233 6.88891V10.6274C9.30233 10.9108 9.18903 11.1835 8.98559 11.3896L7.6319 12.7616C7.36758 13.0295 7.38058 13.4515 7.66093 13.704C7.94129 13.9566 8.38284 13.9442 8.64717 13.6763L10.0009 12.3043C10.4484 11.8507 10.6977 11.2508 10.6977 10.6274V6.88891Z" fill="#A85CF9"/>
<path d="M4.38932 1.18727C4.6902 0.957263 4.73899 0.537735 4.49828 0.250228C4.25758 -0.0372801 3.81854 -0.0838942 3.51765 0.146112L1.19207 1.92389C0.891193 2.15389 0.842411 2.57342 1.08311 2.86093C1.32382 3.14844 1.76286 3.19505 2.06374 2.96504L4.38932 1.18727Z" fill="#A85CF9"/>
<path d="M16.4823 0.146112C16.1815 -0.0838942 15.7424 -0.0372801 15.5017 0.250228C15.261 0.537735 15.3098 0.957263 15.6107 1.18727L17.9363 2.96504C18.2371 3.19505 18.6762 3.14844 18.9169 2.86093C19.1576 2.57342 19.1088 2.15389 18.8079 1.92389L16.4823 0.146112Z" fill="#A85CF9"/>
</svg>
