<svg width="16" height="16" viewBox="0 0 16 16" fill="none" xmlns="http://www.w3.org/2000/svg">
<path d="M8.00002 11.3334C7.6464 11.3334 7.30726 11.1929 7.05721 10.9428C6.80716 10.6928 6.66669 10.3536 6.66669 10C6.66669 9.26002 7.26002 8.66669 8.00002 8.66669C8.35364 8.66669 8.69278 8.80716 8.94283 9.05721C9.19288 9.30726 9.33335 9.6464 9.33335 10C9.33335 10.3536 9.19288 10.6928 8.94283 10.9428C8.69278 11.1929 8.35364 11.3334 8.00002 11.3334ZM12 13.3334V6.66669H4.00002V13.3334H12ZM12 5.33335C12.3536 5.33335 12.6928 5.47383 12.9428 5.72388C13.1929 5.97393 13.3334 6.31307 13.3334 6.66669V13.3334C13.3334 13.687 13.1929 14.0261 12.9428 14.2762C12.6928 14.5262 12.3536 14.6667 12 14.6667H4.00002C3.6464 14.6667 3.30726 14.5262 3.05721 14.2762C2.80716 14.0261 2.66669 13.687 2.66669 13.3334V6.66669C2.66669 5.92669 3.26002 5.33335 4.00002 5.33335H4.66669V4.00002C4.66669 3.11597 5.01788 2.26812 5.643 1.643C6.26812 1.01788 7.11597 0.666687 8.00002 0.666687C8.43776 0.666687 8.87121 0.752906 9.27563 0.920422C9.68005 1.08794 10.0475 1.33347 10.357 1.643C10.6666 1.95253 10.9121 2.31999 11.0796 2.72441C11.2471 3.12883 11.3334 3.56228 11.3334 4.00002V5.33335H12ZM8.00002 2.00002C7.46959 2.00002 6.96088 2.21073 6.58581 2.58581C6.21073 2.96088 6.00002 3.46959 6.00002 4.00002V5.33335H10V4.00002C10 3.46959 9.78931 2.96088 9.41423 2.58581C9.03916 2.21073 8.53045 2.00002 8.00002 2.00002Z" fill="#9B9B9B"/>
</svg>
