<svg width="24" height="24" viewBox="0 0 24 24" fill="none" xmlns="http://www.w3.org/2000/svg">
<path d="M15 15H22.5V16.5H15V15ZM15 18H19.5V19.5H15V18Z" fill="#9B9B9B"/>
<path d="M22.5 12.75V12C22.498 9.82186 21.818 7.69836 20.5545 5.92418C19.2909 4.15001 17.5064 2.81315 15.4486 2.09914C13.3908 1.38512 11.1618 1.32935 9.07086 1.93958C6.97994 2.5498 5.13083 3.79575 3.78011 5.50452C2.4294 7.21329 1.64409 9.30013 1.53315 11.4754C1.42221 13.6508 1.99116 15.8067 3.16103 17.644C4.33089 19.4813 6.04367 20.9089 8.06166 21.7287C10.0797 22.5484 12.3028 22.7197 14.4225 22.2188L14.0775 20.7593C13.3967 20.92 12.6995 21.0008 12 21C11.8575 21 11.7188 20.9858 11.5778 20.9798C9.95021 18.5401 9.06186 15.6824 9.01953 12.75H22.5ZM20.9693 11.25H16.4813C16.3974 8.48662 15.686 5.77853 14.4008 3.33075C16.1728 3.82305 17.7519 4.84558 18.9262 6.26112C20.1004 7.67666 20.8128 9.41749 20.9693 11.25ZM12.4223 3.02025C14.0499 5.45986 14.9382 8.31762 14.9805 11.25H9.01953C9.06186 8.31762 9.95021 5.45986 11.5778 3.02025C11.7188 3.015 11.8575 3 12 3C12.1425 3 12.2813 3.01425 12.4223 3.02025ZM9.59928 3.33075C8.3141 5.77853 7.60265 8.48662 7.51878 11.25H3.03153C3.18786 9.41768 3.90083 7.67699 5.07477 6.26147C6.24872 4.84595 7.82749 3.82331 9.59928 3.33075ZM9.59928 20.6693C7.82749 20.1767 6.24872 19.1541 5.07477 17.7385C3.90083 16.323 3.18786 14.5823 3.03153 12.75H7.51878C7.60265 15.5134 8.3141 18.2215 9.59928 20.6693Z" fill="#9B9B9B"/>
</svg>
