<svg width="20" height="20" viewBox="0 0 20 20" fill="none" xmlns="http://www.w3.org/2000/svg">
<g clip-path="url(#clip0_1176_1751)">
<path d="M10 0.399994C7.45395 0.399994 5.01215 1.41142 3.2118 3.21177C1.41145 5.01212 0.400024 7.45392 0.400024 9.99999C0.40009 11.2607 0.648466 12.509 1.13097 13.6737C1.61348 14.8384 2.32066 15.8967 3.21215 16.7881C4.10364 17.6795 5.16197 18.3865 6.32673 18.8689C7.49148 19.3513 8.73983 19.5996 10.0005 19.5995C11.2612 19.5994 12.5095 19.3511 13.6742 18.8685C14.8389 18.386 15.8972 17.6789 16.7886 16.7874C17.68 15.8959 18.3871 14.8375 18.8695 13.6728C19.3518 12.508 19.6001 11.2597 19.6 9.99899C19.6 4.69799 15.301 0.399994 10 0.399994ZM10 17.599C9.00198 17.599 8.0137 17.4024 7.09163 17.0205C6.16956 16.6385 5.33174 16.0787 4.62601 15.373C3.92029 14.6673 3.36048 13.8295 2.97854 12.9074C2.5966 11.9853 2.40002 10.997 2.40002 9.99899C2.40002 9.00095 2.5966 8.01267 2.97854 7.0906C3.36048 6.16853 3.92029 5.33071 4.62601 4.62498C5.33174 3.91926 6.16956 3.35945 7.09163 2.97751C8.0137 2.59557 9.00198 2.39899 10 2.39899V9.99999L16.792 6.60399C17.3229 7.65733 17.5997 8.82042 17.6 9.99999C17.5998 12.0155 16.7989 13.9483 15.3737 15.3734C13.9484 16.7984 12.0155 17.599 10 17.599Z" fill="black" fill-opacity="0.85"/>
</g>
<defs>
<clipPath id="clip0_1176_1751">
<rect width="20" height="20" fill="white"/>
</clipPath>
</defs>
</svg>
