<svg style="enable-background:new 0 0 1024 1024;" version="1.1" viewBox="0 0 1024 1280" x="0px" xmlns="http://www.w3.org/2000/svg" y="0px"
    xml:space="preserve"><g><path d="M855.12,175H168.88C128.14,175,95,208.14,95,248.88v526.24c0,40.74,33.14,73.88,73.88,73.88h686.24   c40.74,0,73.88-33.14,73.88-73.88V248.88C929,208.14,895.86,175,855.12,175z M879,640.85l-191.61-249   c-2.84-3.69-7.23-5.85-11.89-5.85s-9.05,2.16-11.89,5.85L421.29,706.76l-9.47,12.3l-2.42,3.15l-7.04,9.15L350.31,799h-38.23   l71.16-92.48l9.47-12.3l9.46-12.3L294.39,541.85c-2.84-3.69-7.23-5.85-11.89-5.85s-9.05,2.16-11.89,5.85L145,705.09V248.88   c0-13.17,10.71-23.88,23.88-23.88h686.24c13.17,0,23.88,10.71,23.88,23.88V640.85z"/><circle
    cx="385" cy="370" r="69" /></g>
    <text fill="#000000" font-family="'Helvetica Neue', Helvetica, Arial-Unicode, Arial, Sans-serif" font-size="5px" font-weight="bold" x="0"
        y="1039">Created by shashank singh</text>
    <text fill="#000000" font-family="'Helvetica Neue', Helvetica, Arial-Unicode, Arial, Sans-serif" font-size="5px" font-weight="bold" x="0"
        y="1044">from the Noun Project</text></svg>