<svg width="20" height="20" viewBox="0 0 20 20" fill="none" xmlns="http://www.w3.org/2000/svg">
<rect width="20" height="20" rx="10" fill="white"/>
<path d="M8.5 15.5H7C6.86739 15.5 6.74021 15.4473 6.64645 15.3536C6.55268 15.2598 6.5 15.1326 6.5 15V5C6.5 4.86739 6.55268 4.74021 6.64645 4.64645C6.74021 4.55268 6.86739 4.5 7 4.5H8.5C8.63261 4.5 8.75979 4.55268 8.85355 4.64645C8.94732 4.74021 9 4.86739 9 5V15C9 15.1326 8.94732 15.2598 8.85355 15.3536C8.75979 15.4473 8.63261 15.5 8.5 15.5ZM13 15.5H11.5C11.3674 15.5 11.2402 15.4473 11.1464 15.3536C11.0527 15.2598 11 15.1326 11 15V5C11 4.86739 11.0527 4.74021 11.1464 4.64645C11.2402 4.55268 11.3674 4.5 11.5 4.5H13C13.1326 4.5 13.2598 4.55268 13.3536 4.64645C13.4473 4.74021 13.5 4.86739 13.5 5V15C13.5 15.1326 13.4473 15.2598 13.3536 15.3536C13.2598 15.4473 13.1326 15.5 13 15.5Z" fill="#B7BEC6"/>
</svg>
