<svg width="24" height="24" viewBox="0 0 24 24" fill="none" xmlns="http://www.w3.org/2000/svg">
<path d="M15.25 13C16.217 13 17 13.784 17 14.75V19.25C17 19.7141 16.8156 20.1592 16.4874 20.4874C16.1592 20.8156 15.7141 21 15.25 21H3.74997C3.28584 21 2.84072 20.8156 2.51253 20.4874C2.18435 20.1592 1.99997 19.7141 1.99997 19.25V14.75C1.99997 13.784 2.78397 13 3.74997 13H15.25ZM21 14.899V20.25C20.9999 20.44 20.9277 20.6229 20.798 20.7618C20.6683 20.9006 20.4907 20.9851 20.3011 20.998C20.1115 21.011 19.9241 20.9515 19.7767 20.8316C19.6293 20.7117 19.5329 20.5402 19.507 20.352L19.5 20.25V14.912C19.993 15.0345 20.5091 15.03 21 14.899ZM15.25 14.5H3.74997C3.68367 14.5 3.62008 14.5263 3.57319 14.5732C3.52631 14.6201 3.49997 14.6837 3.49997 14.75V19.25C3.49997 19.388 3.61197 19.5 3.74997 19.5H15.25C15.3163 19.5 15.3799 19.4737 15.4267 19.4268C15.4736 19.3799 15.5 19.3163 15.5 19.25V14.75C15.5 14.6837 15.4736 14.6201 15.4267 14.5732C15.3799 14.5263 15.3163 14.5 15.25 14.5ZM20.25 10.092C20.756 10.092 21.2413 10.293 21.5991 10.6508C21.9569 11.0087 22.158 11.494 22.158 12C22.158 12.506 21.9569 12.9913 21.5991 13.3492C21.2413 13.707 20.756 13.908 20.25 13.908C19.7439 13.908 19.2586 13.707 18.9008 13.3492C18.543 12.9913 18.342 12.506 18.342 12C18.342 11.494 18.543 11.0087 18.9008 10.6508C19.2586 10.293 19.7439 10.092 20.25 10.092ZM15.246 3C16.213 3 16.996 3.784 16.996 4.75V9.25C16.996 9.71413 16.8116 10.1592 16.4834 10.4874C16.1552 10.8156 15.7101 11 15.246 11H3.74597C3.28184 11 2.83672 10.8156 2.50853 10.4874C2.18035 10.1592 1.99597 9.71413 1.99597 9.25V4.75C1.99601 4.31065 2.1613 3.88739 2.45902 3.56429C2.75674 3.24119 3.16509 3.0419 3.60297 3.006L3.74597 3H15.246ZM15.246 4.5H3.74597L3.68897 4.507C3.63413 4.51984 3.58523 4.55083 3.5502 4.59493C3.51518 4.63904 3.49607 4.69368 3.49597 4.75V9.25C3.49597 9.388 3.60797 9.5 3.74597 9.5H15.246C15.3123 9.5 15.3759 9.47366 15.4227 9.42678C15.4696 9.37989 15.496 9.3163 15.496 9.25V4.75C15.496 4.6837 15.4696 4.62011 15.4227 4.57322C15.3759 4.52634 15.3123 4.5 15.246 4.5ZM20.25 3C20.4314 2.99977 20.6067 3.06529 20.7435 3.18444C20.8803 3.30359 20.9693 3.46828 20.994 3.648L21 3.75V9.101C20.5091 8.96989 19.993 8.96542 19.5 9.088V3.75C19.5 3.55109 19.579 3.36032 19.7196 3.21967C19.8603 3.07902 20.0511 3 20.25 3Z" fill="#213856"/>
</svg>
