<svg xmlns="http://www.w3.org/2000/svg" viewBox="0 0 32 40" x="0px" y="0px"><title>communication</title><path d="M16,2A14,14,0,1,0,30,16,14,14,0,0,0,16,2ZM8.24,25.14a8,8,0,0,1,5.23-5.71,5.9,5.9,0,0,0,5.06,0,8,8,0,0,1,5.23,5.71,12,12,0,0,1-15.52,0ZM16,18a4,4,0,1,1,4-4A4,4,0,0,1,16,18Zm9.34,5.51a10,10,0,0,0-4.93-5.46,6,6,0,1,0-8.82,0,10,10,0,0,0-4.93,5.46,12,12,0,1,1,18.68,0Z"/><text x="0" y="47" fill="#000000" font-size="5px" font-weight="bold" font-family="'Helvetica Neue', Helvetica, Arial-Unicode, Arial, Sans-serif">Created by Lagot Design</text><text x="0" y="52" fill="#000000" font-size="5px" font-weight="bold" font-family="'Helvetica Neue', Helvetica, Arial-Unicode, Arial, Sans-serif">from the Noun Project</text></svg>