<svg width="24" height="24" viewBox="0 0 24 24" fill="none" xmlns="http://www.w3.org/2000/svg">
<path d="M20.5854 17.1674C19.8971 16.4786 19.0928 15.9163 18.2095 15.5065C19.4552 14.4972 20.2499 12.9573 20.2499 11.2303C20.2499 8.18343 17.709 5.68376 14.662 5.73051C11.6618 5.77726 9.24452 8.22193 9.24452 11.2303C9.24452 12.9573 10.042 14.4972 11.285 15.5065C10.4015 15.916 9.59712 16.4783 8.90902 17.1674C7.40753 18.6716 6.55503 20.6571 6.50003 22.7745C6.4993 22.8039 6.50445 22.8331 6.51518 22.8604C6.5259 22.8877 6.54199 22.9126 6.56249 22.9336C6.583 22.9546 6.6075 22.9713 6.63455 22.9827C6.66161 22.9941 6.69067 23 6.72003 23H8.26002C8.37827 23 8.47727 22.9065 8.48002 22.7883C8.53227 21.1933 9.17852 19.7001 10.3143 18.5671C10.8954 17.9829 11.5867 17.5197 12.3481 17.2044C13.1095 16.8891 13.9259 16.7279 14.75 16.7302C16.4247 16.7302 18.0005 17.3819 19.1857 18.5671C20.3187 19.7001 20.9649 21.1933 21.0199 22.7883C21.0227 22.9065 21.1217 23 21.2399 23H22.7799C22.8093 23 22.8384 22.9941 22.8654 22.9827C22.8925 22.9713 22.917 22.9546 22.9375 22.9336C22.958 22.9126 22.9741 22.8877 22.9848 22.8604C22.9955 22.8331 23.0007 22.8039 22.9999 22.7745C22.9449 20.6571 22.0924 18.6716 20.5854 17.1674ZM14.75 14.7502C13.8095 14.7502 12.924 14.3845 12.2612 13.719C11.9286 13.389 11.6659 12.9955 11.4887 12.5617C11.3116 12.128 11.2236 11.6631 11.23 11.1946C11.2383 10.2926 11.5985 9.4209 12.2282 8.77467C12.8882 8.09819 13.771 7.72145 14.7142 7.71045C15.6465 7.7022 16.5512 8.06519 17.2167 8.71692C17.8987 9.38515 18.2727 10.2789 18.2727 11.2303C18.2727 12.1708 17.907 13.0535 17.2415 13.719C16.915 14.0471 16.5267 14.3071 16.099 14.4841C15.6713 14.6611 15.2128 14.7516 14.75 14.7502ZM7.86128 11.9563C7.83653 11.7171 7.82278 11.4751 7.82278 11.2303C7.82278 10.7931 7.86403 10.3669 7.94103 9.95163C7.96028 9.85264 7.90803 9.75089 7.81728 9.70964C7.44328 9.5419 7.09953 9.3109 6.80253 9.01941C6.45257 8.68009 6.17718 8.27155 5.99394 7.81985C5.8107 7.36815 5.72363 6.88322 5.73829 6.39599C5.76304 5.51326 6.11779 4.67454 6.73653 4.04206C7.41578 3.34633 8.32877 2.96684 9.29952 2.97784C10.1768 2.98609 11.0238 3.32433 11.6645 3.92381C11.8818 4.1273 12.0688 4.3528 12.2255 4.59479C12.2805 4.68004 12.3877 4.71579 12.4812 4.68279C12.9652 4.51504 13.4767 4.3968 14.002 4.3418C14.156 4.3253 14.244 4.1603 14.1752 4.02281C13.2815 2.25461 11.4555 1.03364 9.34352 1.00065C6.29379 0.953897 3.7528 3.45357 3.7528 6.49773C3.7528 8.22468 4.54755 9.76464 5.79329 10.7739C4.91879 11.1781 4.11305 11.7363 3.41455 12.4348C1.90756 13.939 1.05507 15.9245 1.00007 18.0446C0.999335 18.074 1.00448 18.1032 1.01521 18.1305C1.02594 18.1579 1.04203 18.1828 1.06253 18.2038C1.08303 18.2248 1.10753 18.2415 1.13459 18.2529C1.16164 18.2643 1.19071 18.2701 1.22007 18.2701H2.76281C2.88106 18.2701 2.98006 18.1766 2.98281 18.0584C3.03506 16.4634 3.6813 14.9702 4.81705 13.8373C5.62554 13.0288 6.61553 12.4678 7.69628 12.1956C7.80353 12.1681 7.87503 12.0663 7.86128 11.9563Z" fill="#566F8F"/>
</svg>
