<svg width="61" height="40" viewBox="0 0 61 40" fill="none" xmlns="http://www.w3.org/2000/svg">
<path d="M0.25 7.76536C0.25 5.6779 1.28142 3.88268 3.28698 2.42146C5.34983 0.918483 7.75649 0.208747 10.6216 0.208747C13.4293 0.208747 15.8933 0.960233 17.8988 2.42146C19.9044 3.92443 20.9358 5.6779 20.9358 7.76536C20.9358 9.85282 19.9044 11.648 17.8988 13.1093C15.8933 14.6122 13.4293 15.322 10.6216 15.322C7.75649 15.322 5.29253 14.5705 3.28698 13.1093C1.28142 11.648 0.25 9.85282 0.25 7.76536ZM5.29253 7.76536C5.29253 8.85084 5.80824 9.76933 6.83966 10.5626C7.92839 11.3558 9.18902 11.7315 10.6789 11.7315C12.1687 11.7315 13.4293 11.3558 14.5181 10.5626C15.6068 9.76933 16.1225 8.85084 16.1225 7.76536C16.1225 6.67988 15.6068 5.7614 14.5181 4.96816C13.4293 4.17493 12.1687 3.79918 10.6789 3.79918C9.18902 3.79918 7.92839 4.17493 6.83966 4.96816C5.80824 5.71965 5.29253 6.67988 5.29253 7.76536ZM27.5828 26.2185C27.5828 29.4332 28.7861 32.2722 31.2501 34.7771C32.5107 36.0714 34.2871 37.1151 36.5791 37.9083C38.8139 38.6598 41.3924 39.0773 44.2575 39.0773C52.6235 39.0773 57.8953 36.7393 60.0154 32.1052C60.2446 31.5207 60.13 30.9362 59.6716 30.3935C59.2132 29.8507 58.5829 29.5585 57.7807 29.4332C56.9784 29.2662 56.1762 29.3497 55.4886 29.7255C54.801 30.0595 54.3426 30.5187 54.1707 31.1449C54.1707 31.1867 54.1707 31.2284 54.1134 31.3537L53.9988 31.6459C53.3684 32.4392 52.5089 33.0654 51.4202 33.5247C49.6439 34.3179 47.2945 34.6936 44.3721 34.6936C42.5958 34.6936 40.9913 34.4849 39.6161 34.0256C37.324 33.3159 35.7196 32.0634 34.7455 30.31C34.1152 29.1827 33.7714 27.805 33.7714 26.2603V12.817C33.7714 12.1908 33.8287 11.5645 33.9433 10.9383C34.1725 9.35183 35.032 7.89061 36.5218 6.59638C38.1836 5.13516 40.8194 4.42542 44.4294 4.42542C47.4091 4.42542 49.7585 4.80116 51.4775 5.55265C52.6235 6.05364 53.483 6.67988 54.0561 7.43137C54.1134 7.51487 54.1134 7.64011 54.1707 7.76536C54.228 7.89061 54.228 7.97411 54.228 8.01586C54.4572 8.60035 54.9156 9.01784 55.5459 9.26834C56.2335 9.56058 56.9784 9.60233 57.838 9.47708C58.6402 9.35184 59.2705 9.01784 59.7289 8.51685C60.1873 8.01586 60.3019 7.47312 60.0727 6.84688V6.80513L59.6143 5.8449C59.3278 5.38566 58.8121 4.75942 58.0099 4.04968C57.2649 3.29819 56.3481 2.7137 55.4313 2.21271C54.228 1.58647 52.6808 1.08548 50.7326 0.626241C48.7843 0.208749 46.6642 0 44.3721 0C41.4497 0 38.9285 0.375745 36.6364 1.12723C34.4017 1.87872 32.6253 2.8807 31.422 4.17493C28.958 6.63813 27.6974 9.51883 27.6974 12.817V26.2185H27.5828Z" fill="white"/>
</svg>
