<svg width="33" height="33" viewBox="0 0 33 33" fill="none" xmlns="http://www.w3.org/2000/svg">
<path d="M7.07692 9H5.38462C4.48696 9 3.62607 9.35659 2.99133 9.99133C2.35659 10.6261 2 11.487 2 12.3846V27.6154C2 28.513 2.35659 29.3739 2.99133 30.0087C3.62607 30.6434 4.48696 31 5.38462 31H20.6154C21.513 31 22.3739 30.6434 23.0087 30.0087C23.6434 29.3739 24 28.513 24 27.6154V25.9231" stroke="#111111" stroke-width="3" stroke-linecap="round" stroke-linejoin="round"/>
<path d="M22.2499 5.33348L27.4998 10.3334M29.9236 7.97513C30.6128 7.31872 31 6.42844 31 5.50015C31 4.57185 30.6128 3.68157 29.9236 3.02517C29.2343 2.36876 28.2996 2 27.3248 2C26.3501 2 25.4153 2.36876 24.7261 3.02517L10 17V22H15.25L29.9236 7.97513Z" stroke="#111111" stroke-width="3" stroke-linecap="round" stroke-linejoin="round"/>
</svg>
