<svg width="25" height="28" viewBox="0 0 25 28" fill="none" xmlns="http://www.w3.org/2000/svg">
<path d="M24.7185 17.293L21.8338 14.293C21.6535 14.1055 21.409 14.0002 21.154 14.0002C20.8991 14.0002 20.6545 14.1055 20.4742 14.293L11.5386 23.586V28H15.7828L24.7185 18.707C24.8987 18.5195 25 18.2652 25 18C25 17.7348 24.8987 17.4805 24.7185 17.293ZM14.9867 26H13.4616V24.414L18.2694 19.414L19.7944 21L14.9867 26ZM21.154 19.586L19.629 18L21.154 16.414L22.679 18L21.154 19.586ZM7.69237 28H1.92309C1.41321 27.9995 0.924363 27.7886 0.563823 27.4136C0.203284 27.0387 0.000509116 26.5303 0 26V2C0.000509116 1.46973 0.203284 0.961329 0.563823 0.586371C0.924363 0.211413 1.41321 0.000529477 1.92309 0H17.3078C17.8177 0.000529477 18.3066 0.211413 18.6671 0.586371C19.0276 0.961329 19.2304 1.46973 19.2309 2V12H17.3078V2H1.92309V26H7.69237V28Z" fill="#3F3F3F"/>
</svg>
