<svg width="38" height="38" viewBox="0 0 38 38" fill="none" xmlns="http://www.w3.org/2000/svg">
<mask id="mask0_71_1013" style="mask-type:luminance" maskUnits="userSpaceOnUse" x="0" y="0" width="38" height="38">
<path d="M38 0H0V38H38V0Z" fill="white"/>
</mask>
<g mask="url(#mask0_71_1013)">
<path fill-rule="evenodd" clip-rule="evenodd" d="M17.9437 22.6122C18.8146 22.6137 19.6773 22.4433 20.4822 22.1108C21.2872 21.7782 22.0185 21.29 22.6344 20.6742C23.2502 20.0583 23.7384 19.327 24.071 18.5221C24.4035 17.7171 24.5739 16.8545 24.5724 15.9835C24.5849 14.1995 23.8979 12.4817 22.6588 11.1981C21.4197 9.91464 19.7271 9.16768 17.9437 9.11741C17.0726 9.11553 16.2097 9.28569 15.4045 9.61811C14.5993 9.95054 13.8676 10.4387 13.2516 11.0546C12.6355 11.6704 12.1471 12.4019 11.8143 13.207C11.4816 14.0121 11.3112 14.8749 11.3127 15.746C11.3412 17.5181 12.0419 19.2131 13.273 20.4879C14.5042 21.7627 16.1738 22.522 17.9437 22.6122ZM6.81448 4.61916C9.76582 1.66781 13.7687 0.00976559 17.9425 0.00976563C22.1164 0.00976566 26.1193 1.66781 29.0706 4.61916C32.0219 7.57051 33.68 11.5734 33.68 15.7472C33.68 19.9211 32.0219 23.9239 29.0706 26.8753L17.9437 38.0022L6.81448 26.8753C3.96406 23.8714 2.375 19.8883 2.375 15.7472C2.375 11.6062 3.96406 7.62304 6.81448 4.61916Z" fill="#02482E"/>
</g>
</svg>
