<svg width="697" height="137" viewBox="0 0 697 137" fill="none" xmlns="http://www.w3.org/2000/svg">
<g clip-path="url(#clip0_253_449)">
<path d="M268.83 120.245C267.798 120.312 266.832 120.412 265.9 120.412C251.481 120.412 237.029 120.412 222.61 120.412C221.178 120.412 219.313 120.978 219.08 118.58C218.847 116.215 220.712 116.148 222.243 115.748C223.875 115.315 225.473 114.749 227.105 114.416C230.135 113.816 230.901 111.318 231.434 108.953C231.967 106.555 232.067 104.024 232.067 101.525C232.1 80.674 232.1 59.8225 232.067 38.9711C232.067 36.5728 231.867 34.1746 231.467 31.843C230.735 27.4462 228.071 25.4143 222.044 24.7481C220.179 24.5483 219.013 24.0487 219.113 22.1167C219.213 19.9516 220.945 20.318 222.343 20.318C238.694 20.318 255.077 20.1182 271.427 20.3847C281.617 20.5512 291.674 21.9502 300.298 28.2456C306.525 32.8089 309.456 41.4027 308.59 48.7306C307.125 60.955 299.133 66.984 288.377 70.548C287.311 70.9144 286.279 71.4474 284.847 72.0803C286.612 74.5451 288.344 76.9767 290.142 79.3749C297.967 89.8673 305.826 100.326 313.685 110.819C315.35 113.05 316.882 115.249 319.979 115.882C320.878 116.081 321.444 117.98 322.609 119.779C320.578 120.079 319.479 120.345 318.414 120.345C309.855 120.378 301.264 120.445 292.706 120.278C291.54 120.278 290.009 119.379 289.276 118.446C280.418 106.822 271.694 95.0968 262.969 83.4053C260.938 80.7073 258.94 77.976 256.942 75.2446L256.176 75.4445C256.043 78.6088 255.743 81.7732 255.81 84.9042C256.009 92.5653 256.209 100.226 256.709 107.887C257.008 112.517 259.772 114.982 264.468 115.482C269.163 115.982 269.23 116.048 268.863 120.212L268.83 120.245ZM256.642 49.1637H256.542C256.542 54.5264 256.609 59.9225 256.509 65.2852C256.476 67.5502 256.875 68.716 259.539 68.3163C263.335 67.7501 267.298 67.9166 270.928 66.9174C275.024 65.7849 279.02 63.9862 280.685 59.3229C282.649 53.7603 282.816 47.9978 282.283 42.2687C282.017 39.2709 281.184 36.1731 279.819 33.5084C276.389 26.7467 268.364 24.948 261.77 26.4136C257.441 27.3796 256.809 28.3788 256.709 32.7756C256.576 38.2383 256.709 43.701 256.709 49.1637H256.642Z" fill="#0C492E"/>
<path d="M432.166 24.1823V20.485C433.231 20.4184 434.164 20.3518 435.096 20.3518C460.904 20.3518 486.711 20.3518 512.485 20.2852C514.916 20.2852 515.848 20.7515 515.782 23.4162C515.615 32.2431 515.715 41.07 515.715 49.7636C513.018 51.1959 511.952 50.3299 511.253 47.7651C510.387 44.4675 509.255 41.1699 507.923 38.0389C504.993 31.1106 499.165 27.813 492.072 26.7471C487.277 26.0143 482.382 25.7145 477.487 25.548C471.493 25.3481 469.295 27.5798 469.262 33.6088C469.195 43.7014 469.262 53.794 469.262 63.8534C469.262 65.5854 469.861 66.2516 471.626 66.185C483.248 65.6187 486.778 62.4877 490.341 49.8636C490.707 48.5645 490.774 47.1322 491.373 45.9997C491.739 45.3002 492.938 44.6674 493.737 44.7007C494.37 44.734 495.003 45.7999 495.469 46.4994C495.702 46.8324 495.502 47.432 495.502 47.9316C495.502 62.4544 495.502 76.9438 495.502 91.4665C495.502 94.5976 495.136 94.8641 492.039 94.431C490.707 90.2008 489.508 86.0039 488.076 81.9068C486.178 76.4442 482.116 73.4464 476.488 72.5137C474.323 72.1473 472.159 71.9474 469.795 71.681C469.595 72.6136 469.295 73.3464 469.295 74.0459C469.328 85.2044 469.295 96.3297 469.528 107.488C469.628 112.385 472.592 115.116 477.52 115.516C479.984 115.715 482.449 116.049 484.946 116.348C486.045 119.979 485.712 120.445 482.016 120.445C466.698 120.445 451.413 120.445 436.095 120.445C434.796 120.445 433.498 120.246 432.099 120.112V116.648C434.863 115.949 437.627 115.349 440.358 114.55C443.255 113.684 444.62 111.452 444.953 108.554C445.153 106.755 445.286 104.923 445.286 103.091C445.286 80.7077 445.286 58.2907 445.286 35.9071C445.286 31.6768 444.553 27.6798 440.191 25.8478C437.793 24.8485 434.996 24.7486 432.166 24.1823Z" fill="#0C492E"/>
<path d="M678.885 120.245C678.019 120.311 677.087 120.411 676.154 120.411C660.67 120.411 645.152 120.411 629.668 120.411C629.268 120.411 628.769 120.545 628.535 120.378C627.77 119.745 626.537 119.012 626.537 118.313C626.537 117.547 627.636 116.381 628.469 116.181C630.5 115.682 632.698 115.881 634.696 115.315C638.525 114.216 640.59 110.852 640.59 106.155C640.59 83.4051 640.59 60.6217 640.59 37.8717C640.59 34.7073 640.623 31.543 640.823 28.3786C640.99 26.047 640.024 25.3142 637.793 25.4807C624.706 26.5133 615.648 32.1425 613.417 47.065C613.184 48.6971 613.218 50.2626 610.953 50.4958C609.288 50.6623 608.456 50.2959 608.422 48.4306C608.422 40.17 608.289 31.9094 608.256 23.6487C608.256 22.6162 608.556 21.5836 608.722 20.4844H697V50.196C693.27 51.0621 692.738 50.5957 692.005 46.5986C690.64 38.9709 687.743 31.976 680.283 28.6451C676.054 26.7465 671.126 26.4467 666.464 25.614C666.031 25.5473 665.199 26.6132 664.866 27.3127C664.599 27.8457 664.799 28.6451 664.799 29.3113C664.799 53.1605 664.799 76.9765 664.799 100.826C664.799 103.291 665.065 105.789 665.365 108.254C665.865 112.284 667.663 115.015 672.958 115.682C673.99 115.815 675.055 116.115 676.088 116.115C679.051 116.048 679.817 117.447 678.852 120.311L678.885 120.245Z" fill="#0C492E"/>
<path d="M402.629 120.445C395.602 120.445 388.576 120.445 381.55 120.445C380.218 120.445 378.719 120.645 378.553 118.646C378.42 116.748 379.519 116.148 381.217 116.048C382.249 115.982 383.281 115.615 384.347 115.549C389.375 115.182 391.007 113.75 389.941 108.92C388.909 104.124 386.678 99.627 385.18 94.8971C384.314 92.0991 382.849 91.1332 379.818 91.1665C371.194 91.333 362.536 91.1665 353.878 90.9999C351.946 90.9999 350.748 91.7327 350.148 93.4981C348.55 98.1614 346.885 102.825 345.42 107.555C343.988 112.218 345.919 114.949 350.748 115.549C351.98 115.715 353.312 115.682 354.41 116.182C355.21 116.548 356.209 117.614 356.175 118.347C356.142 119.079 354.977 120.345 354.277 120.345C345.619 120.478 336.961 120.478 328.303 120.378C327.537 120.378 326.205 119.413 326.139 118.813C326.072 117.914 326.738 116.281 327.371 116.148C333.665 114.716 336.096 109.686 338.227 104.557C343.655 91.4663 348.783 78.2759 354.077 65.1521C359.972 50.5628 365.899 35.9734 371.86 21.4174C372.492 19.8519 372.825 17.5202 375.356 18.1198C376.522 18.3863 378.087 19.1857 378.52 20.1517C385.146 35.4738 391.573 50.8959 398.133 66.2513C403.328 78.4424 408.589 90.6002 413.917 102.725C415.383 106.022 417.014 109.32 419.046 112.284C420.045 113.75 422.109 114.516 423.708 115.615C424.007 115.815 424.507 115.848 424.74 116.115C425.439 116.948 426.605 117.814 426.638 118.713C426.638 120.345 425.239 120.612 423.741 120.612C416.715 120.545 409.688 120.612 402.662 120.612V120.512L402.629 120.445ZM380.318 84.3048C375.889 73.5127 371.693 63.3201 367.531 53.0943L366.432 53.2275C362.436 63.4534 358.473 73.6793 354.344 84.3048H380.351H380.318Z" fill="#0C492E"/>
<path d="M541.489 116.248C542.222 120.178 542.056 120.411 538.259 120.411C530.567 120.411 522.841 120.478 515.149 120.345C513.984 120.345 512.219 119.579 511.853 118.713C510.987 116.681 512.785 116.015 514.417 115.515C519.944 113.816 521.876 108.953 523.807 104.323C530.034 89.3341 536.095 74.2784 542.155 59.2227C547.284 46.4987 552.345 33.7413 557.473 21.0173C558.073 19.4851 558.539 17.8196 560.97 17.9862C563.134 18.1194 563.767 19.2519 564.5 21.0173C571.559 37.8383 578.752 54.5928 585.911 71.3805C590.407 81.9062 594.869 92.4651 599.431 102.957C600.697 105.889 601.962 108.953 603.827 111.518C605.092 113.283 607.223 114.716 609.288 115.548C611.619 116.481 612.984 117.347 611.819 120.212H564.4V116.348C566.531 116.081 568.596 115.748 570.66 115.548C574.623 115.215 576.621 113.317 575.555 109.619C573.89 103.79 571.593 98.1277 569.395 92.4651C569.162 91.8656 567.93 91.3326 567.13 91.3326C557.607 91.266 548.083 91.2327 538.559 91.3659C537.627 91.3659 536.195 92.3985 535.862 93.2645C534.064 98.0944 532.399 102.957 530.967 107.921C529.701 112.284 531.466 114.815 536.095 115.582C537.893 115.881 539.691 116.081 541.523 116.314L541.489 116.248ZM553.011 52.2944L552.012 52.1279C547.85 62.8867 543.654 73.6455 539.392 84.6375H566.331C561.769 73.5456 557.373 62.92 553.011 52.2944Z" fill="#0C492E"/>
<path d="M200.832 21.7841C201.265 20.8848 201.431 19.3859 200.932 18.6197C197.035 12.3576 192.94 6.19548 188.944 0C135.564 32.2764 69.2971 28.0129 25.3412 0.199854C20.3462 5.72915 15.6509 11.2251 10.5893 16.388C8.49145 18.4865 8.05856 20.3518 9.12415 22.9499C13.8194 34.4415 14.9516 46.6326 15.3512 58.857C15.551 65.5188 14.9183 72.2806 14.2523 78.9424C13.6529 85.0046 12.7871 91.0669 11.4884 97.0292C9.82345 104.657 7.65896 112.185 3.52977 118.947C3.23007 119.446 3.29667 120.445 3.62967 120.978C6.75986 126.108 9.92335 131.204 13.22 136.234C13.6196 136.833 15.3179 137.2 15.9173 136.833C29.4704 129.239 43.8226 123.81 58.9075 120.179C73.3929 116.682 88.0782 114.85 102.963 114.983C109.956 115.049 116.916 115.815 123.909 116.415C136.263 117.448 148.284 120.246 159.74 124.876C168.331 128.373 176.489 132.903 184.914 136.8C185.88 137.233 187.911 136.9 188.577 136.167C192.44 131.804 196.003 127.207 199.733 122.744C200.965 121.245 201.098 119.946 200.399 118.047C198.7 113.617 197.002 109.12 195.903 104.524C192.207 89.0683 190.808 73.4131 192.174 57.4914C193.239 45.1004 195.57 33.1425 200.832 21.8174V21.7841ZM188.81 84.6715C189.709 93.7649 190.975 102.892 194.405 111.552C195.237 113.65 195.97 115.849 196.503 118.047C196.736 119.046 196.603 120.479 196.036 121.212C193.273 124.742 190.142 127.973 187.445 131.571C186.246 133.136 185.347 132.703 184.082 132.104C176.722 128.673 169.563 124.809 162.004 122.011C154.511 119.246 146.619 117.548 138.927 115.416C125.174 111.619 111.055 111.252 96.9693 111.619C88.3113 111.818 79.6533 113.084 71.0619 114.35C64.5685 115.316 58.1416 116.815 51.748 118.414C40.8589 121.178 30.4028 125.175 20.4794 130.471C19.2473 131.138 17.9819 131.904 16.6166 132.237C15.9839 132.403 14.8184 131.937 14.4521 131.371C12.1877 127.973 10.0565 124.476 7.95866 120.978C7.62566 120.412 7.42586 119.413 7.72556 118.913C12.3209 110.586 14.2523 101.393 16.2836 92.266C16.883 89.568 17.216 86.8033 17.5157 84.0387C18.7811 72.6803 19.547 61.2886 18.5147 49.8636C17.6489 40.3039 16.0172 30.9441 12.9869 21.8174C12.7538 21.1179 12.7538 19.9521 13.1867 19.4525C17.3159 14.6227 21.5783 9.89278 25.7075 5.19621C80.0529 33.6754 133.932 32.9093 188.044 5.39606C191.075 9.92609 194.072 14.2563 196.869 18.6864C197.335 19.4192 197.202 20.8514 196.802 21.7841C193.805 28.9788 191.807 36.3735 190.342 44.0345C187.778 57.5247 187.545 71.0815 188.877 84.6382L188.81 84.6715Z" fill="#0C492E"/>
<path d="M208.224 33.4081C207.192 38.2046 205.793 42.9012 205.194 47.6977C204.195 55.9583 202.963 64.2856 203.162 72.5462C203.362 81.473 205.027 90.3666 206.126 99.2601C206.326 100.759 207.092 102.191 207.225 103.657C207.291 104.49 206.626 105.356 206.293 106.222C205.66 105.622 204.628 105.089 204.461 104.39C203.196 99.0935 201.497 93.7974 201.098 88.4013C200.398 79.1747 200.099 69.8815 200.498 60.6549C200.898 51.8946 202.097 43.1677 205.027 34.7738C205.693 32.8419 206.659 32.742 208.257 33.4414L208.224 33.4081Z" fill="#0C492E"/>
<path d="M8.25818 67.5842C8.62448 78.776 6.32679 90.1011 3.8626 101.36C3.6295 102.359 3.2299 103.358 2.6971 104.224C2.3308 104.79 1.5316 105.09 0.965506 105.523C0.632507 104.857 -0.0667906 104.124 0.0331091 103.525C0.599207 100.427 1.2985 97.3624 2.131 94.298C4.52859 85.3712 5.36109 76.3111 5.09469 67.1178C4.89489 60.4227 4.56189 53.7276 3.8626 47.0991C3.4297 43.1687 2.0644 39.3381 1.3318 35.441C1.16531 34.5416 1.7647 33.509 2.0311 32.5098C2.6971 33.2093 3.7294 33.7755 3.9625 34.6082C7.09269 45.2005 8.49128 56.0592 8.29148 67.5509L8.25818 67.5842Z" fill="#0C492E"/>
<path d="M148.984 82.8059C147.052 82.5394 144.988 81.9731 143.156 82.3395C136.929 83.5387 135.331 82.4395 135.697 76.1774C135.997 71.4142 136.629 66.6843 137.229 61.9211C137.395 60.4888 137.429 58.7234 138.261 57.7575C142.29 52.9943 143.023 48.1978 140.359 42.402C137.429 36.1066 130.469 33.5085 124.342 36.906C122.877 37.7388 121.245 38.4049 119.613 38.7713C115.051 39.7706 110.822 41.2362 107.292 44.4672C106.859 44.8669 105.827 44.9002 105.128 44.7337C101.365 43.801 97.6352 42.3687 93.839 41.8358C91.4414 41.5027 89.943 40.7366 88.4112 38.9046C85.7472 35.6736 83.1498 32.0762 79.7199 29.8112C73.959 25.9474 63.0699 29.8778 60.4392 36.6729C57.2425 44.9335 55.5775 53.3274 62.9367 60.6554C64.9014 62.5873 64.6683 64.1528 62.5704 66.0847C57.8086 70.4815 53.3131 75.1781 48.6844 79.6748C47.3857 80.9073 47.1859 81.8066 48.5179 83.2389C54.2455 89.4344 61.3716 92.7986 69.4635 94.6639C77.6553 96.5625 85.7472 98.8941 93.9389 100.759C99.1337 101.925 104.395 102.758 109.656 103.424C117.882 104.49 124.508 95.2634 124.641 88.4684C124.741 82.5061 122.577 77.4764 118.881 72.9797C116.716 70.3816 114.552 67.7835 112.221 65.0522C119.613 64.3194 126.606 63.6199 134.032 62.8871C133.866 64.8856 133.699 67.4171 133.466 69.9153C133.2 72.8798 132.7 75.811 132.667 78.7755C132.6 82.5394 135.198 85.2041 138.994 85.1375C142.79 85.0709 146.553 84.6712 150.349 84.4047C150.715 84.1382 151.082 83.9051 151.415 83.6386C150.582 83.3388 149.816 82.9058 148.95 82.7726L148.984 82.8059ZM83.1831 70.1818C82.5837 69.3823 82.5837 68.1499 82.3173 67.1506C83.3163 67.4171 84.6483 67.3505 85.3143 67.9834C88.3113 70.9146 91.0751 74.0789 93.9722 77.11C95.6372 78.8421 96.7361 80.5742 95.9036 83.2389C95.2043 85.4706 95.2043 87.9022 94.7714 90.9666C89.4435 85.1375 84.4485 79.7747 79.5867 74.2788C79.2537 73.8791 79.6866 72.7799 79.7865 72.0138C80.4192 72.1803 81.2517 72.147 81.6846 72.5134C82.95 73.546 83.9823 74.8117 85.2144 75.8776C85.8138 76.3772 86.6463 76.6104 87.3789 76.9768L88.1781 76.0774C86.4798 74.1122 84.7149 72.2136 83.1831 70.1484V70.1818ZM85.5474 64.1195C85.0479 63.5866 85.4142 62.3208 85.3143 60.6554C89.4102 64.0196 91.5413 68.0167 95.4374 69.9486C95.7704 69.6821 96.0701 69.3823 96.4031 69.1159C93.3062 65.5851 90.2427 62.0543 87.1458 58.5236C87.4122 58.2238 87.7119 57.9573 87.9783 57.6576C88.8108 58.2238 89.7765 58.6901 90.4757 59.3896C94.0388 63.0869 97.4021 66.9841 101.065 70.5815C103.363 72.8465 101.298 73.8457 100.233 75.278C99.0338 76.9102 97.7351 76.8102 96.4364 75.4779C92.7734 71.714 89.0772 67.9834 85.5474 64.0862V64.1195ZM93.8723 58.7568C92.5403 57.3911 91.0419 56.2253 89.1438 54.5265C92.3405 53.4606 93.9056 54.4599 95.3375 56.1587C97.6685 58.9233 100.099 61.6213 102.564 64.2861C102.863 64.6191 103.529 64.6191 104.562 64.2861C102.364 61.4548 100.199 58.6235 98.0348 55.8256C98.3345 55.5591 98.6675 55.2593 98.9672 54.9928C104.528 58.8567 107.958 64.5525 111.987 70.1484C110.722 70.315 109.59 70.2151 108.757 70.6148C106.526 71.6807 105.194 70.6148 103.796 69.0826C100.566 65.5851 97.2356 62.1543 93.9056 58.7568H93.8723ZM86.9127 42.9683C83.5494 39.3709 80.1861 35.7735 76.7895 32.2095C80.1195 32.1095 87.0126 39.4042 86.9127 42.9683ZM75.6573 34.3412C78.7875 37.8054 82.0842 41.1363 85.281 44.4672C83.9157 46.7655 82.5837 46.499 80.952 44.8336C78.1881 42.0356 75.2577 39.3376 72.3939 36.6063L71.5281 37.4057C73.4928 39.704 75.4242 42.0023 77.3889 44.2673C78.3213 45.3332 79.3869 46.3325 80.2194 47.4983C80.5191 47.898 80.2527 48.6641 80.2527 49.2637C79.6533 49.1638 78.8874 49.2637 78.4878 48.9639C77.4888 48.0979 76.623 47.0653 75.7239 46.066C72.3939 42.3687 69.0639 38.6714 65.634 34.8409C69.1305 30.6106 72.3606 30.6106 75.6906 34.3079L75.6573 34.3412ZM62.0376 39.4375C62.3706 38.738 62.7369 38.1052 63.4695 36.7395C68.3646 41.9357 72.9267 46.7988 77.4888 51.6619C77.1891 51.995 76.9227 52.3281 76.623 52.6612C71.8611 50.7626 69.8631 45.0334 65.301 42.9017C65.0679 43.1681 64.8681 43.4013 64.635 43.6678C67.2657 46.7655 69.9297 49.8299 72.4605 52.9943C73.2264 53.9269 74.625 55.0261 72.8268 56.3252C71.3616 57.3911 70.629 56.625 69.63 55.3592C67.8318 53.0276 65.634 50.9958 63.6027 48.864C60.5058 45.633 60.1062 43.5012 62.0376 39.4708V39.4375ZM60.5724 52.8611C60.1063 52.0616 60.4059 50.8625 60.3726 49.8632C60.639 49.7633 60.9054 49.6634 61.1385 49.5635C64.0356 52.6945 66.8994 55.7923 69.7632 58.89C67.4988 61.8878 67.0659 61.9877 65.0013 59.4229C63.3363 57.3578 61.8711 55.1261 60.5391 52.8611H60.5724ZM82.2507 94.8304C75.5907 93.165 68.8641 91.6994 62.2374 89.934C60.639 89.5343 59.0407 88.6683 57.742 87.6024C55.411 85.7038 53.3131 83.5054 51.6148 81.9065C55.6441 77.543 59.3737 73.2462 63.4029 69.2158C70.296 62.3208 77.7219 55.9255 84.3153 48.7307C89.9097 42.6352 95.6039 43.5345 100.965 46.0327C104.262 47.5649 102.897 50.7293 102.331 53.9603C100.199 53.4273 98.3012 53.1275 96.5696 52.428C91.0085 50.1297 89.1105 50.696 86.0469 55.8922C82.1175 62.554 78.1548 69.2158 74.292 75.9109C73.8258 76.677 73.6926 77.6097 73.293 78.8421C74.5251 78.942 75.3909 79.2085 76.1568 79.042C79.3536 78.4091 81.2517 80.1078 83.1831 82.3395C87.1791 86.9695 91.4414 91.3996 95.6039 95.8963C96.2366 96.5625 96.7694 97.2953 97.0025 98.5944C92.0741 97.3286 87.1458 95.9962 82.1841 94.7638L82.2507 94.8304ZM119.88 78.3758C121.311 80.9406 121.977 83.9051 123.01 86.6697C122.51 92.7986 119.646 97.0954 114.951 100.226C110.389 103.258 104.562 101.859 100.865 96.7957C95.5373 89.5676 97.1357 80.3077 104.362 74.8783C109.69 70.8812 116.616 72.4801 119.913 78.3758H119.88ZM129.137 60.7886C127.971 61.2216 126.739 61.5547 125.507 61.7213C124.275 61.8878 123.01 61.7546 121.778 61.7546V61.8212C118.947 61.8212 116.15 61.8545 113.319 61.8212C107.592 61.7213 105.993 59.4229 105.96 53.7604C105.96 48.2977 109.423 45.3332 112.853 42.502C116.217 39.704 123.409 41.3694 126.04 45.1334C128.238 48.2644 131.235 50.8625 132.101 54.9595C132.8 58.1905 132.4 59.6561 129.17 60.8219L129.137 60.7886ZM133.366 51.9284C131.002 48.7307 128.771 45.3665 126.173 42.402C124.508 40.5034 124.841 39.5375 126.739 38.4049C129.77 36.6063 133.399 37.5389 135.564 40.3036C137.462 42.7018 139.193 45.0668 139.027 48.3643C138.794 49.4635 138.827 50.7293 138.261 51.6286C137.495 52.8611 136.296 53.7937 135.264 54.8596C134.631 53.8936 134.032 52.8611 133.333 51.9284H133.366Z" fill="#0C492E"/>
<path d="M139.094 48.3984C138.861 49.4976 138.894 50.7634 138.328 51.6627C137.562 52.8952 136.363 53.8278 135.331 54.8937C134.698 53.9277 134.099 52.8952 133.399 51.9625C131.035 48.7648 128.804 45.4006 126.207 42.4361C124.542 40.5375 124.875 39.5715 126.773 38.439C129.803 36.6404 133.433 37.573 135.597 40.3377C137.495 42.7359 139.227 45.1008 139.06 48.3984H139.094Z" fill="#E14644"/>
<path d="M129.17 60.8226C128.004 61.2556 126.772 61.5887 125.54 61.7553C124.308 61.9218 123.043 61.7886 121.811 61.7886V61.8552C118.98 61.8552 116.183 61.8885 113.352 61.8552C107.625 61.7552 106.026 59.4569 105.993 53.7944C105.993 48.3317 109.456 45.3672 112.886 42.5359C116.25 39.738 123.442 41.4034 126.073 45.1674C128.271 48.2984 131.268 50.8965 132.134 54.9935C132.833 58.2245 132.433 59.6901 129.203 60.8559L129.17 60.8226Z" fill="#E14644"/>
<path d="M113.419 97.8626C110.955 100.361 108.424 99.2616 106.226 98.5954C102.763 97.5295 100.266 93.8655 100.366 90.2015C100.466 87.4369 100.665 84.6056 101.431 81.9742C102.63 77.8772 106.293 75.6455 110.622 75.7454C114.951 75.8453 117.715 78.1103 119.18 82.3739C120.346 85.7048 121.078 88.9025 118.647 91.8337C118.481 89.6353 118.547 87.3369 118.048 85.1719C116.783 79.8091 112.32 76.5115 108.058 78.1437C103.662 79.8091 100.599 83.673 101.964 89.6353C103.296 95.431 106.16 97.4962 112.187 97.4296C112.454 97.4296 112.72 97.5961 113.419 97.8626Z" fill="#0C492E"/>
<path d="M105.261 84.7718C105.46 81.4409 107.558 80.5416 110.022 80.2751C112.753 79.9753 114.984 81.7407 116.25 84.8384C117.615 88.136 116.249 91.9666 113.019 93.9984C110.688 95.464 107.492 94.9644 105.527 92.6328C105.027 92.0332 105.027 91.0339 104.828 90.2012C105.494 90.501 106.293 90.6675 106.826 91.1339C108.824 92.8326 111.255 92.9992 113.053 91.367C115.051 89.5683 115.251 86.4373 113.486 84.1723C111.754 81.9739 109.956 81.7407 107.492 83.3729C106.759 83.8392 106.026 84.3055 105.261 84.8051V84.7718Z" fill="#0C492E"/>
<path d="M113.886 87.3368C112.387 88.6691 111.155 90.4345 110.456 90.2347C109.29 89.9349 107.725 88.3693 107.725 87.3368C107.725 86.3375 109.357 84.772 110.489 84.5055C111.222 84.339 112.42 86.0377 113.886 87.3368Z" fill="#0C492E"/>
</g>
<defs>
<clipPath id="clip0_253_449">
<rect width="697" height="137" fill="white"/>
</clipPath>
</defs>
</svg>
