<svg width="73" height="73" viewBox="0 0 73 73" fill="none" xmlns="http://www.w3.org/2000/svg">
<path d="M0.884766 6.09399C0.884806 4.97861 1.18729 3.88471 1.75914 2.93195C2.33099 1.9792 3.15018 1.20427 4.1271 0.69194C5.10402 0.179608 6.20105 -0.0503995 7.29821 0.0270762C8.39536 0.104552 9.45038 0.486528 10.3479 1.13122L52.3261 31.3153C53.1059 31.8745 53.7427 32.6145 54.1835 33.4737C54.6244 34.3329 54.8565 35.2864 54.8606 36.255C54.8647 37.2235 54.6407 38.1791 54.2072 39.0421C53.7736 39.9051 53.1431 40.6506 52.3681 41.2166L10.3898 71.8507C9.4943 72.5058 8.43781 72.8975 7.3368 72.9825C6.23579 73.0674 5.13302 72.8425 4.15003 72.3324C3.16704 71.8223 2.34201 71.0469 1.76585 70.0916C1.1897 69.1363 0.884802 68.0382 0.884766 66.9184V6.09399ZM72.8475 3.04092C72.8475 2.23441 72.5316 1.46095 71.9692 0.890664C71.9692 0.890664 70.6443 0 69.849 0C69.0538 0 68.2911 0.320382 67.7288 0.890664C67.1665 1.46095 66.8506 2.23441 66.8506 3.04092V69.941C66.8506 70.7475 67.1665 71.521 67.7288 72.0913C68.2911 72.6616 69.0538 72.982 69.849 72.982C70.6443 72.982 71.4069 72.6616 71.9692 72.0913C72.5316 71.521 72.8475 70.7475 72.8475 69.941V3.04092Z" fill="#F8F8F8"/>
</svg>
