<svg width="22" height="13" viewBox="0 0 22 13" fill="none" xmlns="http://www.w3.org/2000/svg">
<path d="M1.25697 10.5H20.5271V12.5H1.25697V10.5ZM2.365 6.45L3.18398 4.97L4.00297 6.45L5.25553 5.7L4.43655 4.22H6.07451V2.72H4.43655L5.25553 1.25L4.00297 0.5L3.18398 1.97L2.365 0.5L1.11244 1.25L1.93142 2.72H0.293457V4.22H1.93142L1.11244 5.7L2.365 6.45ZM8.82051 5.7L10.0731 6.45L10.8921 4.97L11.711 6.45L12.9636 5.7L12.1446 4.22H13.7826V2.72H12.1446L12.9636 1.25L11.711 0.5L10.8921 1.97L10.0731 0.5L8.82051 1.25L9.63949 2.72H8.00153V4.22H9.63949L8.82051 5.7ZM21.4907 2.72H19.8527L20.6717 1.25L19.4191 0.5L18.6001 1.97L17.7811 0.5L16.5286 1.25L17.3476 2.72H15.7096V4.22H17.3476L16.5286 5.7L17.7811 6.45L18.6001 4.97L19.4191 6.45L20.6717 5.7L19.8527 4.22H21.4907V2.72Z" fill="#02482E"/>
</svg>
